{
.appVersion = "1349";
copyright = "Copyright 2020 The Daruma Drop Project Authors (https://github.com/ManiackersDesign/darumadrop), all rights reserved.";
customParameters = (
{
name = license;
value = "This Font Software is licensed under the SIL Open Font License, Version 1.1. This license is available with a FAQ at: https://scripts.sil.org/OFL";
},
{
name = licenseURL;
value = "https://scripts.sil.org/OFL";
},
{
name = fsType;
value = (
);
},
{
name = vendorID;
value = MKSD;
}
);
date = "2020-10-30 04:39:00 +0000";
designer = "Maniackers Design";
designerURL = "https://mksd.jp/";
disablesAutomaticAlignment = 1;
familyName = "Daruma Drop One";
featurePrefixes = (
{
automatic = 1;
code = "languagesystem DFLT dflt;\012";
name = Languagesystems;
}
);
features = (
{
automatic = 1;
code = "feature sups;\012feature frac;\012feature ordn;\012feature vert;\012feature vrt2;\012";
name = aalt;
},
{
automatic = 1;
code = "lookup ccmp_Other_1 {\012	@CombiningTopAccents = [acutecomb brevecomb caroncomb circumflexcomb dieresiscomb dotaccentcomb gravecomb hungarumlautcomb ringcomb tildecomb];\012	@CombiningNonTopAccents = [cedillacomb lowlinecomb ogonekcomb strokelongcomb];\012	sub [i]' @CombiningTopAccents by [idotless];\012	sub [i]' @CombiningNonTopAccents @CombiningTopAccents by [idotless];\012} ccmp_Other_1;\012";
name = ccmp;
},
{
automatic = 1;
code = "sub zero by zerosuperior;\012sub one by onesuperior;\012sub two by twosuperior;\012sub three by threesuperior;\012sub four by foursuperior;\012";
name = sups;
},
{
automatic = 1;
code = "sub one slash four by onequarter;\012sub one slash two by onehalf;\012sub three slash four by threequarters;\012";
name = frac;
},
{
automatic = 1;
code = "sub [zero one two three four five six seven eight nine] [A a]' by ordfeminine;\012sub [zero one two three four five six seven eight nine] [O o]' by ordmasculine;\012";
name = ordn;
},
{
automatic = 1;
code = "lookupflag IgnoreMarks;\012sub f i by fi;\012sub f l by fl;\012";

glyphs = (
{
glyphname = A;
lastChange = "2020-11-04 23:12:10 +0000";
layers = (
{
layerId = master01;
paths = (
{
closed = 1;
nodes = (
"644 38 OFFCURVE",
"643 36 OFFCURVE",
"639 29 CURVE",
"628 28 OFFCURVE",
"616 30 OFFCURVE",
"606 33 CURVE",
"580 22 OFFCURVE",
"587 24 OFFCURVE",
"564 25 CURVE",
"560 23 OFFCURVE",
"557 21 OFFCURVE",
"552 18 CURVE",
"552 18 OFFCURVE",
"551 17 OFFCURVE",
"550 17 CURVE",
"537 17 OFFCURVE",
"523 16 OFFCURVE",
"511 16 CURVE",
"503 24 OFFCURVE",
"503 24 OFFCURVE",
"499 39 CURVE",
"497 44 OFFCURVE",
"494 48 OFFCURVE",
"490 53 CURVE SMOOTH",
"476 68 OFFCURVE",
"461 97 OFFCURVE",
"453 115 CURVE",
"448 120 LINE",
"446 120 OFFCURVE",
"444 120 OFFCURVE",
"442 118 CURVE",
"432 112 OFFCURVE",
"422 110 OFFCURVE",
"412 115 CURVE",
"400 118 OFFCURVE",
"389 117 OFFCURVE",
"377 117 CURVE",
"368 118 OFFCURVE",
"358 116 OFFCURVE",
"348 116 CURVE SMOOTH",
"340 116 OFFCURVE",
"331 117 OFFCURVE",
"323 117 CURVE",
"312 115 OFFCURVE",
"300 113 OFFCURVE",
"290 108 CURVE SMOOTH",
"281 103 OFFCURVE",
"270 102 OFFCURVE",
"260 101 CURVE",
"245 101 OFFCURVE",
"231 97 OFFCURVE",
"217 93 CURVE SMOOTH",
"213 92 OFFCURVE",
"208 90 OFFCURVE",
"205 85 CURVE",
"205 78 OFFCURVE",
"204 71 OFFCURVE",
"204 63 CURVE",
"202 56 OFFCURVE",
"201 51 OFFCURVE",
"200 44 CURVE SMOOTH",
"195 25 OFFCURVE",
"182 13 OFFCURVE",
"170 0 CURVE",
"164 0 OFFCURVE",
"160 1 OFFCURVE",
"155 1 CURVE SMOOTH",
"151 1 OFFCURVE",
"146 0 OFFCURVE",
"141 -1 CURVE",
"133 -2 OFFCURVE",
"126 -1 OFFCURVE",
"118 2 CURVE SMOOTH",
"116 3 OFFCURVE",
"116 2 OFFCURVE",
"114 2 CURVE",
"112 2 LINE",
"109 2 LINE",
"107 3 LINE SMOOTH",
"105 5 OFFCURVE",
"105 3 OFFCURVE",
"98 5 CURVE",
"95 6 OFFCURVE",
"90 7 OFFCURVE",
"87 7 CURVE",
"81 7 OFFCURVE",
"79 6 OFFCURVE",
"72 8 CURVE SMOOTH",
"69 9 OFFCURVE",
"64 9 OFFCURVE",
"57 12 CURVE SMOOTH",
"53 13 OFFCURVE",
"52 12 OFFCURVE",
"48 13 CURVE SMOOTH",
"45 14 LINE",
"43 14 LINE",
"41 15 LINE",
"43 33 OFFCURVE",
"46 52 OFFCURVE",
"55 69 CURVE SMOOTH",
"57 74 OFFCURVE",
"59 78 OFFCURVE",
"59 83 CURVE",
"62 100 LINE",
"66 107 OFFCURVE",
"70 115 OFFCURVE",
"74 121 CURVE",
"77 129 OFFCURVE",
"71 137 OFFCURVE",
"77 144 CURVE",
"81 150 OFFCURVE",
"79 158 OFFCURVE",
"85 162 CURVE",
"90 173 OFFCURVE",
"95 182 OFFCURVE",
"98 193 CURVE",
"99 194 OFFCURVE",
"99 195 OFFCURVE",
"99 197 CURVE",
"101 210 OFFCURVE",
"107 223 OFFCURVE",
"116 233 CURVE",
"115 238 OFFCURVE",
"115 243 OFFCURVE",
"115 246 CURVE",
"118 254 OFFCURVE",
"125 260 OFFCURVE",
"131 266 CURVE",
"137 274 OFFCURVE",
"143 282 OFFCURVE",
"145 291 CURVE SMOOTH",
"150 311 OFFCURVE",
"160 328 OFFCURVE",
"173 344 CURVE SMOOTH",
"181 355 OFFCURVE",
"186 368 OFFCURVE",
"193 381 CURVE",
"198 392 OFFCURVE",
"204 404 OFFCURVE",
"205 416 CURVE",
"220 435 OFFCURVE",
"220 436 OFFCURVE",
"228 468 CURVE",
"230 471 OFFCURVE",
"236 471 OFFCURVE",
"238 477 CURVE",
"238 480 OFFCURVE",
"240 482 OFFCURVE",
"243 483 CURVE SMOOTH",
"248 486 OFFCURVE",
"252 491 OFFCURVE",
"254 497 CURVE SMOOTH",
"258 507 OFFCURVE",
"266 516 OFFCURVE",
"273 524 CURVE",
"276 527 OFFCURVE",
"278 530 OFFCURVE",
"279 534 CURVE SMOOTH",
"286 552 OFFCURVE",
"299 567 OFFCURVE",
"307 583 CURVE",
"313 588 OFFCURVE",
"319 588 OFFCURVE",
"324 588 CURVE",
"327 588 LINE",
"334 585 OFFCURVE",
"342 583 OFFCURVE",
"348 582 CURVE SMOOTH",
"357 581 OFFCURVE",
"365 581 OFFCURVE",
"371 581 CURVE SMOOTH",
"375 581 OFFCURVE",
"379 581 OFFCURVE",
"383 580 CURVE SMOOTH",
"400 575 OFFCURVE",
"419 576 OFFCURVE",
"437 575 CURVE",
"460 559 OFFCURVE",
"476 550 OFFCURVE",
"485 514 CURVE",
"486 513 OFFCURVE",
"489 511 OFFCURVE",
"491 509 CURVE",
"493 507 OFFCURVE",
"496 506 OFFCURVE",
"499 504 CURVE",
"501 498 OFFCURVE",
"503 492 OFFCURVE",
"506 486 CURVE SMOOTH",
"509 480 OFFCURVE",
"513 475 OFFCURVE",
"518 468 CURVE",
"521 454 OFFCURVE",
"529 442 OFFCURVE",
"528 425 CURVE",
"535 415 LINE",
"535 408 OFFCURVE",
"536 401 OFFCURVE",
"536 393 CURVE",
"542 389 OFFCURVE",
"541 382 OFFCURVE",
"543 374 CURVE",
"547 369 OFFCURVE",
"551 362 OFFCURVE",
"555 357 CURVE",
"558 348 OFFCURVE",
"560 339 OFFCURVE",
"562 331 CURVE",
"561 325 OFFCURVE",
"560 320 OFFCURVE",
"559 315 CURVE",
"562 301 OFFCURVE",
"570 292 OFFCURVE",
"577 282 CURVE",
"583 256 OFFCURVE",
"590 231 OFFCURVE",
"593 204 CURVE",
"608 185 OFFCURVE",
"608 163 OFFCURVE",
"613 141 CURVE SMOOTH",
"615 132 OFFCURVE",
"615 123 OFFCURVE",
"616 114 CURVE",
"619 106 OFFCURVE",
"630 90 OFFCURVE",
"636 84 CURVE",
"636 70 OFFCURVE",
"637 56 OFFCURVE",
"642 43 CURVE SMOOTH"
);
},
{
closed = 1;
nodes = (
"400 263 OFFCURVE",
"391 270 OFFCURVE",
"394 279 CURVE",
"389 288 OFFCURVE",
"389 306 OFFCURVE",
"392 307 CURVE",
"391 309 OFFCURVE",
"391 311 OFFCURVE",
"391 313 CURVE",
"386 319 OFFCURVE",
"381 324 OFFCURVE",
"377 331 CURVE",
"377 332 OFFCURVE",
"375 332 OFFCURVE",
"373 334 CURVE",
"369 335 OFFCURVE",
"367 337 OFFCURVE",
"365 340 CURVE",
"363 344 OFFCURVE",
"362 348 OFFCURVE",
"358 350 CURVE",
"353 350 OFFCURVE",
"351 345 OFFCURVE",
"346 343 CURVE",
"340 342 OFFCURVE",
"336 340 OFFCURVE",
"331 339 CURVE",
"325 334 OFFCURVE",
"323 329 OFFCURVE",
"322 323 CURVE",
"322 311 LINE",
"316 301 OFFCURVE",
"309 296 OFFCURVE",
"307 288 CURVE SMOOTH",
"305 278 OFFCURVE",
"302 270 OFFCURVE",
"298 263 CURVE",
"298 254 OFFCURVE",
"293 247 OFFCURVE",
"290 239 CURVE",
"289 238 OFFCURVE",
"289 236 OFFCURVE",
"289 233 CURVE",
"289 230 OFFCURVE",
"292 227 OFFCURVE",
"296 227 CURVE SMOOTH",
"301 227 OFFCURVE",
"307 228 OFFCURVE",
"312 228 CURVE",
"315 227 OFFCURVE",
"319 224 OFFCURVE",
"322 223 CURVE",
"342 225 OFFCURVE",
"360 231 OFFCURVE",
"377 238 CURVE",
"385 244 OFFCURVE",
"396 245 OFFCURVE",
"401 254 CURVE"
);
}
);
width = 684;
}
);
unicode = 0041;
},
{
glyphname = Aacute;
lastChange = "2020-11-04 23:12:10 +0000";
layers = (
{
layerId = master01;
paths = (
{
closed = 1;
nodes = (
"453 781 OFFCURVE",
"452 773 OFFCURVE",
"445 765 CURVE SMOOTH",
"432 750 OFFCURVE",
"417 737 OFFCURVE",
"402 726 CURVE SMOOTH",
"392 719 OFFCURVE",
"384 712 OFFCURVE",
"377 704 CURVE",
"360 697 LINE",
"352 685 OFFCURVE",
"343 674 OFFCURVE",
"332 666 CURVE",
"324 662 OFFCURVE",
"320 667 OFFCURVE",
"315 667 CURVE SMOOTH",
"302 667 OFFCURVE",
"292 672 OFFCURVE",
"283 680 CURVE",
"279 682 OFFCURVE",
"275 682 OFFCURVE",
"271 684 CURVE",
"270 702 OFFCURVE",
"270 702 OFFCURVE",
"276 719 CURVE",
"288 731 OFFCURVE",
"298 744 OFFCURVE",
"307 754 CURVE",
"314 770 OFFCURVE",
"320 784 OFFCURVE",
"327 797 CURVE SMOOTH",
"332 808 OFFCURVE",
"340 819 OFFCURVE",
"347 829 CURVE",
"352 829 OFFCURVE",
"357 830 OFFCURVE",
"360 829 CURVE SMOOTH",
"371 825 OFFCURVE",
"383 825 OFFCURVE",
"393 820 CURVE",
"411 815 OFFCURVE",
"428 810 OFFCURVE",
"444 798 CURVE",
"445 796 OFFCURVE",
"447 793 OFFCURVE",
"448 791 CURVE SMOOTH"
);
},
{
closed = 1;
nodes = (
"669 33 LINE SMOOTH",
"667 31 OFFCURVE",
"665 29 OFFCURVE",
"661 28 CURVE",
"649 20 OFFCURVE",
"636 12 OFFCURVE",
"623 5 CURVE SMOOTH",
"616 1 OFFCURVE",
"610 -2 OFFCURVE",
"604 -6 CURVE SMOOTH",
"581 -18 OFFCURVE",
"581 -18 OFFCURVE",
"565 -38 CURVE",
"554 -41 OFFCURVE",
"549 -35 OFFCURVE",
"543 -28 CURVE",
"541 -18 OFFCURVE",
"538 -7 OFFCURVE",
"536 5 CURVE",
"528 14 OFFCURVE",
"523 28 OFFCURVE",
"512 37 CURVE SMOOTH",
"505 41 OFFCURVE",
"503 51 OFFCURVE",
"499 59 CURVE SMOOTH",
"494 70 OFFCURVE",
"486 78 OFFCURVE",
"477 86 CURVE SMOOTH",
"475 89 OFFCURVE",
"471 89 OFFCURVE",
"469 90 CURVE SMOOTH",
"465 92 OFFCURVE",
"462 95 OFFCURVE",
"461 100 CURVE",
"460 101 LINE",
"453 102 OFFCURVE",
"445 103 OFFCURVE",
"438 105 CURVE SMOOTH",
"428 107 OFFCURVE",
"425 106 OFFCURVE",
"421 94 CURVE",
"422 94 LINE",
"421 93 LINE",
"421 94 LINE",
"414 90 OFFCURVE",
"406 87 OFFCURVE",
"397 89 CURVE",
"362 89 LINE",
"360 90 OFFCURVE",
"355 92 OFFCURVE",
"350 94 CURVE SMOOTH",
"340 98 OFFCURVE",
"338 98 OFFCURVE",
"335 86 CURVE",
"332 82 OFFCURVE",
"329 81 OFFCURVE",
"325 79 CURVE",
"313 82 OFFCURVE",
"300 85 OFFCURVE",
"288 87 CURVE SMOOTH",
"281 89 OFFCURVE",
"273 89 OFFCURVE",
"266 89 CURVE",
"261 90 OFFCURVE",
"256 89 OFFCURVE",
"253 89 CURVE",
"248 87 OFFCURVE",
"245 85 OFFCURVE",
"243 82 CURVE",
"240 77 OFFCURVE",
"238 74 OFFCURVE",
"237 70 CURVE SMOOTH",
"235 62 OFFCURVE",
"232 55 OFFCURVE",
"227 51 CURVE",
"224 48 OFFCURVE",
"223 45 OFFCURVE",
"222 41 CURVE",
"221 33 OFFCURVE",
"216 25 OFFCURVE",
"212 18 CURVE SMOOTH",
"206 8 OFFCURVE",
"200 -2 OFFCURVE",
"193 -12 CURVE SMOOTH",
"189 -18 OFFCURVE",
"184 -25 OFFCURVE",
"179 -32 CURVE",
"175 -32 OFFCURVE",
"171 -33 OFFCURVE",
"168 -32 CURVE",
"158 -28 OFFCURVE",
"147 -22 OFFCURVE",
"135 -16 CURVE",
"122 -16 OFFCURVE",
"109 -13 OFFCURVE",
"95 -9 CURVE",
"87 -6 OFFCURVE",
"79 -2 OFFCURVE",
"74 3 CURVE",
"66 15 OFFCURVE",
"54 20 OFFCURVE",
"44 29 CURVE",
"44 32 OFFCURVE",
"43 36 OFFCURVE",
"44 38 CURVE",
"47 49 OFFCURVE",
"52 60 OFFCURVE",
"55 71 CURVE SMOOTH",
"59 82 OFFCURVE",
"62 92 OFFCURVE",
"62 102 CURVE SMOOTH",
"62 113 OFFCURVE",
"66 122 OFFCURVE",
"71 129 CURVE SMOOTH",
"77 136 OFFCURVE",
"82 144 OFFCURVE",
"83 152 CURVE",
"83 153 OFFCURVE",
"83 154 OFFCURVE",
"84 155 CURVE",
"98 184 OFFCURVE",
"105 214 OFFCURVE",
"113 244 CURVE SMOOTH",
"115 252 OFFCURVE",
"120 260 OFFCURVE",
"123 267 CURVE",
"125 275 OFFCURVE",
"128 282 OFFCURVE",
"130 289 CURVE",
"135 291 OFFCURVE",
"140 293 OFFCURVE",
"146 296 CURVE",
"156 311 OFFCURVE",
"168 327 OFFCURVE",
"171 345 CURVE",
"173 348 OFFCURVE",
"174 352 OFFCURVE",
"175 354 CURVE SMOOTH",
"185 378 OFFCURVE",
"192 402 OFFCURVE",
"202 427 CURVE SMOOTH",
"205 432 OFFCURVE",
"207 438 OFFCURVE",
"212 443 CURVE SMOOTH",
"220 451 OFFCURVE",
"223 461 OFFCURVE",
"227 471 CURVE SMOOTH",
"229 478 OFFCURVE",
"229 485 OFFCURVE",
"230 493 CURVE",
"232 496 OFFCURVE",
"233 499 OFFCURVE",
"236 501 CURVE",
"241 508 OFFCURVE",
"247 516 OFFCURVE",
"250 526 CURVE SMOOTH",
"252 534 OFFCURVE",
"254 541 OFFCURVE",
"258 547 CURVE SMOOTH",
"265 564 OFFCURVE",
"271 581 OFFCURVE",
"281 596 CURVE",
"291 603 OFFCURVE",
"302 606 OFFCURVE",
"314 608 CURVE SMOOTH",
"331 611 OFFCURVE",
"347 615 OFFCURVE",
"365 618 CURVE SMOOTH",
"371 619 OFFCURVE",
"379 620 OFFCURVE",
"386 618 CURVE",
"404 615 OFFCURVE",
"421 614 OFFCURVE",
"438 613 CURVE",
"442 612 OFFCURVE",
"444 612 OFFCURVE",
"448 611 CURVE",
"451 607 OFFCURVE",
"453 605 OFFCURVE",
"455 600 CURVE SMOOTH",
"458 596 OFFCURVE",
"459 591 OFFCURVE",
"461 585 CURVE SMOOTH",
"465 577 OFFCURVE",
"469 568 OFFCURVE",
"477 562 CURVE SMOOTH",
"488 554 OFFCURVE",
"491 542 OFFCURVE",
"500 531 CURVE SMOOTH",
"505 526 OFFCURVE",
"504 518 OFFCURVE",
"508 511 CURVE",
"513 506 OFFCURVE",
"516 501 OFFCURVE",
"520 496 CURVE SMOOTH",
"522 491 OFFCURVE",
"524 485 OFFCURVE",
"526 481 CURVE SMOOTH",
"527 476 OFFCURVE",
"527 470 OFFCURVE",
"528 466 CURVE",
"531 463 OFFCURVE",
"537 463 OFFCURVE",
"538 461 CURVE",
"543 454 OFFCURVE",
"541 450 OFFCURVE",
"541 444 CURVE SMOOTH",
"541 434 OFFCURVE",
"541 423 OFFCURVE",
"546 413 CURVE SMOOTH",
"550 406 OFFCURVE",
"551 399 OFFCURVE",
"553 391 CURVE",
"557 386 OFFCURVE",
"561 382 OFFCURVE",
"566 376 CURVE",
"566 374 OFFCURVE",
"566 370 OFFCURVE",
"567 367 CURVE",
"567 359 OFFCURVE",
"570 351 OFFCURVE",
"578 345 CURVE SMOOTH",
"584 342 OFFCURVE",
"588 337 OFFCURVE",
"591 331 CURVE SMOOTH",
"596 324 OFFCURVE",
"600 317 OFFCURVE",
"606 307 CURVE",
"608 291 OFFCURVE",
"615 273 OFFCURVE",
"628 258 CURVE",
"630 251 OFFCURVE",
"627 243 OFFCURVE",
"630 236 CURVE SMOOTH",
"633 230 OFFCURVE",
"630 223 OFFCURVE",
"633 217 CURVE SMOOTH",
"636 210 OFFCURVE",
"638 202 OFFCURVE",
"639 195 CURVE",
"642 189 OFFCURVE",
"645 184 OFFCURVE",
"649 179 CURVE",
"646 170 OFFCURVE",
"653 166 OFFCURVE",
"657 158 CURVE",
"657 154 OFFCURVE",
"656 150 OFFCURVE",
"656 146 CURVE SMOOTH",
"656 143 LINE",
"661 131 OFFCURVE",
"665 118 OFFCURVE",
"672 107 CURVE SMOOTH",
"680 93 OFFCURVE",
"684 78 OFFCURVE",
"690 63 CURVE",
"691 61 OFFCURVE",
"690 57 OFFCURVE",
"690 54 CURVE"
);
},
{
closed = 1;
nodes = (
"434 233 OFFCURVE",
"434 236 OFFCURVE",
"432 238 CURVE",
"425 247 OFFCURVE",
"419 256 OFFCURVE",
"409 265 CURVE SMOOTH",
"401 273 OFFCURVE",
"398 285 OFFCURVE",
"391 294 CURVE SMOOTH",
"383 305 OFFCURVE",
"374 315 OFFCURVE",
"365 327 CURVE SMOOTH",
"361 331 OFFCURVE",
"354 330 OFFCURVE",
"351 327 CURVE",
"344 316 OFFCURVE",
"338 306 OFFCURVE",
"331 297 CURVE",
"322 288 OFFCURVE",
"320 274 OFFCURVE",
"313 263 CURVE",
"306 255 OFFCURVE",
"304 245 OFFCURVE",
"300 235 CURVE SMOOTH",
"298 227 OFFCURVE",
"296 220 OFFCURVE",
"294 213 CURVE",
"293 210 OFFCURVE",
"294 209 OFFCURVE",
"294 207 CURVE",
"299 200 OFFCURVE",
"307 199 OFFCURVE",
"315 197 CURVE",
"327 200 OFFCURVE",
"339 201 OFFCURVE",
"352 201 CURVE",
"367 202 OFFCURVE",
"378 210 OFFCURVE",
"393 210 CURVE",
"402 212 OFFCURVE",
"412 214 OFFCURVE",
"421 216 CURVE SMOOTH",
"429 218 OFFCURVE",
"434 223 OFFCURVE",
"435 232 CURVE"
);
}
);
width = 734;
}
);
unicode = 00C1;
},
{
glyphname = Acircumflex;
lastChange = "2020-11-04 23:12:10 +0000";
layers = (
{
layerId = master01;
paths = (
{
closed = 1;
nodes = (
"514 685 OFFCURVE",
"506 681 OFFCURVE",
"499 675 CURVE SMOOTH",
"492 669 OFFCURVE",
"485 665 OFFCURVE",
"478 659 CURVE SMOOTH",
"470 653 OFFCURVE",
"463 647 OFFCURVE",
"455 641 CURVE",
"453 642 OFFCURVE",
"450 642 OFFCURVE",
"447 644 CURVE SMOOTH",
"432 659 OFFCURVE",
"415 673 OFFCURVE",
"401 689 CURVE",
"399 692 OFFCURVE",
"396 695 OFFCURVE",
"392 698 CURVE",
"382 705 OFFCURVE",
"374 714 OFFCURVE",
"367 726 CURVE SMOOTH",
"366 728 OFFCURVE",
"363 728 OFFCURVE",
"361 729 CURVE",
"344 722 OFFCURVE",
"342 720 OFFCURVE",
"329 710 CURVE SMOOTH",
"324 706 OFFCURVE",
"320 702 OFFCURVE",
"314 698 CURVE",
"301 689 OFFCURVE",
"290 679 OFFCURVE",
"281 664 CURVE",
"281 662 OFFCURVE",
"279 662 OFFCURVE",
"279 661 CURVE",
"277 659 OFFCURVE",
"273 659 OFFCURVE",
"270 660 CURVE",
"268 662 OFFCURVE",
"265 664 OFFCURVE",
"262 666 CURVE",
"251 682 OFFCURVE",
"238 696 OFFCURVE",
"224 710 CURVE",
"218 714 OFFCURVE",
"215 720 OFFCURVE",
"214 728 CURVE",
"222 738 OFFCURVE",
"229 747 OFFCURVE",
"241 753 CURVE",
"245 756 OFFCURVE",
"248 761 OFFCURVE",
"252 766 CURVE",
"259 769 OFFCURVE",
"267 773 OFFCURVE",
"275 776 CURVE",
"281 780 OFFCURVE",
"286 785 OFFCURVE",
"293 789 CURVE",
"312 802 OFFCURVE",
"330 814 OFFCURVE",
"346 829 CURVE SMOOTH",
"353 836 OFFCURVE",
"357 836 OFFCURVE",
"376 836 CURVE",
"388 826 OFFCURVE",
"402 821 OFFCURVE",
"411 807 CURVE",
"421 802 OFFCURVE",
"430 795 OFFCURVE",
"440 788 CURVE SMOOTH",
"461 775 OFFCURVE",
"480 759 OFFCURVE",
"492 737 CURVE SMOOTH",
"497 729 OFFCURVE",
"503 721 OFFCURVE",
"509 714 CURVE",
"514 708 OFFCURVE",
"516 702 OFFCURVE",
"520 695 CURVE"
);
},
{
closed = 1;
nodes = (
"704 22 OFFCURVE",
"700 17 OFFCURVE",
"689 14 CURVE SMOOTH",
"681 12 OFFCURVE",
"673 9 OFFCURVE",
"665 9 CURVE SMOOTH",
"654 9 OFFCURVE",
"645 8 OFFCURVE",
"635 3 CURVE",
"631 0 OFFCURVE",
"627 -5 OFFCURVE",
"622 -10 CURVE",
"615 -13 OFFCURVE",
"607 -16 OFFCURVE",
"599 -18 CURVE",
"585 -15 LINE",
"583 -17 OFFCURVE",
"581 -18 OFFCURVE",
"578 -20 CURVE",
"575 -23 OFFCURVE",
"572 -26 OFFCURVE",
"569 -30 CURVE",
"564 -37 OFFCURVE",
"558 -38 OFFCURVE",
"550 -33 CURVE",
"549 -32 OFFCURVE",
"546 -30 OFFCURVE",
"546 -29 CURVE",
"542 -17 OFFCURVE",
"536 -7 OFFCURVE",
"532 5 CURVE SMOOTH",
"530 15 OFFCURVE",
"527 24 OFFCURVE",
"521 33 CURVE SMOOTH",
"515 44 OFFCURVE",
"509 54 OFFCURVE",
"505 66 CURVE",
"504 70 OFFCURVE",
"498 74 OFFCURVE",
"493 78 CURVE",
"493 83 OFFCURVE",
"493 87 OFFCURVE",
"492 93 CURVE SMOOTH",
"490 105 OFFCURVE",
"483 109 OFFCURVE",
"473 108 CURVE",
"468 108 OFFCURVE",
"463 107 OFFCURVE",
"460 108 CURVE",
"453 109 OFFCURVE",
"447 109 OFFCURVE",
"440 107 CURVE SMOOTH",
"432 103 OFFCURVE",
"424 103 OFFCURVE",
"415 107 CURVE",
"407 112 OFFCURVE",
"399 109 OFFCURVE",
"392 102 CURVE",
"391 101 OFFCURVE",
"391 101 OFFCURVE",
"389 100 CURVE",
"379 102 OFFCURVE",
"368 103 OFFCURVE",
"358 106 CURVE",
"345 106 LINE",
"328 99 LINE",
"317 100 OFFCURVE",
"308 101 OFFCURVE",
"299 100 CURVE SMOOTH",
"290 99 OFFCURVE",
"282 95 OFFCURVE",
"274 93 CURVE",
"269 93 OFFCURVE",
"263 94 OFFCURVE",
"256 94 CURVE",
"253 91 OFFCURVE",
"247 87 OFFCURVE",
"244 84 CURVE",
"243 82 OFFCURVE",
"241 81 OFFCURVE",
"241 79 CURVE",
"240 61 OFFCURVE",
"232 45 OFFCURVE",
"221 30 CURVE",
"217 24 OFFCURVE",
"214 20 OFFCURVE",
"212 14 CURVE",
"210 8 OFFCURVE",
"207 3 OFFCURVE",
"205 -1 CURVE",
"200 -8 OFFCURVE",
"195 -15 OFFCURVE",
"192 -23 CURVE SMOOTH",
"189 -30 OFFCURVE",
"189 -38 OFFCURVE",
"186 -45 CURVE",
"181 -47 OFFCURVE",
"175 -45 OFFCURVE",
"170 -43 CURVE SMOOTH",
"160 -38 OFFCURVE",
"151 -31 OFFCURVE",
"138 -30 CURVE SMOOTH",
"126 -29 OFFCURVE",
"116 -23 OFFCURVE",
"103 -22 CURVE",
"101 -22 OFFCURVE",
"98 -20 OFFCURVE",
"94 -18 CURVE",
"91 -13 OFFCURVE",
"86 -7 OFFCURVE",
"82 0 CURVE",
"70 1 OFFCURVE",
"59 3 OFFCURVE",
"47 5 CURVE",
"43 7 OFFCURVE",
"41 12 OFFCURVE",
"40 15 CURVE",
"44 30 OFFCURVE",
"43 46 OFFCURVE",
"53 55 CURVE",
"54 66 OFFCURVE",
"55 75 OFFCURVE",
"56 84 CURVE",
"60 92 OFFCURVE",
"63 101 OFFCURVE",
"67 109 CURVE SMOOTH",
"69 115 OFFCURVE",
"71 120 OFFCURVE",
"75 124 CURVE SMOOTH",
"82 132 OFFCURVE",
"85 143 OFFCURVE",
"89 153 CURVE SMOOTH",
"90 158 OFFCURVE",
"92 162 OFFCURVE",
"95 167 CURVE",
"101 178 OFFCURVE",
"106 190 OFFCURVE",
"109 202 CURVE",
"110 212 OFFCURVE",
"113 220 OFFCURVE",
"116 228 CURVE SMOOTH",
"130 254 OFFCURVE",
"137 283 OFFCURVE",
"147 312 CURVE SMOOTH",
"155 334 OFFCURVE",
"158 358 OFFCURVE",
"168 378 CURVE",
"168 386 OFFCURVE",
"170 394 OFFCURVE",
"175 402 CURVE",
"178 411 OFFCURVE",
"182 421 OFFCURVE",
"186 429 CURVE SMOOTH",
"190 436 OFFCURVE",
"193 445 OFFCURVE",
"197 452 CURVE SMOOTH",
"200 460 OFFCURVE",
"204 468 OFFCURVE",
"208 475 CURVE SMOOTH",
"217 490 OFFCURVE",
"225 505 OFFCURVE",
"236 519 CURVE SMOOTH",
"243 528 OFFCURVE",
"248 538 OFFCURVE",
"254 549 CURVE",
"256 555 OFFCURVE",
"260 562 OFFCURVE",
"262 569 CURVE",
"265 574 OFFCURVE",
"267 578 OFFCURVE",
"270 583 CURVE",
"276 589 OFFCURVE",
"279 595 OFFCURVE",
"283 601 CURVE",
"285 608 OFFCURVE",
"291 611 OFFCURVE",
"296 615 CURVE",
"315 615 LINE",
"325 613 OFFCURVE",
"331 604 OFFCURVE",
"339 599 CURVE",
"345 598 OFFCURVE",
"351 599 OFFCURVE",
"355 601 CURVE",
"366 605 OFFCURVE",
"376 606 OFFCURVE",
"386 606 CURVE SMOOTH",
"398 606 OFFCURVE",
"408 605 OFFCURVE",
"417 599 CURVE",
"419 598 OFFCURVE",
"420 598 OFFCURVE",
"421 598 CURVE",
"435 590 OFFCURVE",
"450 585 OFFCURVE",
"467 585 CURVE",
"470 582 OFFCURVE",
"473 578 OFFCURVE",
"475 575 CURVE",
"483 559 OFFCURVE",
"491 543 OFFCURVE",
"500 526 CURVE",
"504 523 OFFCURVE",
"508 521 OFFCURVE",
"513 518 CURVE",
"519 512 OFFCURVE",
"522 506 OFFCURVE",
"522 498 CURVE",
"523 488 OFFCURVE",
"527 478 OFFCURVE",
"532 471 CURVE SMOOTH",
"542 460 OFFCURVE",
"547 447 OFFCURVE",
"554 436 CURVE",
"559 425 OFFCURVE",
"568 416 OFFCURVE",
"567 404 CURVE",
"572 393 OFFCURVE",
"575 384 OFFCURVE",
"578 374 CURVE SMOOTH",
"581 368 OFFCURVE",
"582 361 OFFCURVE",
"584 354 CURVE",
"591 347 OFFCURVE",
"596 337 OFFCURVE",
"599 328 CURVE",
"601 319 OFFCURVE",
"604 311 OFFCURVE",
"606 302 CURVE SMOOTH",
"607 297 OFFCURVE",
"608 290 OFFCURVE",
"611 284 CURVE SMOOTH",
"615 273 OFFCURVE",
"620 262 OFFCURVE",
"623 251 CURVE",
"623 240 OFFCURVE",
"628 230 OFFCURVE",
"630 220 CURVE SMOOTH",
"633 207 OFFCURVE",
"636 195 OFFCURVE",
"644 185 CURVE",
"647 182 OFFCURVE",
"649 177 OFFCURVE",
"651 174 CURVE",
"653 169 OFFCURVE",
"656 164 OFFCURVE",
"657 159 CURVE",
"661 146 OFFCURVE",
"670 135 OFFCURVE",
"673 121 CURVE SMOOTH",
"674 108 OFFCURVE",
"683 97 OFFCURVE",
"685 84 CURVE",
"685 82 OFFCURVE",
"687 78 OFFCURVE",
"689 76 CURVE",
"693 68 OFFCURVE",
"696 60 OFFCURVE",
"696 52 CURVE",
"697 45 OFFCURVE",
"699 39 OFFCURVE",
"700 32 CURVE"
);
},
{
closed = 1;
nodes = (
"435 243 OFFCURVE",
"409 248 OFFCURVE",
"411 268 CURVE",
"392 288 OFFCURVE",
"378 311 OFFCURVE",
"368 337 CURVE SMOOTH",
"367 340 OFFCURVE",
"365 345 OFFCURVE",
"361 347 CURVE",
"360 350 OFFCURVE",
"355 350 OFFCURVE",
"353 351 CURVE",
"352 348 OFFCURVE",
"350 346 OFFCURVE",
"348 345 CURVE",
"335 324 OFFCURVE",
"325 300 OFFCURVE",
"309 279 CURVE SMOOTH",
"305 274 OFFCURVE",
"302 266 OFFCURVE",
"300 259 CURVE SMOOTH",
"299 254 OFFCURVE",
"298 248 OFFCURVE",
"298 244 CURVE SMOOTH",
"298 240 OFFCURVE",
"299 237 OFFCURVE",
"301 235 CURVE",
"311 223 OFFCURVE",
"323 218 OFFCURVE",
"335 224 CURVE SMOOTH",
"346 229 OFFCURVE",
"358 227 OFFCURVE",
"369 229 CURVE",
"373 228 OFFCURVE",
"376 233 OFFCURVE",
"381 232 CURVE",
"388 235 OFFCURVE",
"420 231 OFFCURVE",
"427 233 CURVE"
);
}
);
width = 742;
}
);
unicode = 00C2;
},
{
glyphname = Adieresis;
lastChange = "2020-11-04 23:12:10 +0000";
layers = (
{
layerId = master01;
paths = (
{
closed = 1;
nodes = (
"575 723 OFFCURVE",
"573 703 OFFCURVE",
"568 682 CURVE SMOOTH",
"566 673 OFFCURVE",
"561 666 OFFCURVE",
"553 661 CURVE SMOOTH",
"550 659 OFFCURVE",
"545 658 OFFCURVE",
"543 654 CURVE SMOOTH",
"535 643 OFFCURVE",
"522 636 OFFCURVE",
"509 631 CURVE",
"505 630 OFFCURVE",
"501 628 OFFCURVE",
"498 627 CURVE",
"484 627 OFFCURVE",
"475 631 OFFCURVE",
"468 637 CURVE",
"459 643 OFFCURVE",
"451 650 OFFCURVE",
"440 657 CURVE",
"432 669 OFFCURVE",
"429 685 OFFCURVE",
"424 700 CURVE SMOOTH",
"423 704 OFFCURVE",
"423 708 OFFCURVE",
"424 713 CURVE SMOOTH",
"428 723 OFFCURVE",
"434 735 OFFCURVE",
"431 746 CURVE",
"431 751 OFFCURVE",
"434 756 OFFCURVE",
"436 758 CURVE",
"448 774 OFFCURVE",
"462 787 OFFCURVE",
"482 792 CURVE",
"488 792 OFFCURVE",
"494 791 OFFCURVE",
"500 790 CURVE",
"509 782 LINE",
"520 779 OFFCURVE",
"530 776 OFFCURVE",
"541 774 CURVE SMOOTH",
"555 769 OFFCURVE",
"568 761 OFFCURVE",
"574 743 CURVE"
);
},
{
closed = 1;
nodes = (
"345 708 OFFCURVE",
"343 702 OFFCURVE",
"338 696 CURVE SMOOTH",
"329 684 OFFCURVE",
"320 674 OFFCURVE",
"313 665 CURVE",
"302 659 OFFCURVE",
"293 657 OFFCURVE",
"286 650 CURVE",
"277 643 OFFCURVE",
"268 639 OFFCURVE",
"258 637 CURVE",
"248 641 OFFCURVE",
"240 638 OFFCURVE",
"231 636 CURVE",
"227 644 OFFCURVE",
"221 652 OFFCURVE",
"214 659 CURVE SMOOTH",
"208 665 OFFCURVE",
"201 670 OFFCURVE",
"197 675 CURVE",
"189 685 OFFCURVE",
"191 697 OFFCURVE",
"187 707 CURVE",
"189 713 OFFCURVE",
"190 719 OFFCURVE",
"191 726 CURVE",
"191 731 OFFCURVE",
"191 738 OFFCURVE",
"192 744 CURVE",
"198 757 OFFCURVE",
"210 765 OFFCURVE",
"216 775 CURVE",
"230 785 OFFCURVE",
"245 788 OFFCURVE",
"260 792 CURVE",
"267 789 OFFCURVE",
"274 787 OFFCURVE",
"281 784 CURVE SMOOTH",
"288 782 OFFCURVE",
"294 780 OFFCURVE",
"304 777 CURVE",
"313 768 OFFCURVE",
"322 759 OFFCURVE",
"334 750 CURVE",
"335 743 OFFCURVE",
"335 737 OFFCURVE",
"337 731 CURVE SMOOTH",
"338 726 OFFCURVE",
"340 721 OFFCURVE",
"343 716 CURVE SMOOTH"
);
},
{
closed = 1;
nodes = (
"682 24 OFFCURVE",
"683 20 OFFCURVE",
"679 15 CURVE",
"673 12 OFFCURVE",
"665 9 OFFCURVE",
"658 5 CURVE",
"650 1 OFFCURVE",
"641 0 OFFCURVE",
"633 -2 CURVE",
"619 -5 OFFCURVE",
"607 -12 OFFCURVE",
"596 -18 CURVE",
"569 -22 OFFCURVE",
"544 -25 OFFCURVE",
"520 -36 CURVE",
"515 -35 OFFCURVE",
"511 -32 OFFCURVE",
"507 -28 CURVE",
"505 -22 OFFCURVE",
"508 -17 OFFCURVE",
"509 -12 CURVE",
"508 -5 OFFCURVE",
"501 -2 OFFCURVE",
"496 2 CURVE",
"493 10 OFFCURVE",
"491 18 OFFCURVE",
"489 26 CURVE SMOOTH",
"488 31 OFFCURVE",
"490 37 OFFCURVE",
"490 44 CURVE",
"485 63 OFFCURVE",
"484 86 OFFCURVE",
"471 105 CURVE",
"465 109 OFFCURVE",
"459 109 OFFCURVE",
"452 108 CURVE SMOOTH",
"446 107 OFFCURVE",
"439 106 OFFCURVE",
"434 107 CURVE SMOOTH",
"428 108 OFFCURVE",
"423 108 OFFCURVE",
"417 108 CURVE",
"398 109 OFFCURVE",
"378 107 OFFCURVE",
"360 113 CURVE",
"353 113 LINE",
"334 109 OFFCURVE",
"313 110 OFFCURVE",
"293 109 CURVE",
"282 109 OFFCURVE",
"271 108 OFFCURVE",
"261 105 CURVE",
"250 99 OFFCURVE",
"245 89 OFFCURVE",
"241 77 CURVE",
"239 72 OFFCURVE",
"239 67 OFFCURVE",
"238 61 CURVE",
"237 57 OFFCURVE",
"237 53 OFFCURVE",
"236 48 CURVE",
"230 35 OFFCURVE",
"225 21 OFFCURVE",
"225 7 CURVE",
"218 2 OFFCURVE",
"213 -1 OFFCURVE",
"208 -6 CURVE SMOOTH",
"204 -9 OFFCURVE",
"199 -15 OFFCURVE",
"197 -18 CURVE",
"187 -21 OFFCURVE",
"179 -20 OFFCURVE",
"173 -17 CURVE",
"160 -15 OFFCURVE",
"147 -13 OFFCURVE",
"135 -9 CURVE SMOOTH",
"123 -6 OFFCURVE",
"112 -7 OFFCURVE",
"101 -10 CURVE",
"94 -10 OFFCURVE",
"92 -5 OFFCURVE",
"84 -1 CURVE SMOOTH",
"72 3 OFFCURVE",
"55 -2 OFFCURVE",
"38 9 CURVE",
"36 12 OFFCURVE",
"35 16 OFFCURVE",
"36 22 CURVE",
"44 47 OFFCURVE",
"52 74 OFFCURVE",
"68 95 CURVE",
"69 105 OFFCURVE",
"70 115 OFFCURVE",
"71 124 CURVE",
"77 132 OFFCURVE",
"82 140 OFFCURVE",
"83 151 CURVE",
"83 160 OFFCURVE",
"87 168 OFFCURVE",
"94 176 CURVE",
"102 187 OFFCURVE",
"112 198 OFFCURVE",
"118 209 CURVE SMOOTH",
"128 225 OFFCURVE",
"138 240 OFFCURVE",
"140 259 CURVE",
"140 278 LINE",
"145 285 OFFCURVE",
"150 292 OFFCURVE",
"154 300 CURVE SMOOTH",
"164 315 OFFCURVE",
"173 331 OFFCURVE",
"177 350 CURVE SMOOTH",
"178 355 OFFCURVE",
"181 361 OFFCURVE",
"185 367 CURVE",
"187 369 OFFCURVE",
"189 374 OFFCURVE",
"190 378 CURVE SMOOTH",
"193 392 OFFCURVE",
"197 405 OFFCURVE",
"200 419 CURVE SMOOTH",
"204 430 OFFCURVE",
"208 440 OFFCURVE",
"216 451 CURVE",
"218 451 OFFCURVE",
"221 452 OFFCURVE",
"224 453 CURVE",
"225 453 OFFCURVE",
"227 454 OFFCURVE",
"227 455 CURVE",
"227 459 OFFCURVE",
"227 463 OFFCURVE",
"225 468 CURVE",
"227 470 OFFCURVE",
"229 474 OFFCURVE",
"230 476 CURVE SMOOTH",
"236 489 OFFCURVE",
"246 499 OFFCURVE",
"250 513 CURVE SMOOTH",
"253 524 OFFCURVE",
"262 536 OFFCURVE",
"267 547 CURVE SMOOTH",
"270 554 OFFCURVE",
"273 561 OFFCURVE",
"277 567 CURVE",
"284 578 OFFCURVE",
"292 591 OFFCURVE",
"294 603 CURVE",
"300 608 OFFCURVE",
"306 605 OFFCURVE",
"312 605 CURVE",
"316 606 OFFCURVE",
"322 608 OFFCURVE",
"327 608 CURVE",
"344 605 OFFCURVE",
"361 610 OFFCURVE",
"378 606 CURVE SMOOTH",
"385 605 OFFCURVE",
"393 607 OFFCURVE",
"400 607 CURVE",
"409 608 OFFCURVE",
"417 608 OFFCURVE",
"425 605 CURVE SMOOTH",
"434 601 OFFCURVE",
"442 598 OFFCURVE",
"450 595 CURVE SMOOTH",
"454 592 OFFCURVE",
"458 589 OFFCURVE",
"462 585 CURVE SMOOTH",
"473 576 LINE",
"471 576 OFFCURVE",
"471 574 OFFCURVE",
"471 574 CURVE",
"473 572 OFFCURVE",
"474 569 OFFCURVE",
"475 569 CURVE",
"483 570 OFFCURVE",
"492 572 OFFCURVE",
"500 573 CURVE",
"505 564 OFFCURVE",
"507 554 OFFCURVE",
"515 547 CURVE",
"524 530 OFFCURVE",
"535 512 OFFCURVE",
"537 491 CURVE",
"537 484 OFFCURVE",
"542 480 OFFCURVE",
"545 473 CURVE",
"544 471 OFFCURVE",
"543 468 OFFCURVE",
"541 466 CURVE",
"559 438 LINE",
"564 427 OFFCURVE",
"568 415 OFFCURVE",
"570 402 CURVE SMOOTH",
"574 388 OFFCURVE",
"576 373 OFFCURVE",
"582 359 CURVE SMOOTH",
"584 353 OFFCURVE",
"585 346 OFFCURVE",
"587 340 CURVE SMOOTH",
"589 330 OFFCURVE",
"590 320 OFFCURVE",
"592 308 CURVE",
"595 305 OFFCURVE",
"598 300 OFFCURVE",
"601 296 CURVE",
"606 291 OFFCURVE",
"611 284 OFFCURVE",
"614 277 CURVE SMOOTH",
"618 269 OFFCURVE",
"623 261 OFFCURVE",
"629 253 CURVE",
"627 247 OFFCURVE",
"626 240 OFFCURVE",
"623 235 CURVE",
"633 225 OFFCURVE",
"638 215 OFFCURVE",
"641 204 CURVE SMOOTH",
"642 197 OFFCURVE",
"645 190 OFFCURVE",
"646 182 CURVE",
"649 175 OFFCURVE",
"651 168 OFFCURVE",
"652 161 CURVE",
"651 153 OFFCURVE",
"650 146 OFFCURVE",
"649 139 CURVE",
"657 123 OFFCURVE",
"662 107 OFFCURVE",
"666 90 CURVE SMOOTH",
"669 69 OFFCURVE",
"676 48 OFFCURVE",
"682 28 CURVE"
);
},
{
closed = 1;
nodes = (
"445 256 OFFCURVE",
"444 260 OFFCURVE",
"443 262 CURVE",
"437 277 OFFCURVE",
"431 292 OFFCURVE",
"425 307 CURVE SMOOTH",
"421 322 OFFCURVE",
"416 338 OFFCURVE",
"405 350 CURVE SMOOTH",
"399 355 OFFCURVE",
"397 362 OFFCURVE",
"394 369 CURVE",
"394 371 OFFCURVE",
"392 373 OFFCURVE",
"391 374 CURVE",
"389 374 OFFCURVE",
"386 373 OFFCURVE",
"384 371 CURVE",
"374 351 OFFCURVE",
"365 329 OFFCURVE",
"346 316 CURVE",
"340 305 OFFCURVE",
"336 296 OFFCURVE",
"331 288 CURVE",
"327 273 OFFCURVE",
"327 269 OFFCURVE",
"321 258 CURVE",
"317 255 OFFCURVE",
"314 243 OFFCURVE",
"311 240 CURVE",
"313 238 OFFCURVE",
"314 238 OFFCURVE",
"315 238 CURVE",
"317 237 OFFCURVE",
"320 237 OFFCURVE",
"321 236 CURVE",
"344 225 OFFCURVE",
"366 225 OFFCURVE",
"389 235 CURVE SMOOTH",
"401 239 OFFCURVE",
"415 243 OFFCURVE",
"430 241 CURVE",
"432 241 OFFCURVE",
"436 243 OFFCURVE",
"439 244 CURVE",
"443 244 OFFCURVE",
"446 251 OFFCURVE",
"445 253 CURVE"
);
}
);
width = 718;
}
);
unicode = 00C4;
},
{
glyphname = Agrave;
lastChange = "2020-11-04 23:12:10 +0000";
layers = (
{
layerId = master01;
paths = (
{
closed = 1;
nodes = (
"412 684 OFFCURVE",
"409 676 OFFCURVE",
"402 668 CURVE SMOOTH",
"398 664 OFFCURVE",
"393 660 OFFCURVE",
"390 658 CURVE SMOOTH",
"382 653 OFFCURVE",
"375 653 OFFCURVE",
"369 656 CURVE",
"360 657 OFFCURVE",
"351 660 OFFCURVE",
"340 662 CURVE",
"329 676 OFFCURVE",
"315 688 OFFCURVE",
"300 698 CURVE SMOOTH",
"296 702 OFFCURVE",
"292 705 OFFCURVE",
"289 710 CURVE SMOOTH",
"286 713 OFFCURVE",
"284 716 OFFCURVE",
"282 721 CURVE",
"266 729 OFFCURVE",
"250 738 OFFCURVE",
"236 746 CURVE",
"231 754 OFFCURVE",
"240 757 OFFCURVE",
"239 761 CURVE",
"239 773 OFFCURVE",
"230 783 OFFCURVE",
"233 796 CURVE",
"241 803 OFFCURVE",
"250 810 OFFCURVE",
"260 816 CURVE",
"271 820 OFFCURVE",
"285 823 OFFCURVE",
"293 831 CURVE",
"304 830 OFFCURVE",
"307 823 OFFCURVE",
"313 821 CURVE SMOOTH",
"317 819 OFFCURVE",
"322 816 OFFCURVE",
"328 813 CURVE",
"347 783 OFFCURVE",
"370 756 OFFCURVE",
"393 729 CURVE",
"394 725 OFFCURVE",
"396 721 OFFCURVE",
"396 719 CURVE",
"397 710 OFFCURVE",
"400 703 OFFCURVE",
"405 695 CURVE SMOOTH"
);
},
{
closed = 1;
nodes = (
"679 52 OFFCURVE",
"672 44 OFFCURVE",
"665 36 CURVE",
"661 35 OFFCURVE",
"659 32 OFFCURVE",
"656 31 CURVE",
"645 25 OFFCURVE",
"635 21 OFFCURVE",
"627 12 CURVE",
"619 5 OFFCURVE",
"610 -1 OFFCURVE",
"598 -1 CURVE",
"591 -2 OFFCURVE",
"587 -6 OFFCURVE",
"580 -8 CURVE SMOOTH",
"569 -13 OFFCURVE",
"560 -20 OFFCURVE",
"547 -22 CURVE",
"538 -17 OFFCURVE",
"531 -10 OFFCURVE",
"528 -1 CURVE",
"527 6 OFFCURVE",
"520 9 OFFCURVE",
"519 15 CURVE",
"519 20 OFFCURVE",
"520 23 OFFCURVE",
"520 29 CURVE",
"515 43 OFFCURVE",
"507 54 OFFCURVE",
"499 67 CURVE SMOOTH",
"496 72 OFFCURVE",
"492 78 OFFCURVE",
"489 84 CURVE SMOOTH",
"486 87 OFFCURVE",
"484 93 OFFCURVE",
"482 98 CURVE",
"470 95 OFFCURVE",
"459 97 OFFCURVE",
"447 91 CURVE",
"446 90 OFFCURVE",
"446 90 OFFCURVE",
"445 90 CURVE",
"420 84 OFFCURVE",
"394 81 OFFCURVE",
"369 77 CURVE",
"361 81 OFFCURVE",
"354 83 OFFCURVE",
"347 86 CURVE",
"338 84 OFFCURVE",
"329 82 OFFCURVE",
"320 83 CURVE",
"312 83 OFFCURVE",
"304 83 OFFCURVE",
"297 81 CURVE",
"284 75 OFFCURVE",
"270 75 OFFCURVE",
"258 75 CURVE",
"252 70 OFFCURVE",
"248 68 OFFCURVE",
"244 64 CURVE",
"240 66 OFFCURVE",
"238 67 OFFCURVE",
"235 68 CURVE",
"229 67 OFFCURVE",
"227 60 OFFCURVE",
"222 54 CURVE",
"220 43 OFFCURVE",
"217 30 OFFCURVE",
"214 14 CURVE",
"212 9 OFFCURVE",
"207 0 OFFCURVE",
"202 -8 CURVE SMOOTH",
"198 -15 OFFCURVE",
"197 -24 OFFCURVE",
"189 -30 CURVE",
"178 -28 OFFCURVE",
"168 -25 OFFCURVE",
"160 -24 CURVE",
"152 -25 OFFCURVE",
"148 -29 OFFCURVE",
"144 -33 CURVE SMOOTH",
"141 -36 OFFCURVE",
"138 -38 OFFCURVE",
"135 -40 CURVE",
"130 -39 OFFCURVE",
"126 -39 OFFCURVE",
"124 -38 CURVE",
"101 -30 OFFCURVE",
"77 -23 OFFCURVE",
"53 -21 CURVE SMOOTH",
"44 -20 OFFCURVE",
"38 -12 OFFCURVE",
"39 -2 CURVE",
"40 2 OFFCURVE",
"41 7 OFFCURVE",
"41 10 CURVE",
"37 21 OFFCURVE",
"44 29 OFFCURVE",
"45 38 CURVE SMOOTH",
"46 46 OFFCURVE",
"48 53 OFFCURVE",
"52 60 CURVE SMOOTH",
"54 64 OFFCURVE",
"57 69 OFFCURVE",
"57 75 CURVE",
"59 84 OFFCURVE",
"63 93 OFFCURVE",
"69 100 CURVE",
"79 115 OFFCURVE",
"86 130 OFFCURVE",
"90 147 CURVE SMOOTH",
"91 152 OFFCURVE",
"93 156 OFFCURVE",
"97 161 CURVE",
"103 174 OFFCURVE",
"109 186 OFFCURVE",
"113 201 CURVE",
"113 204 OFFCURVE",
"112 208 OFFCURVE",
"110 213 CURVE",
"109 221 OFFCURVE",
"109 230 OFFCURVE",
"114 238 CURVE SMOOTH",
"118 247 OFFCURVE",
"121 258 OFFCURVE",
"122 268 CURVE",
"124 278 OFFCURVE",
"128 289 OFFCURVE",
"132 299 CURVE SMOOTH",
"139 317 OFFCURVE",
"147 336 OFFCURVE",
"154 355 CURVE SMOOTH",
"156 361 OFFCURVE",
"160 367 OFFCURVE",
"164 371 CURVE",
"174 383 OFFCURVE",
"181 397 OFFCURVE",
"185 411 CURVE SMOOTH",
"191 424 OFFCURVE",
"195 439 OFFCURVE",
"199 453 CURVE SMOOTH",
"201 461 OFFCURVE",
"204 468 OFFCURVE",
"209 474 CURVE",
"215 481 OFFCURVE",
"218 488 OFFCURVE",
"221 496 CURVE SMOOTH",
"224 509 OFFCURVE",
"229 522 OFFCURVE",
"233 536 CURVE SMOOTH",
"238 547 OFFCURVE",
"245 559 OFFCURVE",
"251 570 CURVE SMOOTH",
"252 573 OFFCURVE",
"253 576 OFFCURVE",
"254 578 CURVE",
"260 580 OFFCURVE",
"265 580 OFFCURVE",
"269 580 CURVE",
"277 585 OFFCURVE",
"277 597 OFFCURVE",
"283 597 CURVE SMOOTH",
"291 597 OFFCURVE",
"293 598 OFFCURVE",
"296 597 CURVE",
"309 596 OFFCURVE",
"323 593 OFFCURVE",
"337 596 CURVE",
"350 596 LINE",
"358 595 OFFCURVE",
"367 592 OFFCURVE",
"375 592 CURVE SMOOTH",
"383 592 OFFCURVE",
"390 593 OFFCURVE",
"398 593 CURVE",
"404 590 OFFCURVE",
"408 587 OFFCURVE",
"414 584 CURVE",
"419 581 OFFCURVE",
"423 578 OFFCURVE",
"429 576 CURVE",
"434 576 OFFCURVE",
"439 577 OFFCURVE",
"444 578 CURVE",
"452 577 OFFCURVE",
"455 573 OFFCURVE",
"459 567 CURVE",
"460 564 OFFCURVE",
"461 559 OFFCURVE",
"462 554 CURVE",
"465 550 OFFCURVE",
"466 544 OFFCURVE",
"469 541 CURVE",
"478 529 OFFCURVE",
"482 516 OFFCURVE",
"488 504 CURVE",
"496 478 OFFCURVE",
"508 454 OFFCURVE",
"522 431 CURVE",
"529 425 OFFCURVE",
"532 417 OFFCURVE",
"537 411 CURVE SMOOTH",
"541 405 OFFCURVE",
"546 399 OFFCURVE",
"550 393 CURVE",
"551 386 OFFCURVE",
"551 379 OFFCURVE",
"551 374 CURVE",
"555 370 OFFCURVE",
"560 368 OFFCURVE",
"565 365 CURVE SMOOTH",
"568 362 OFFCURVE",
"572 359 OFFCURVE",
"573 355 CURVE",
"578 346 OFFCURVE",
"583 337 OFFCURVE",
"588 327 CURVE SMOOTH",
"592 314 OFFCURVE",
"596 300 OFFCURVE",
"599 286 CURVE SMOOTH",
"600 282 OFFCURVE",
"599 276 OFFCURVE",
"599 271 CURVE",
"612 250 OFFCURVE",
"626 229 OFFCURVE",
"633 205 CURVE",
"633 204 OFFCURVE",
"634 201 OFFCURVE",
"635 199 CURVE",
"646 182 OFFCURVE",
"652 161 OFFCURVE",
"662 141 CURVE SMOOTH",
"670 126 OFFCURVE",
"676 110 OFFCURVE",
"677 93 CURVE",
"679 89 OFFCURVE",
"682 86 OFFCURVE",
"684 82 CURVE",
"685 59 LINE"
);
},
{
closed = 1;
nodes = (
"411 247 LINE",
"400 266 OFFCURVE",
"389 285 OFFCURVE",
"375 302 CURVE",
"370 307 OFFCURVE",
"368 313 OFFCURVE",
"366 319 CURVE SMOOTH",
"362 325 OFFCURVE",
"361 334 OFFCURVE",
"358 340 CURVE SMOOTH",
"355 345 OFFCURVE",
"352 348 OFFCURVE",
"348 353 CURVE",
"343 359 OFFCURVE",
"336 358 OFFCURVE",
"332 352 CURVE SMOOTH",
"328 343 OFFCURVE",
"324 335 OFFCURVE",
"320 327 CURVE SMOOTH",
"304 296 OFFCURVE",
"290 265 OFFCURVE",
"281 232 CURVE",
"283 228 OFFCURVE",
"288 227 OFFCURVE",
"292 228 CURVE",
"299 228 OFFCURVE",
"307 228 OFFCURVE",
"314 230 CURVE SMOOTH",
"323 233 OFFCURVE",
"331 229 OFFCURVE",
"339 230 CURVE SMOOTH",
"350 232 OFFCURVE",
"360 231 OFFCURVE",
"370 237 CURVE",
"371 238 OFFCURVE",
"374 238 OFFCURVE",
"376 239 CURVE",
"383 240 OFFCURVE",
"390 240 OFFCURVE",
"397 236 CURVE SMOOTH",
"404 231 OFFCURVE",
"408 235 OFFCURVE",
"411 243 CURVE"
);
}
);
width = 725;
}
);
unicode = 00C0;
},
{
glyphname = Aring;
lastChange = "2020-11-04 23:12:10 +0000";
layers = (
{
layerId = master01;
paths = (
{
closed = 1;
nodes = (
"468 726 OFFCURVE",
"468 711 OFFCURVE",
"467 699 CURVE",
"453 672 OFFCURVE",
"431 660 OFFCURVE",
"412 650 CURVE",
"407 649 OFFCURVE",
"405 649 OFFCURVE",
"401 647 CURVE",
"360 644 OFFCURVE",
"321 647 OFFCURVE",
"296 677 CURVE",
"271 700 OFFCURVE",
"275 726 OFFCURVE",
"270 747 CURVE",
"274 764 OFFCURVE",
"276 780 OFFCURVE",
"285 791 CURVE SMOOTH",
"296 803 OFFCURVE",
"304 815 OFFCURVE",
"312 828 CURVE",
"334 842 OFFCURVE",
"357 854 OFFCURVE",
"381 860 CURVE",
"393 857 OFFCURVE",
"406 854 OFFCURVE",
"417 850 CURVE SMOOTH",
"431 844 OFFCURVE",
"445 835 OFFCURVE",
"460 828 CURVE",
"474 799 OFFCURVE",
"481 772 OFFCURVE",
"471 738 CURVE SMOOTH"
);
},
{
closed = 1;
nodes = (
"417 777 OFFCURVE",
"413 788 OFFCURVE",
"404 796 CURVE",
"397 799 OFFCURVE",
"388 802 OFFCURVE",
"379 805 CURVE",
"359 799 OFFCURVE",
"343 790 OFFCURVE",
"337 768 CURVE SMOOTH",
"331 750 OFFCURVE",
"334 734 OFFCURVE",
"352 719 CURVE",
"369 716 OFFCURVE",
"385 705 OFFCURVE",
"405 716 CURVE",
"414 731 OFFCURVE",
"422 746 OFFCURVE",
"420 769 CURVE"
);
},
{
closed = 1;
nodes = (
"695 22 OFFCURVE",
"684 8 OFFCURVE",
"667 2 CURVE",
"652 -5 OFFCURVE",
"636 -13 OFFCURVE",
"623 -24 CURVE SMOOTH",
"600 -46 OFFCURVE",
"578 -47 OFFCURVE",
"554 -29 CURVE",
"546 -16 OFFCURVE",
"553 -1 OFFCURVE",
"547 14 CURVE",
"526 35 OFFCURVE",
"499 53 OFFCURVE",
"483 85 CURVE",
"465 66 OFFCURVE",
"443 70 OFFCURVE",
"422 66 CURVE",
"398 57 OFFCURVE",
"374 52 OFFCURVE",
"355 44 CURVE",
"340 40 OFFCURVE",
"331 46 OFFCURVE",
"323 49 CURVE",
"301 47 OFFCURVE",
"281 45 OFFCURVE",
"260 43 CURVE",
"254 43 OFFCURVE",
"248 43 OFFCURVE",
"243 40 CURVE SMOOTH",
"237 38 OFFCURVE",
"231 33 OFFCURVE",
"224 29 CURVE",
"216 13 OFFCURVE",
"213 -7 OFFCURVE",
"206 -23 CURVE SMOOTH",
"199 -37 OFFCURVE",
"191 -52 OFFCURVE",
"187 -68 CURVE",
"182 -68 OFFCURVE",
"176 -70 OFFCURVE",
"174 -68 CURVE",
"151 -51 OFFCURVE",
"125 -47 OFFCURVE",
"99 -43 CURVE SMOOTH",
"79 -39 OFFCURVE",
"64 -25 OFFCURVE",
"49 -21 CURVE",
"41 -3 OFFCURVE",
"44 9 OFFCURVE",
"45 23 CURVE",
"66 55 OFFCURVE",
"67 100 OFFCURVE",
"98 129 CURVE",
"105 173 OFFCURVE",
"120 214 OFFCURVE",
"138 254 CURVE SMOOTH",
"152 284 OFFCURVE",
"167 312 OFFCURVE",
"181 340 CURVE SMOOTH",
"187 357 OFFCURVE",
"193 371 OFFCURVE",
"206 376 CURVE",
"212 391 OFFCURVE",
"208 402 OFFCURVE",
"207 412 CURVE",
"214 425 OFFCURVE",
"220 437 OFFCURVE",
"227 450 CURVE",
"248 466 LINE",
"253 499 OFFCURVE",
"284 520 OFFCURVE",
"284 558 CURVE",
"302 566 OFFCURVE",
"321 567 OFFCURVE",
"338 567 CURVE",
"370 566 OFFCURVE",
"399 572 OFFCURVE",
"427 593 CURVE",
"439 576 OFFCURVE",
"458 566 OFFCURVE",
"462 542 CURVE",
"465 536 LINE",
"475 528 OFFCURVE",
"470 519 OFFCURVE",
"475 507 CURVE",
"488 490 OFFCURVE",
"501 471 OFFCURVE",
"514 453 CURVE",
"514 432 LINE",
"536 411 OFFCURVE",
"550 378 OFFCURVE",
"574 355 CURVE",
"577 353 OFFCURVE",
"580 348 OFFCURVE",
"581 345 CURVE SMOOTH",
"592 317 OFFCURVE",
"607 293 OFFCURVE",
"623 269 CURVE SMOOTH",
"641 244 OFFCURVE",
"646 213 OFFCURVE",
"653 183 CURVE SMOOTH",
"661 153 OFFCURVE",
"667 123 OFFCURVE",
"685 98 CURVE SMOOTH",
"689 93 OFFCURVE",
"693 86 OFFCURVE",
"692 82 CURVE SMOOTH",
"689 63 OFFCURVE",
"703 53 OFFCURVE",
"705 36 CURVE"
);
},
{
closed = 1;
nodes = (
"442 243 OFFCURVE",
"417 261 OFFCURVE",
"419 286 CURVE",
"411 294 OFFCURVE",
"405 300 OFFCURVE",
"399 305 CURVE",
"394 319 OFFCURVE",
"398 336 OFFCURVE",
"378 338 CURVE",
"367 327 OFFCURVE",
"359 309 OFFCURVE",
"345 299 CURVE SMOOTH",
"339 294 OFFCURVE",
"336 286 OFFCURVE",
"334 279 CURVE SMOOTH",
"325 250 OFFCURVE",
"315 221 OFFCURVE",
"311 192 CURVE",
"319 182 OFFCURVE",
"327 183 OFFCURVE",
"335 185 CURVE",
"360 195 OFFCURVE",
"384 205 OFFCURVE",
"412 200 CURVE SMOOTH",
"423 199 OFFCURVE",
"434 205 OFFCURVE",
"442 215 CURVE"
);
}
);
width = 749;
}
);
unicode = 00C5;
},
{
glyphname = Atilde;
lastChange = "2020-11-04 23:12:10 +0000";
layers = (
{
layerId = master01;
paths = (
{
closed = 1;
nodes = (
"582 746 OFFCURVE",
"582 739 OFFCURVE",
"577 733 CURVE SMOOTH",
"569 721 OFFCURVE",
"562 707 OFFCURVE",
"549 695 CURVE",
"544 693 OFFCURVE",
"537 690 OFFCURVE",
"530 688 CURVE",
"527 684 OFFCURVE",
"522 681 OFFCURVE",
"518 676 CURVE",
"512 675 OFFCURVE",
"506 674 OFFCURVE",
"499 672 CURVE SMOOTH",
"493 670 OFFCURVE",
"488 668 OFFCURVE",
"481 666 CURVE",
"475 667 OFFCURVE",
"468 669 OFFCURVE",
"462 669 CURVE SMOOTH",
"455 669 OFFCURVE",
"450 668 OFFCURVE",
"443 668 CURVE",
"430 676 OFFCURVE",
"417 684 OFFCURVE",
"402 688 CURVE",
"397 688 OFFCURVE",
"393 691 OFFCURVE",
"388 695 CURVE SMOOTH",
"378 699 OFFCURVE",
"369 704 OFFCURVE",
"360 708 CURVE SMOOTH",
"350 713 OFFCURVE",
"342 712 OFFCURVE",
"332 706 CURVE",
"330 704 OFFCURVE",
"327 703 OFFCURVE",
"324 700 CURVE",
"314 700 LINE",
"312 699 OFFCURVE",
"308 698 OFFCURVE",
"306 696 CURVE",
"293 685 OFFCURVE",
"278 681 OFFCURVE",
"262 681 CURVE",
"261 680 OFFCURVE",
"260 681 OFFCURVE",
"258 681 CURVE",
"253 688 OFFCURVE",
"248 695 OFFCURVE",
"244 700 CURVE",
"241 702 OFFCURVE",
"239 703 OFFCURVE",
"237 703 CURVE",
"233 711 OFFCURVE",
"229 718 OFFCURVE",
"224 726 CURVE",
"224 734 OFFCURVE",
"223 742 OFFCURVE",
"230 751 CURVE",
"255 764 OFFCURVE",
"277 784 OFFCURVE",
"305 797 CURVE",
"308 797 OFFCURVE",
"313 795 OFFCURVE",
"316 795 CURVE SMOOTH",
"327 795 OFFCURVE",
"335 800 OFFCURVE",
"344 804 CURVE",
"366 802 OFFCURVE",
"388 792 OFFCURVE",
"409 793 CURVE",
"427 782 OFFCURVE",
"444 770 OFFCURVE",
"465 764 CURVE",
"474 765 OFFCURVE",
"482 766 OFFCURVE",
"489 768 CURVE SMOOTH",
"503 773 OFFCURVE",
"518 777 OFFCURVE",
"528 788 CURVE",
"529 790 OFFCURVE",
"531 790 OFFCURVE",
"534 791 CURVE",
"537 793 OFFCURVE",
"545 793 OFFCURVE",
"549 791 CURVE",
"553 787 OFFCURVE",
"559 782 OFFCURVE",
"562 777 CURVE SMOOTH",
"568 770 OFFCURVE",
"574 762 OFFCURVE",
"578 754 CURVE SMOOTH"
);
},
{
closed = 1;
nodes = (
"703 59 OFFCURVE",
"699 54 OFFCURVE",
"696 51 CURVE SMOOTH",
"690 45 OFFCURVE",
"684 40 OFFCURVE",
"677 37 CURVE SMOOTH",
"665 31 OFFCURVE",
"654 23 OFFCURVE",
"644 13 CURVE SMOOTH",
"635 3 OFFCURVE",
"623 -2 OFFCURVE",
"610 -2 CURVE SMOOTH",
"605 -2 OFFCURVE",
"599 -5 OFFCURVE",
"596 -5 CURVE",
"591 -3 OFFCURVE",
"589 -1 OFFCURVE",
"584 0 CURVE",
"578 -2 OFFCURVE",
"572 -5 OFFCURVE",
"564 -8 CURVE",
"558 -6 OFFCURVE",
"552 -2 OFFCURVE",
"547 0 CURVE",
"545 2 OFFCURVE",
"544 3 OFFCURVE",
"543 6 CURVE SMOOTH",
"530 22 OFFCURVE",
"524 40 OFFCURVE",
"520 61 CURVE SMOOTH",
"519 63 OFFCURVE",
"520 66 OFFCURVE",
"519 67 CURVE",
"509 79 OFFCURVE",
"512 97 OFFCURVE",
"501 110 CURVE",
"499 113 OFFCURVE",
"494 115 OFFCURVE",
"491 116 CURVE SMOOTH",
"482 120 OFFCURVE",
"475 117 OFFCURVE",
"467 116 CURVE",
"460 116 OFFCURVE",
"452 117 OFFCURVE",
"443 118 CURVE",
"442 118 OFFCURVE",
"439 121 OFFCURVE",
"437 122 CURVE",
"429 124 OFFCURVE",
"411 125 OFFCURVE",
"405 124 CURVE SMOOTH",
"377 117 OFFCURVE",
"350 121 OFFCURVE",
"320 123 CURVE",
"309 117 OFFCURVE",
"297 109 OFFCURVE",
"281 110 CURVE",
"274 110 OFFCURVE",
"269 106 OFFCURVE",
"263 101 CURVE",
"258 95 OFFCURVE",
"252 90 OFFCURVE",
"244 86 CURVE",
"235 52 OFFCURVE",
"213 24 OFFCURVE",
"198 -5 CURVE",
"195 -6 OFFCURVE",
"193 -8 OFFCURVE",
"191 -8 CURVE",
"182 -9 OFFCURVE",
"173 -10 OFFCURVE",
"162 -13 CURVE",
"158 -8 OFFCURVE",
"153 -3 OFFCURVE",
"147 1 CURVE",
"132 8 OFFCURVE",
"114 10 OFFCURVE",
"101 22 CURVE",
"90 23 OFFCURVE",
"82 24 OFFCURVE",
"74 25 CURVE",
"64 30 OFFCURVE",
"56 36 OFFCURVE",
"49 39 CURVE",
"45 46 OFFCURVE",
"41 52 OFFCURVE",
"43 61 CURVE",
"47 74 OFFCURVE",
"53 89 OFFCURVE",
"60 103 CURVE SMOOTH",
"71 130 OFFCURVE",
"84 158 OFFCURVE",
"99 184 CURVE SMOOTH",
"102 190 OFFCURVE",
"105 197 OFFCURVE",
"106 205 CURVE SMOOTH",
"108 216 OFFCURVE",
"114 227 OFFCURVE",
"122 236 CURVE SMOOTH",
"126 241 OFFCURVE",
"131 247 OFFCURVE",
"136 253 CURVE",
"141 271 OFFCURVE",
"153 288 OFFCURVE",
"159 306 CURVE SMOOTH",
"160 309 OFFCURVE",
"162 312 OFFCURVE",
"163 315 CURVE",
"177 337 OFFCURVE",
"192 360 OFFCURVE",
"205 384 CURVE SMOOTH",
"217 408 OFFCURVE",
"231 432 OFFCURVE",
"239 459 CURVE SMOOTH",
"245 478 OFFCURVE",
"253 497 OFFCURVE",
"265 514 CURVE SMOOTH",
"269 521 OFFCURVE",
"271 528 OFFCURVE",
"275 534 CURVE SMOOTH",
"286 550 OFFCURVE",
"294 567 OFFCURVE",
"309 581 CURVE SMOOTH",
"315 585 OFFCURVE",
"316 593 OFFCURVE",
"324 597 CURVE",
"331 598 OFFCURVE",
"339 598 OFFCURVE",
"346 599 CURVE",
"354 599 OFFCURVE",
"361 599 OFFCURVE",
"368 600 CURVE",
"377 597 OFFCURVE",
"384 593 OFFCURVE",
"393 597 CURVE SMOOTH",
"399 599 OFFCURVE",
"406 596 OFFCURVE",
"412 599 CURVE",
"420 596 OFFCURVE",
"428 591 OFFCURVE",
"436 589 CURVE SMOOTH",
"444 587 OFFCURVE",
"453 587 OFFCURVE",
"460 585 CURVE",
"468 582 OFFCURVE",
"474 577 OFFCURVE",
"477 570 CURVE SMOOTH",
"482 562 OFFCURVE",
"485 553 OFFCURVE",
"492 546 CURVE",
"496 541 OFFCURVE",
"499 535 OFFCURVE",
"500 529 CURVE",
"504 518 OFFCURVE",
"512 508 OFFCURVE",
"515 497 CURVE",
"515 496 OFFCURVE",
"515 494 OFFCURVE",
"516 493 CURVE",
"528 482 OFFCURVE",
"532 467 OFFCURVE",
"539 452 CURVE SMOOTH",
"545 438 OFFCURVE",
"551 424 OFFCURVE",
"555 411 CURVE SMOOTH",
"558 405 OFFCURVE",
"560 400 OFFCURVE",
"562 396 CURVE SMOOTH",
"567 385 OFFCURVE",
"572 374 OFFCURVE",
"574 362 CURVE SMOOTH",
"575 354 OFFCURVE",
"578 346 OFFCURVE",
"584 339 CURVE",
"588 334 OFFCURVE",
"591 328 OFFCURVE",
"595 323 CURVE SMOOTH",
"605 309 OFFCURVE",
"614 296 OFFCURVE",
"620 278 CURVE",
"629 266 OFFCURVE",
"635 251 OFFCURVE",
"643 236 CURVE SMOOTH",
"652 220 OFFCURVE",
"659 201 OFFCURVE",
"665 183 CURVE SMOOTH",
"667 175 OFFCURVE",
"670 167 OFFCURVE",
"673 159 CURVE",
"675 154 OFFCURVE",
"676 148 OFFCURVE",
"676 144 CURVE SMOOTH",
"676 132 OFFCURVE",
"679 122 OFFCURVE",
"683 113 CURVE SMOOTH",
"691 98 OFFCURVE",
"697 82 OFFCURVE",
"702 66 CURVE SMOOTH"
);
},
{
closed = 1;
nodes = (
"435 246 OFFCURVE",
"432 252 OFFCURVE",
"428 256 CURVE",
"422 263 OFFCURVE",
"419 270 OFFCURVE",
"416 279 CURVE",
"414 294 OFFCURVE",
"415 311 OFFCURVE",
"408 325 CURVE",
"407 343 OFFCURVE",
"400 357 OFFCURVE",
"392 374 CURVE",
"388 373 OFFCURVE",
"384 374 OFFCURVE",
"382 371 CURVE",
"375 368 OFFCURVE",
"370 362 OFFCURVE",
"368 354 CURVE",
"366 348 OFFCURVE",
"365 343 OFFCURVE",
"360 337 CURVE SMOOTH",
"354 329 OFFCURVE",
"350 319 OFFCURVE",
"347 308 CURVE",
"346 305 OFFCURVE",
"345 300 OFFCURVE",
"343 297 CURVE SMOOTH",
"337 288 OFFCURVE",
"332 278 OFFCURVE",
"327 269 CURVE SMOOTH",
"320 259 OFFCURVE",
"315 246 OFFCURVE",
"312 235 CURVE",
"313 228 OFFCURVE",
"319 225 OFFCURVE",
"323 224 CURVE SMOOTH",
"331 222 OFFCURVE",
"340 221 OFFCURVE",
"348 220 CURVE",
"381 220 LINE",
"389 222 OFFCURVE",
"397 224 OFFCURVE",
"405 225 CURVE SMOOTH",
"414 228 OFFCURVE",
"423 228 OFFCURVE",
"432 229 CURVE",
"437 231 OFFCURVE",
"438 235 OFFCURVE",
"437 240 CURVE SMOOTH"
);
}
);
width = 744;
}
);
unicode = 00C3;
},
{
glyphname = AE;
lastChange = "2020-11-04 23:12:10 +0000";
layers = (
{
layerId = master01;
paths = (
{
closed = 1;
nodes = (
"766 607 OFFCURVE",
"767 587 OFFCURVE",
"762 567 CURVE SMOOTH",
"761 561 OFFCURVE",
"761 554 OFFCURVE",
"761 547 CURVE SMOOTH",
"761 541 OFFCURVE",
"760 532 OFFCURVE",
"760 527 CURVE",
"757 520 OFFCURVE",
"751 518 OFFCURVE",
"746 520 CURVE",
"737 523 OFFCURVE",
"730 526 OFFCURVE",
"721 523 CURVE",
"719 522 OFFCURVE",
"716 522 OFFCURVE",
"714 522 CURVE",
"699 528 OFFCURVE",
"685 524 OFFCURVE",
"670 521 CURVE SMOOTH",
"664 520 OFFCURVE",
"656 521 OFFCURVE",
"649 521 CURVE SMOOTH",
"630 521 OFFCURVE",
"612 521 OFFCURVE",
"593 516 CURVE SMOOTH",
"590 515 OFFCURVE",
"585 516 OFFCURVE",
"581 518 CURVE",
"574 518 OFFCURVE",
"574 518 OFFCURVE",
"564 511 CURVE",
"559 499 OFFCURVE",
"561 485 OFFCURVE",
"559 474 CURVE",
"555 462 OFFCURVE",
"547 453 OFFCURVE",
"549 442 CURVE",
"552 434 OFFCURVE",
"559 432 OFFCURVE",
"564 428 CURVE SMOOTH",
"567 424 OFFCURVE",
"572 421 OFFCURVE",
"574 419 CURVE",
"581 415 OFFCURVE",
"587 415 OFFCURVE",
"591 416 CURVE SMOOTH",
"597 417 OFFCURVE",
"601 419 OFFCURVE",
"607 420 CURVE SMOOTH",
"619 422 OFFCURVE",
"630 422 OFFCURVE",
"642 417 CURVE",
"646 416 OFFCURVE",
"650 415 OFFCURVE",
"656 414 CURVE",
"662 415 OFFCURVE",
"672 417 OFFCURVE",
"680 419 CURVE",
"688 419 OFFCURVE",
"697 416 OFFCURVE",
"705 415 CURVE",
"712 419 OFFCURVE",
"719 421 OFFCURVE",
"726 423 CURVE",
"730 422 OFFCURVE",
"735 422 OFFCURVE",
"738 421 CURVE SMOOTH",
"745 419 OFFCURVE",
"750 414 OFFCURVE",
"751 407 CURVE",
"753 399 OFFCURVE",
"753 391 OFFCURVE",
"753 382 CURVE SMOOTH",
"753 375 OFFCURVE",
"752 367 OFFCURVE",
"751 360 CURVE",
"750 358 OFFCURVE",
"750 355 OFFCURVE",
"749 354 CURVE",
"739 345 OFFCURVE",
"736 334 OFFCURVE",
"736 322 CURVE",
"735 311 OFFCURVE",
"736 300 OFFCURVE",
"731 290 CURVE SMOOTH",
"729 284 OFFCURVE",
"736 277 OFFCURVE",
"731 271 CURVE",
"723 268 OFFCURVE",
"716 276 OFFCURVE",
"710 275 CURVE",
"702 273 OFFCURVE",
"695 271 OFFCURVE",
"688 269 CURVE",
"676 273 OFFCURVE",
"665 275 OFFCURVE",
"653 275 CURVE SMOOTH",
"646 275 OFFCURVE",
"641 278 OFFCURVE",
"634 279 CURVE SMOOTH",
"616 283 OFFCURVE",
"598 283 OFFCURVE",
"580 282 CURVE",
"574 281 OFFCURVE",
"569 277 OFFCURVE",
"566 274 CURVE SMOOTH",
"564 271 OFFCURVE",
"562 268 OFFCURVE",
"561 265 CURVE SMOOTH",
"559 255 OFFCURVE",
"558 246 OFFCURVE",
"555 236 CURVE",
"557 228 OFFCURVE",
"559 217 OFFCURVE",
"560 208 CURVE SMOOTH",
"561 199 OFFCURVE",
"561 190 OFFCURVE",
"561 179 CURVE",
"567 174 OFFCURVE",
"573 169 OFFCURVE",
"577 163 CURVE SMOOTH",
"582 159 OFFCURVE",
"584 153 OFFCURVE",
"588 148 CURVE",
"607 144 OFFCURVE",
"612 144 OFFCURVE",
"644 150 CURVE",
"649 148 OFFCURVE",
"654 146 OFFCURVE",
"661 145 CURVE",
"665 145 OFFCURVE",
"669 146 OFFCURVE",
"675 147 CURVE",
"677 146 OFFCURVE",
"681 145 OFFCURVE",
"685 143 CURVE",
"690 145 OFFCURVE",
"696 146 OFFCURVE",
"702 148 CURVE",
"714 143 OFFCURVE",
"730 143 OFFCURVE",
"741 129 CURVE",
"742 101 OFFCURVE",
"739 74 OFFCURVE",
"741 46 CURVE",
"741 32 OFFCURVE",
"735 23 OFFCURVE",
"722 18 CURVE SMOOTH",
"715 16 OFFCURVE",
"708 20 OFFCURVE",
"700 21 CURVE",
"696 20 OFFCURVE",
"690 18 OFFCURVE",
"685 17 CURVE SMOOTH",
"673 14 OFFCURVE",
"660 10 OFFCURVE",
"647 14 CURVE",
"642 14 OFFCURVE",
"636 13 OFFCURVE",
"631 13 CURVE SMOOTH",
"628 13 OFFCURVE",
"624 12 OFFCURVE",
"622 13 CURVE",
"600 21 OFFCURVE",
"580 16 OFFCURVE",
"558 18 CURVE",
"546 18 OFFCURVE",
"535 17 OFFCURVE",
"526 13 CURVE",
"516 13 OFFCURVE",
"511 16 OFFCURVE",
"505 18 CURVE",
"499 18 OFFCURVE",
"494 20 OFFCURVE",
"489 20 CURVE",
"471 16 OFFCURVE",
"455 23 OFFCURVE",
"438 21 CURVE",
"427 24 OFFCURVE",
"416 29 OFFCURVE",
"405 32 CURVE",
"404 32 OFFCURVE",
"402 33 OFFCURVE",
"402 33 CURVE",
"401 36 OFFCURVE",
"400 37 OFFCURVE",
"399 39 CURVE",
"404 45 OFFCURVE",
"409 49 OFFCURVE",
"409 59 CURVE",
"408 61 OFFCURVE",
"407 64 OFFCURVE",
"404 66 CURVE",
"397 70 OFFCURVE",
"393 76 OFFCURVE",
"396 84 CURVE",
"397 86 OFFCURVE",
"397 89 OFFCURVE",
"397 91 CURVE",
"396 100 OFFCURVE",
"394 109 OFFCURVE",
"394 118 CURVE",
"391 123 OFFCURVE",
"388 125 OFFCURVE",
"383 125 CURVE",
"374 126 OFFCURVE",
"363 128 OFFCURVE",
"354 128 CURVE SMOOTH",
"345 128 OFFCURVE",
"336 135 OFFCURVE",
"327 130 CURVE",
"316 133 OFFCURVE",
"307 129 OFFCURVE",
"298 130 CURVE",
"294 131 OFFCURVE",
"291 130 OFFCURVE",
"288 130 CURVE",
"285 131 OFFCURVE",
"283 133 OFFCURVE",
"279 135 CURVE",
"269 143 OFFCURVE",
"262 141 OFFCURVE",
"255 132 CURVE SMOOTH",
"244 117 OFFCURVE",
"232 103 OFFCURVE",
"220 91 CURVE SMOOTH",
"210 82 OFFCURVE",
"204 70 OFFCURVE",
"199 59 CURVE SMOOTH",
"195 52 OFFCURVE",
"191 46 OFFCURVE",
"185 40 CURVE",
"178 35 OFFCURVE",
"173 26 OFFCURVE",
"167 21 CURVE",
"163 20 OFFCURVE",
"162 18 OFFCURVE",
"160 18 CURVE",
"151 17 OFFCURVE",
"140 17 OFFCURVE",
"132 17 CURVE",
"120 24 OFFCURVE",
"110 35 OFFCURVE",
"100 41 CURVE",
"86 64 OFFCURVE",
"86 64 OFFCURVE",
"56 71 CURVE",
"54 75 OFFCURVE",
"52 79 OFFCURVE",
"49 84 CURVE",
"47 87 OFFCURVE",
"44 91 OFFCURVE",
"43 93 CURVE",
"40 101 OFFCURVE",
"43 108 OFFCURVE",
"44 114 CURVE",
"44 133 LINE",
"55 151 OFFCURVE",
"67 169 OFFCURVE",
"79 186 CURVE",
"81 189 OFFCURVE",
"83 191 OFFCURVE",
"85 194 CURVE",
"95 221 OFFCURVE",
"114 244 OFFCURVE",
"128 269 CURVE",
"129 273 OFFCURVE",
"130 276 OFFCURVE",
"131 278 CURVE",
"135 289 OFFCURVE",
"140 298 OFFCURVE",
"148 305 CURVE SMOOTH",
"154 311 OFFCURVE",
"160 317 OFFCURVE",
"167 325 CURVE",
"173 336 OFFCURVE",
"174 351 OFFCURVE",
"185 361 CURVE",
"187 369 OFFCURVE",
"191 376 OFFCURVE",
"194 384 CURVE",
"197 392 OFFCURVE",
"201 398 OFFCURVE",
"207 402 CURVE",
"208 402 LINE",
"212 409 OFFCURVE",
"214 416 OFFCURVE",
"217 424 CURVE",
"221 427 OFFCURVE",
"224 429 OFFCURVE",
"228 430 CURVE",
"229 432 OFFCURVE",
"230 435 OFFCURVE",
"230 436 CURVE",
"232 448 OFFCURVE",
"235 461 OFFCURVE",
"243 473 CURVE",
"244 474 OFFCURVE",
"245 476 OFFCURVE",
"245 478 CURVE",
"247 491 OFFCURVE",
"252 503 OFFCURVE",
"263 511 CURVE",
"270 522 OFFCURVE",
"277 532 OFFCURVE",
"285 545 CURVE",
"288 553 OFFCURVE",
"291 564 OFFCURVE",
"296 573 CURVE",
"300 576 OFFCURVE",
"305 578 OFFCURVE",
"309 581 CURVE SMOOTH",
"313 583 OFFCURVE",
"317 584 OFFCURVE",
"320 585 CURVE",
"330 595 OFFCURVE",
"332 607 OFFCURVE",
"338 618 CURVE SMOOTH",
"344 627 OFFCURVE",
"351 635 OFFCURVE",
"358 644 CURVE",
"363 647 OFFCURVE",
"371 652 OFFCURVE",
"378 656 CURVE",
"396 652 LINE",
"401 654 OFFCURVE",
"407 656 OFFCURVE",
"414 657 CURVE",
"429 653 LINE",
"462 660 OFFCURVE",
"462 660 OFFCURVE",
"500 658 CURVE",
"521 649 LINE",
"524 649 OFFCURVE",
"527 647 OFFCURVE",
"529 649 CURVE",
"535 650 OFFCURVE",
"542 652 OFFCURVE",
"547 653 CURVE SMOOTH",
"554 654 OFFCURVE",
"562 656 OFFCURVE",
"569 657 CURVE",
"573 654 OFFCURVE",
"577 653 OFFCURVE",
"582 651 CURVE",
"585 653 OFFCURVE",
"589 654 OFFCURVE",
"593 658 CURVE",
"598 657 OFFCURVE",
"605 656 OFFCURVE",
"611 654 CURVE",
"619 657 OFFCURVE",
"626 658 OFFCURVE",
"633 660 CURVE",
"645 666 OFFCURVE",
"658 668 OFFCURVE",
"668 661 CURVE",
"672 664 OFFCURVE",
"674 665 OFFCURVE",
"676 666 CURVE",
"688 674 OFFCURVE",
"689 674 OFFCURVE",
"700 665 CURVE",
"703 664 OFFCURVE",
"704 662 OFFCURVE",
"706 661 CURVE",
"712 660 OFFCURVE",
"716 664 OFFCURVE",
"721 665 CURVE",
"729 665 OFFCURVE",
"736 660 OFFCURVE",
"743 658 CURVE",
"746 652 OFFCURVE",
"750 647 OFFCURVE",
"753 642 CURVE",
"767 628 LINE"
);
},
{
closed = 1;
nodes = (
"417 385 OFFCURVE",
"416 393 OFFCURVE",
"415 400 CURVE",
"415 406 OFFCURVE",
"414 412 OFFCURVE",
"413 416 CURVE",
"409 423 OFFCURVE",
"413 429 OFFCURVE",
"411 435 CURVE",
"411 437 OFFCURVE",
"407 438 OFFCURVE",
"406 438 CURVE",
"402 438 OFFCURVE",
"400 436 OFFCURVE",
"397 435 CURVE",
"394 428 OFFCURVE",
"393 421 OFFCURVE",
"391 414 CURVE",
"389 412 OFFCURVE",
"386 408 OFFCURVE",
"383 407 CURVE",
"373 400 OFFCURVE",
"369 389 OFFCURVE",
"368 377 CURVE",
"363 374 OFFCURVE",
"358 369 OFFCURVE",
"355 363 CURVE",
"345 347 OFFCURVE",
"332 332 OFFCURVE",
"324 315 CURVE SMOOTH",
"321 308 OFFCURVE",
"317 301 OFFCURVE",
"314 296 CURVE SMOOTH",
"305 281 OFFCURVE",
"297 266 OFFCURVE",
"289 251 CURVE",
"286 247 OFFCURVE",
"290 241 OFFCURVE",
"294 241 CURVE SMOOTH",
"299 241 OFFCURVE",
"302 240 OFFCURVE",
"307 240 CURVE",
"319 243 OFFCURVE",
"330 240 OFFCURVE",
"342 237 CURVE",
"354 240 OFFCURVE",
"367 243 OFFCURVE",
"379 239 CURVE SMOOTH",
"388 237 OFFCURVE",
"394 240 OFFCURVE",
"400 246 CURVE",
"405 253 OFFCURVE",
"407 261 OFFCURVE",
"407 270 CURVE",
"408 290 OFFCURVE",
"408 311 OFFCURVE",
"414 330 CURVE",
"414 335 OFFCURVE",
"415 339 OFFCURVE",
"414 343 CURVE",
"413 355 OFFCURVE",
"414 367 OFFCURVE",
"415 378 CURVE"
);
}
);
width = 808;
}
);
unicode = 00C6;
},
{
glyphname = B;
lastChange = "2020-11-04 23:12:10 +0000";
layers = (
{
layerId = master01;
paths = (
{
closed = 1;
nodes = (
"503 129 OFFCURVE",
"501 123 OFFCURVE",
"501 117 CURVE",
"494 102 OFFCURVE",
"488 89 OFFCURVE",
"492 71 CURVE",
"488 49 OFFCURVE",
"480 29 OFFCURVE",
"462 13 CURVE",
"455 9 OFFCURVE",
"448 7 OFFCURVE",
"442 3 CURVE",
"436 -1 OFFCURVE",
"429 -2 OFFCURVE",
"423 -6 CURVE SMOOTH",
"408 -15 OFFCURVE",
"392 -20 OFFCURVE",
"377 -29 CURVE",
"376 -29 OFFCURVE",
"374 -31 OFFCURVE",
"371 -30 CURVE",
"360 -29 OFFCURVE",
"351 -36 OFFCURVE",
"336 -36 CURVE SMOOTH",
"332 -36 OFFCURVE",
"325 -36 OFFCURVE",
"319 -35 CURVE",
"307 -35 OFFCURVE",
"297 -37 OFFCURVE",
"290 -44 CURVE",
"269 -48 OFFCURVE",
"252 -41 OFFCURVE",
"235 -35 CURVE",
"229 -36 OFFCURVE",
"222 -37 OFFCURVE",
"214 -38 CURVE",
"195 -35 OFFCURVE",
"181 -32 OFFCURVE",
"164 -29 CURVE",
"162 -29 OFFCURVE",
"159 -30 OFFCURVE",
"155 -31 CURVE",
"144 -28 OFFCURVE",
"131 -25 OFFCURVE",
"118 -22 CURVE",
"114 -18 OFFCURVE",
"110 -15 OFFCURVE",
"107 -12 CURVE",
"105 -13 OFFCURVE",
"102 -13 OFFCURVE",
"101 -13 CURVE",
"95 -15 OFFCURVE",
"90 -17 OFFCURVE",
"84 -20 CURVE SMOOTH",
"81 -21 OFFCURVE",
"76 -18 OFFCURVE",
"74 -15 CURVE SMOOTH",
"68 -6 OFFCURVE",
"64 5 OFFCURVE",
"64 16 CURVE SMOOTH",
"64 35 LINE",
"68 45 OFFCURVE",
"70 52 OFFCURVE",
"74 57 CURVE",
"71 69 OFFCURVE",
"63 75 OFFCURVE",
"59 83 CURVE",
"57 90 OFFCURVE",
"59 97 OFFCURVE",
"56 103 CURVE SMOOTH",
"52 122 OFFCURVE",
"53 140 OFFCURVE",
"59 159 CURVE",
"56 166 OFFCURVE",
"54 173 OFFCURVE",
"53 179 CURVE SMOOTH",
"49 193 OFFCURVE",
"46 207 OFFCURVE",
"46 221 CURVE SMOOTH",
"46 236 OFFCURVE",
"47 251 OFFCURVE",
"41 266 CURVE",
"40 270 OFFCURVE",
"40 275 OFFCURVE",
"41 279 CURVE SMOOTH",
"44 288 OFFCURVE",
"44 296 OFFCURVE",
"43 304 CURVE",
"41 308 OFFCURVE",
"41 312 OFFCURVE",
"41 315 CURVE",
"44 328 OFFCURVE",
"45 339 OFFCURVE",
"47 351 CURVE SMOOTH",
"49 363 OFFCURVE",
"46 375 OFFCURVE",
"49 388 CURVE",
"53 394 OFFCURVE",
"53 402 OFFCURVE",
"53 411 CURVE",
"54 417 OFFCURVE",
"53 424 OFFCURVE",
"53 431 CURVE SMOOTH",
"53 446 OFFCURVE",
"53 461 OFFCURVE",
"52 476 CURVE",
"52 491 OFFCURVE",
"51 505 OFFCURVE",
"49 521 CURVE",
"51 527 OFFCURVE",
"54 534 OFFCURVE",
"52 542 CURVE",
"51 554 OFFCURVE",
"48 567 OFFCURVE",
"52 581 CURVE SMOOTH",
"53 587 OFFCURVE",
"51 592 OFFCURVE",
"49 598 CURVE",
"52 601 OFFCURVE",
"55 604 OFFCURVE",
"57 607 CURVE",
"59 611 OFFCURVE",
"60 614 OFFCURVE",
"61 619 CURVE",
"68 621 OFFCURVE",
"72 623 OFFCURVE",
"78 624 CURVE",
"84 623 OFFCURVE",
"90 622 OFFCURVE",
"98 621 CURVE",
"112 623 OFFCURVE",
"128 627 OFFCURVE",
"146 631 CURVE",
"158 630 OFFCURVE",
"173 630 OFFCURVE",
"186 623 CURVE",
"194 624 OFFCURVE",
"202 624 OFFCURVE",
"210 626 CURVE SMOOTH",
"223 627 OFFCURVE",
"236 627 OFFCURVE",
"248 621 CURVE SMOOTH",
"262 615 OFFCURVE",
"277 612 OFFCURVE",
"292 611 CURVE",
"300 608 OFFCURVE",
"309 608 OFFCURVE",
"320 608 CURVE",
"337 598 LINE",
"350 596 OFFCURVE",
"362 592 OFFCURVE",
"376 595 CURVE",
"386 593 OFFCURVE",
"394 584 OFFCURVE",
"406 583 CURVE",
"413 583 OFFCURVE",
"420 581 OFFCURVE",
"428 578 CURVE",
"432 574 OFFCURVE",
"437 568 OFFCURVE",
"442 561 CURVE SMOOTH",
"444 558 OFFCURVE",
"446 554 OFFCURVE",
"450 552 CURVE SMOOTH",
"474 537 OFFCURVE",
"486 513 OFFCURVE",
"492 486 CURVE SMOOTH",
"494 476 OFFCURVE",
"494 465 OFFCURVE",
"494 453 CURVE SMOOTH",
"494 446 OFFCURVE",
"494 437 OFFCURVE",
"496 430 CURVE SMOOTH",
"498 412 OFFCURVE",
"493 396 OFFCURVE",
"488 379 CURVE SMOOTH",
"483 367 OFFCURVE",
"475 355 OFFCURVE",
"466 344 CURVE",
"463 342 OFFCURVE",
"461 340 OFFCURVE",
"458 339 CURVE",
"455 338 OFFCURVE",
"452 337 OFFCURVE",
"451 335 CURVE",
"443 322 OFFCURVE",
"428 315 OFFCURVE",
"417 304 CURVE",
"417 301 OFFCURVE",
"415 298 OFFCURVE",
"415 296 CURVE",
"413 291 OFFCURVE",
"415 288 OFFCURVE",
"419 285 CURVE",
"422 284 OFFCURVE",
"427 283 OFFCURVE",
"431 282 CURVE",
"435 278 OFFCURVE",
"438 274 OFFCURVE",
"443 269 CURVE SMOOTH",
"446 266 OFFCURVE",
"450 263 OFFCURVE",
"454 260 CURVE",
"458 252 OFFCURVE",
"461 244 OFFCURVE",
"465 235 CURVE",
"467 231 OFFCURVE",
"467 227 OFFCURVE",
"469 224 CURVE",
"484 206 OFFCURVE",
"488 184 OFFCURVE",
"498 164 CURVE SMOOTH",
"500 160 OFFCURVE",
"500 155 OFFCURVE",
"501 151 CURVE SMOOTH",
"503 145 OFFCURVE",
"503 140 OFFCURVE",
"503 136 CURVE SMOOTH"
);
},
{
closed = 1;
nodes = (
"347 402 OFFCURVE",
"347 411 OFFCURVE",
"344 417 CURVE",
"340 428 OFFCURVE",
"336 438 OFFCURVE",
"331 450 CURVE",
"325 457 OFFCURVE",
"320 463 OFFCURVE",
"313 470 CURVE",
"288 477 OFFCURVE",
"262 484 OFFCURVE",
"236 483 CURVE",
"221 483 OFFCURVE",
"221 483 OFFCURVE",
"205 491 CURVE",
"200 490 OFFCURVE",
"198 488 OFFCURVE",
"195 482 CURVE",
"193 465 OFFCURVE",
"192 444 OFFCURVE",
"189 424 CURVE SMOOTH",
"187 420 OFFCURVE",
"189 415 OFFCURVE",
"189 409 CURVE SMOOTH",
"189 400 OFFCURVE",
"190 390 OFFCURVE",
"190 379 CURVE",
"193 375 OFFCURVE",
"195 369 OFFCURVE",
"199 365 CURVE",
"199 362 OFFCURVE",
"201 362 OFFCURVE",
"204 361 CURVE",
"216 367 OFFCURVE",
"216 367 OFFCURVE",
"231 366 CURVE",
"237 362 OFFCURVE",
"241 359 OFFCURVE",
"246 355 CURVE",
"255 355 OFFCURVE",
"265 354 OFFCURVE",
"274 354 CURVE SMOOTH",
"283 354 OFFCURVE",
"291 357 OFFCURVE",
"301 353 CURVE",
"312 360 OFFCURVE",
"324 366 OFFCURVE",
"337 377 CURVE",
"339 383 OFFCURVE",
"342 389 OFFCURVE",
"344 394 CURVE SMOOTH"
);
},
{
closed = 1;
nodes = (
"376 176 LINE",
"371 189 OFFCURVE",
"363 199 OFFCURVE",
"354 209 CURVE",
"346 213 OFFCURVE",
"339 215 OFFCURVE",
"334 218 CURVE",
"314 228 OFFCURVE",
"293 231 OFFCURVE",
"273 231 CURVE SMOOTH",
"256 231 OFFCURVE",
"240 230 OFFCURVE",
"224 230 CURVE",
"218 227 OFFCURVE",
"212 223 OFFCURVE",
"206 218 CURVE SMOOTH",
"202 216 OFFCURVE",
"200 214 OFFCURVE",
"199 208 CURVE",
"200 201 OFFCURVE",
"202 192 OFFCURVE",
"204 183 CURVE",
"204 175 OFFCURVE",
"202 166 OFFCURVE",
"206 156 CURVE SMOOTH",
"207 153 OFFCURVE",
"205 148 OFFCURVE",
"204 145 CURVE",
"202 143 OFFCURVE",
"201 139 OFFCURVE",
"200 137 CURVE",
"202 133 OFFCURVE",
"208 135 OFFCURVE",
"208 129 CURVE",
"207 123 OFFCURVE",
"202 118 OFFCURVE",
"202 113 CURVE SMOOTH",
"202 109 LINE",
"204 108 OFFCURVE",
"205 106 OFFCURVE",
"207 106 CURVE",
"224 97 OFFCURVE",
"244 94 OFFCURVE",
"262 99 CURVE SMOOTH",
"267 100 OFFCURVE",
"273 101 OFFCURVE",
"276 101 CURVE",
"285 100 OFFCURVE",
"292 98 OFFCURVE",
"300 97 CURVE",
"311 101 OFFCURVE",
"322 105 OFFCURVE",
"328 114 CURVE SMOOTH",
"330 117 OFFCURVE",
"332 117 OFFCURVE",
"336 118 CURVE SMOOTH",
"353 125 OFFCURVE",
"367 136 OFFCURVE",
"376 153 CURVE"
);
}
);
width = 543;
}
);
unicode = 0042;
},
{
glyphname = C;
lastChange = "2020-11-04 23:12:10 +0000";
layers = (
{
layerId = master01;
paths = (
{
closed = 1;
nodes = (
"557 497 OFFCURVE",
"554 489 OFFCURVE",
"552 481 CURVE SMOOTH",
"551 477 OFFCURVE",
"551 474 OFFCURVE",
"551 469 CURVE",
"547 465 OFFCURVE",
"544 460 OFFCURVE",
"539 454 CURVE",
"539 451 OFFCURVE",
"538 446 OFFCURVE",
"537 442 CURVE",
"531 438 OFFCURVE",
"526 434 OFFCURVE",
"520 430 CURVE",
"518 424 OFFCURVE",
"515 420 OFFCURVE",
"513 414 CURVE",
"498 401 OFFCURVE",
"489 383 OFFCURVE",
"474 369 CURVE",
"469 367 OFFCURVE",
"466 369 OFFCURVE",
"462 373 CURVE SMOOTH",
"454 381 OFFCURVE",
"446 389 OFFCURVE",
"435 394 CURVE",
"431 397 OFFCURVE",
"430 397 OFFCURVE",
"428 400 CURVE",
"422 400 OFFCURVE",
"416 404 OFFCURVE",
"411 405 CURVE SMOOTH",
"404 406 OFFCURVE",
"399 411 OFFCURVE",
"394 415 CURVE SMOOTH",
"383 427 LINE",
"370 424 OFFCURVE",
"359 432 OFFCURVE",
"346 437 CURVE",
"337 436 OFFCURVE",
"328 436 OFFCURVE",
"317 435 CURVE",
"308 429 OFFCURVE",
"298 423 OFFCURVE",
"289 416 CURVE SMOOTH",
"277 407 OFFCURVE",
"266 399 OFFCURVE",
"252 396 CURVE",
"250 396 OFFCURVE",
"248 393 OFFCURVE",
"245 392 CURVE",
"239 386 OFFCURVE",
"233 378 OFFCURVE",
"228 371 CURVE",
"225 362 OFFCURVE",
"222 352 OFFCURVE",
"220 344 CURVE",
"221 339 OFFCURVE",
"222 335 OFFCURVE",
"223 331 CURVE",
"223 327 OFFCURVE",
"221 323 OFFCURVE",
"217 320 CURVE SMOOTH",
"213 315 OFFCURVE",
"207 313 OFFCURVE",
"205 305 CURVE",
"212 294 LINE",
"213 288 OFFCURVE",
"206 284 OFFCURVE",
"204 277 CURVE",
"204 276 OFFCURVE",
"202 276 OFFCURVE",
"202 275 CURVE",
"205 265 OFFCURVE",
"207 253 OFFCURVE",
"208 243 CURVE",
"221 232 OFFCURVE",
"231 220 OFFCURVE",
"240 207 CURVE SMOOTH",
"246 199 OFFCURVE",
"254 193 OFFCURVE",
"261 186 CURVE",
"274 179 OFFCURVE",
"288 173 OFFCURVE",
"302 170 CURVE SMOOTH",
"312 169 OFFCURVE",
"320 163 OFFCURVE",
"332 159 CURVE",
"344 159 OFFCURVE",
"359 158 OFFCURVE",
"374 158 CURVE SMOOTH",
"377 158 OFFCURVE",
"381 158 OFFCURVE",
"383 159 CURVE",
"397 163 OFFCURVE",
"411 162 OFFCURVE",
"424 166 CURVE SMOOTH",
"438 169 OFFCURVE",
"452 170 OFFCURVE",
"466 171 CURVE",
"469 171 OFFCURVE",
"474 175 OFFCURVE",
"478 173 CURVE",
"483 168 OFFCURVE",
"485 162 OFFCURVE",
"489 156 CURVE",
"488 152 OFFCURVE",
"488 146 OFFCURVE",
"488 139 CURVE",
"503 114 OFFCURVE",
"514 85 OFFCURVE",
"521 54 CURVE",
"501 39 OFFCURVE",
"482 24 OFFCURVE",
"461 7 CURVE",
"452 3 OFFCURVE",
"439 5 OFFCURVE",
"432 -5 CURVE",
"427 -3 OFFCURVE",
"422 -1 OFFCURVE",
"419 0 CURVE",
"413 -1 OFFCURVE",
"413 -6 OFFCURVE",
"411 -9 CURVE",
"407 -7 OFFCURVE",
"405 -6 OFFCURVE",
"400 -3 CURVE",
"398 -5 OFFCURVE",
"393 -6 OFFCURVE",
"390 -7 CURVE SMOOTH",
"377 -10 OFFCURVE",
"365 -14 OFFCURVE",
"352 -14 CURVE SMOOTH",
"342 -14 OFFCURVE",
"330 -15 OFFCURVE",
"319 -16 CURVE",
"316 -16 OFFCURVE",
"312 -15 OFFCURVE",
"307 -14 CURVE SMOOTH",
"290 -9 OFFCURVE",
"290 -9 OFFCURVE",
"273 2 CURVE",
"262 3 OFFCURVE",
"259 -10 OFFCURVE",
"253 -10 CURVE SMOOTH",
"241 -10 LINE",
"230 -6 OFFCURVE",
"220 -2 OFFCURVE",
"208 0 CURVE SMOOTH",
"199 1 OFFCURVE",
"192 5 OFFCURVE",
"183 8 CURVE",
"174 16 OFFCURVE",
"164 25 OFFCURVE",
"153 31 CURVE",
"143 35 OFFCURVE",
"135 43 OFFCURVE",
"128 51 CURVE",
"123 59 OFFCURVE",
"115 62 OFFCURVE",
"110 69 CURVE",
"105 76 OFFCURVE",
"100 82 OFFCURVE",
"93 89 CURVE SMOOTH",
"86 95 OFFCURVE",
"82 103 OFFCURVE",
"76 110 CURVE",
"72 129 OFFCURVE",
"69 147 OFFCURVE",
"66 167 CURVE",
"63 170 OFFCURVE",
"60 176 OFFCURVE",
"55 182 CURVE",
"53 193 OFFCURVE",
"51 206 OFFCURVE",
"45 217 CURVE",
"46 221 OFFCURVE",
"47 224 OFFCURVE",
"48 227 CURVE",
"48 229 OFFCURVE",
"49 231 OFFCURVE",
"48 232 CURVE",
"43 246 OFFCURVE",
"41 260 OFFCURVE",
"43 274 CURVE SMOOTH",
"45 293 OFFCURVE",
"47 314 OFFCURVE",
"49 334 CURVE",
"53 337 OFFCURVE",
"56 339 OFFCURVE",
"60 342 CURVE",
"52 355 OFFCURVE",
"53 370 OFFCURVE",
"60 384 CURVE",
"53 397 OFFCURVE",
"55 406 OFFCURVE",
"55 406 CURVE",
"60 411 OFFCURVE",
"63 416 OFFCURVE",
"69 422 CURVE",
"75 427 OFFCURVE",
"79 432 OFFCURVE",
"83 439 CURVE",
"87 446 OFFCURVE",
"91 454 OFFCURVE",
"90 461 CURVE",
"101 468 OFFCURVE",
"113 469 OFFCURVE",
"120 477 CURVE",
"121 478 OFFCURVE",
"121 478 OFFCURVE",
"122 481 CURVE",
"122 485 OFFCURVE",
"121 490 OFFCURVE",
"121 497 CURVE",
"123 500 OFFCURVE",
"125 505 OFFCURVE",
"126 508 CURVE",
"135 513 OFFCURVE",
"141 515 OFFCURVE",
"148 519 CURVE",
"151 522 OFFCURVE",
"152 524 OFFCURVE",
"154 527 CURVE",
"160 537 OFFCURVE",
"168 545 OFFCURVE",
"179 550 CURVE SMOOTH",
"187 553 OFFCURVE",
"195 557 OFFCURVE",
"202 560 CURVE",
"206 562 OFFCURVE",
"209 566 OFFCURVE",
"213 569 CURVE",
"217 570 OFFCURVE",
"223 572 OFFCURVE",
"228 574 CURVE SMOOTH",
"237 578 OFFCURVE",
"247 583 OFFCURVE",
"258 584 CURVE",
"267 587 OFFCURVE",
"276 591 OFFCURVE",
"284 593 CURVE",
"291 595 OFFCURVE",
"294 590 OFFCURVE",
"300 588 CURVE",
"321 588 LINE",
"327 590 OFFCURVE",
"329 596 OFFCURVE",
"334 598 CURVE",
"361 604 OFFCURVE",
"361 604 OFFCURVE",
"406 600 CURVE",
"412 598 OFFCURVE",
"416 593 OFFCURVE",
"423 592 CURVE",
"432 592 OFFCURVE",
"440 589 OFFCURVE",
"450 587 CURVE",
"462 578 OFFCURVE",
"475 569 OFFCURVE",
"492 568 CURVE",
"500 554 OFFCURVE",
"514 547 OFFCURVE",
"527 541 CURVE SMOOTH",
"539 534 OFFCURVE",
"550 524 OFFCURVE",
"559 514 CURVE",
"559 511 OFFCURVE",
"560 507 OFFCURVE",
"559 505 CURVE SMOOTH"
);
}
);
width = 601;
}
);
unicode = 0043;
},
{
glyphname = Ccedilla;
lastChange = "2020-11-04 23:12:10 +0000";
layers = (
{
layerId = master01;
paths = (
{
closed = 1;
nodes = (
"558 440 OFFCURVE",
"553 436 OFFCURVE",
"549 431 CURVE",
"544 425 OFFCURVE",
"541 421 OFFCURVE",
"537 415 CURVE",
"535 413 OFFCURVE",
"532 411 OFFCURVE",
"530 408 CURVE SMOOTH",
"520 399 OFFCURVE",
"509 390 OFFCURVE",
"500 381 CURVE",
"494 376 OFFCURVE",
"490 379 OFFCURVE",
"484 379 CURVE",
"480 378 OFFCURVE",
"474 377 OFFCURVE",
"469 376 CURVE",
"462 377 OFFCURVE",
"454 379 OFFCURVE",
"447 381 CURVE",
"447 381 OFFCURVE",
"448 391 OFFCURVE",
"445 398 CURVE",
"430 415 OFFCURVE",
"411 427 OFFCURVE",
"390 438 CURVE",
"381 442 OFFCURVE",
"371 440 OFFCURVE",
"362 445 CURVE SMOOTH",
"350 451 OFFCURVE",
"336 454 OFFCURVE",
"316 454 CURVE",
"305 453 OFFCURVE",
"289 447 OFFCURVE",
"275 435 CURVE SMOOTH",
"254 414 OFFCURVE",
"240 388 OFFCURVE",
"223 362 CURVE",
"222 354 OFFCURVE",
"222 346 OFFCURVE",
"220 337 CURVE",
"220 335 OFFCURVE",
"218 335 OFFCURVE",
"217 332 CURVE SMOOTH",
"216 330 LINE",
"217 319 OFFCURVE",
"220 308 OFFCURVE",
"220 298 CURVE",
"221 288 OFFCURVE",
"220 277 OFFCURVE",
"218 266 CURVE",
"218 259 OFFCURVE",
"225 255 OFFCURVE",
"229 250 CURVE",
"232 241 OFFCURVE",
"236 235 OFFCURVE",
"232 225 CURVE",
"232 225 OFFCURVE",
"233 224 OFFCURVE",
"235 222 CURVE",
"244 222 LINE",
"252 215 OFFCURVE",
"256 205 OFFCURVE",
"269 200 CURVE",
"273 200 OFFCURVE",
"277 199 OFFCURVE",
"283 199 CURVE SMOOTH",
"293 199 OFFCURVE",
"304 199 OFFCURVE",
"315 197 CURVE SMOOTH",
"336 192 OFFCURVE",
"357 193 OFFCURVE",
"378 193 CURVE SMOOTH",
"383 193 OFFCURVE",
"386 194 OFFCURVE",
"391 197 CURVE SMOOTH",
"396 199 OFFCURVE",
"399 202 OFFCURVE",
"404 206 CURVE",
"419 215 OFFCURVE",
"434 221 OFFCURVE",
"452 222 CURVE",
"458 214 OFFCURVE",
"462 206 OFFCURVE",
"466 197 CURVE SMOOTH",
"470 184 OFFCURVE",
"476 171 OFFCURVE",
"481 159 CURVE SMOOTH",
"486 145 OFFCURVE",
"491 132 OFFCURVE",
"496 120 CURVE",
"494 117 OFFCURVE",
"493 115 OFFCURVE",
"492 114 CURVE",
"486 108 OFFCURVE",
"480 102 OFFCURVE",
"476 94 CURVE SMOOTH",
"470 82 OFFCURVE",
"459 72 OFFCURVE",
"446 67 CURVE SMOOTH",
"432 61 OFFCURVE",
"419 54 OFFCURVE",
"402 47 CURVE",
"383 47 OFFCURVE",
"363 40 OFFCURVE",
"343 33 CURVE",
"339 31 OFFCURVE",
"336 28 OFFCURVE",
"335 23 CURVE",
"336 22 OFFCURVE",
"335 21 OFFCURVE",
"336 21 CURVE",
"338 12 OFFCURVE",
"342 2 OFFCURVE",
"345 -8 CURVE",
"347 -8 OFFCURVE",
"351 -9 OFFCURVE",
"353 -10 CURVE",
"358 -10 OFFCURVE",
"362 -9 OFFCURVE",
"366 -9 CURVE",
"382 -13 OFFCURVE",
"397 -17 OFFCURVE",
"413 -20 CURVE SMOOTH",
"420 -21 OFFCURVE",
"427 -25 OFFCURVE",
"434 -28 CURVE",
"438 -32 OFFCURVE",
"443 -37 OFFCURVE",
"448 -40 CURVE SMOOTH",
"452 -44 OFFCURVE",
"458 -45 OFFCURVE",
"462 -47 CURVE",
"466 -53 OFFCURVE",
"468 -59 OFFCURVE",
"471 -64 CURVE",
"475 -68 OFFCURVE",
"478 -72 OFFCURVE",
"482 -76 CURVE",
"485 -94 OFFCURVE",
"482 -113 OFFCURVE",
"490 -130 CURVE",
"481 -151 OFFCURVE",
"473 -173 OFFCURVE",
"470 -194 CURVE",
"466 -202 OFFCURVE",
"461 -209 OFFCURVE",
"458 -216 CURVE",
"455 -218 OFFCURVE",
"454 -220 OFFCURVE",
"452 -221 CURVE SMOOTH",
"442 -225 OFFCURVE",
"437 -236 OFFCURVE",
"428 -241 CURVE SMOOTH",
"419 -247 OFFCURVE",
"409 -252 OFFCURVE",
"400 -258 CURVE SMOOTH",
"394 -261 OFFCURVE",
"390 -266 OFFCURVE",
"386 -269 CURVE",
"383 -268 OFFCURVE",
"379 -266 OFFCURVE",
"377 -265 CURVE",
"368 -263 OFFCURVE",
"362 -271 OFFCURVE",
"350 -274 CURVE",
"348 -273 OFFCURVE",
"343 -273 OFFCURVE",
"337 -271 CURVE",
"327 -271 OFFCURVE",
"315 -277 OFFCURVE",
"305 -279 CURVE",
"298 -274 OFFCURVE",
"296 -268 OFFCURVE",
"294 -262 CURVE SMOOTH",
"291 -248 OFFCURVE",
"291 -235 OFFCURVE",
"289 -221 CURVE SMOOTH",
"288 -214 OFFCURVE",
"289 -206 OFFCURVE",
"289 -198 CURVE",
"291 -197 OFFCURVE",
"293 -194 OFFCURVE",
"297 -194 CURVE",
"301 -192 OFFCURVE",
"307 -192 OFFCURVE",
"313 -191 CURVE",
"325 -178 OFFCURVE",
"342 -170 OFFCURVE",
"355 -166 CURVE",
"362 -156 OFFCURVE",
"363 -150 OFFCURVE",
"362 -141 CURVE SMOOTH",
"361 -132 OFFCURVE",
"359 -123 OFFCURVE",
"358 -115 CURVE",
"351 -106 OFFCURVE",
"343 -105 OFFCURVE",
"332 -101 CURVE",
"324 -102 OFFCURVE",
"315 -106 OFFCURVE",
"306 -106 CURVE SMOOTH",
"298 -106 OFFCURVE",
"289 -103 OFFCURVE",
"279 -101 CURVE",
"275 -102 OFFCURVE",
"268 -103 OFFCURVE",
"262 -105 CURVE",
"256 -105 OFFCURVE",
"253 -99 OFFCURVE",
"250 -95 CURVE",
"245 -93 OFFCURVE",
"241 -90 OFFCURVE",
"238 -86 CURVE",
"233 -89 OFFCURVE",
"229 -90 OFFCURVE",
"225 -91 CURVE",
"218 -68 OFFCURVE",
"218 -68 OFFCURVE",
"221 -47 CURVE",
"221 -40 LINE",
"220 -38 OFFCURVE",
"218 -35 OFFCURVE",
"217 -31 CURVE",
"218 -22 OFFCURVE",
"221 -13 OFFCURVE",
"222 -3 CURVE SMOOTH",
"223 7 OFFCURVE",
"225 16 OFFCURVE",
"227 25 CURVE",
"224 30 OFFCURVE",
"222 33 OFFCURVE",
"220 38 CURVE",
"214 40 OFFCURVE",
"208 41 OFFCURVE",
"202 44 CURVE",
"197 47 OFFCURVE",
"191 49 OFFCURVE",
"185 52 CURVE",
"182 54 OFFCURVE",
"176 55 OFFCURVE",
"174 57 CURVE SMOOTH",
"164 68 OFFCURVE",
"152 71 OFFCURVE",
"139 74 CURVE SMOOTH",
"128 76 OFFCURVE",
"120 81 OFFCURVE",
"110 87 CURVE",
"100 107 OFFCURVE",
"93 129 OFFCURVE",
"78 145 CURVE",
"72 159 OFFCURVE",
"68 171 OFFCURVE",
"68 185 CURVE",
"61 209 OFFCURVE",
"59 233 OFFCURVE",
"47 256 CURVE SMOOTH",
"45 261 OFFCURVE",
"45 267 OFFCURVE",
"44 271 CURVE",
"43 279 OFFCURVE",
"41 286 OFFCURVE",
"40 294 CURVE",
"44 329 LINE",
"44 342 OFFCURVE",
"47 354 OFFCURVE",
"52 367 CURVE SMOOTH",
"54 374 OFFCURVE",
"60 379 OFFCURVE",
"64 386 CURVE",
"64 402 OFFCURVE",
"68 419 OFFCURVE",
"72 435 CURVE SMOOTH",
"77 448 OFFCURVE",
"81 461 OFFCURVE",
"91 471 CURVE",
"93 482 OFFCURVE",
"94 491 OFFCURVE",
"97 499 CURVE",
"99 501 OFFCURVE",
"100 504 OFFCURVE",
"101 505 CURVE",
"110 511 OFFCURVE",
"116 521 OFFCURVE",
"126 526 CURVE",
"130 530 OFFCURVE",
"133 535 OFFCURVE",
"139 543 CURVE",
"141 545 OFFCURVE",
"147 547 OFFCURVE",
"154 551 CURVE",
"156 554 OFFCURVE",
"160 559 OFFCURVE",
"162 564 CURVE",
"168 568 OFFCURVE",
"175 573 OFFCURVE",
"182 573 CURVE",
"195 575 OFFCURVE",
"207 581 OFFCURVE",
"220 583 CURVE",
"227 585 OFFCURVE",
"233 589 OFFCURVE",
"240 592 CURVE SMOOTH",
"259 600 OFFCURVE",
"277 607 OFFCURVE",
"298 606 CURVE SMOOTH",
"321 605 OFFCURVE",
"344 606 OFFCURVE",
"366 603 CURVE",
"369 601 OFFCURVE",
"371 603 OFFCURVE",
"375 603 CURVE SMOOTH",
"388 603 LINE",
"392 601 OFFCURVE",
"396 600 OFFCURVE",
"400 599 CURVE",
"408 595 OFFCURVE",
"414 587 OFFCURVE",
"424 584 CURVE SMOOTH",
"442 580 OFFCURVE",
"458 569 OFFCURVE",
"473 558 CURVE SMOOTH",
"494 542 OFFCURVE",
"516 523 OFFCURVE",
"532 500 CURVE SMOOTH",
"543 486 OFFCURVE",
"551 470 OFFCURVE",
"560 454 CURVE",
"562 452 OFFCURVE",
"561 448 OFFCURVE",
"561 445 CURVE"
);
}
);
width = 601;
}
);
unicode = 00C7;
},
{
glyphname = D;
lastChange = "2020-11-04 23:12:10 +0000";
layers = (
{
layerId = master01;
paths = (
{
closed = 1;
nodes = (
"572 309 OFFCURVE",
"565 300 OFFCURVE",
"568 290 CURVE",
"568 288 OFFCURVE",
"567 284 OFFCURVE",
"566 282 CURVE",
"566 279 OFFCURVE",
"564 277 OFFCURVE",
"564 276 CURVE",
"565 254 OFFCURVE",
"565 254 OFFCURVE",
"559 233 CURVE",
"560 228 OFFCURVE",
"561 220 OFFCURVE",
"562 212 CURVE",
"561 207 OFFCURVE",
"559 200 OFFCURVE",
"557 194 CURVE",
"553 197 OFFCURVE",
"550 198 OFFCURVE",
"547 199 CURVE",
"544 200 OFFCURVE",
"541 197 OFFCURVE",
"541 194 CURVE",
"541 185 OFFCURVE",
"545 178 OFFCURVE",
"550 171 CURVE",
"547 160 OFFCURVE",
"545 148 OFFCURVE",
"543 135 CURVE",
"536 123 OFFCURVE",
"529 109 OFFCURVE",
"516 102 CURVE",
"514 95 OFFCURVE",
"513 91 OFFCURVE",
"511 85 CURVE",
"499 75 OFFCURVE",
"486 66 OFFCURVE",
"478 55 CURVE",
"471 49 OFFCURVE",
"466 53 OFFCURVE",
"461 52 CURVE",
"452 45 OFFCURVE",
"443 39 OFFCURVE",
"434 32 CURVE SMOOTH",
"425 26 OFFCURVE",
"417 20 OFFCURVE",
"408 13 CURVE",
"393 13 LINE",
"386 8 OFFCURVE",
"381 5 OFFCURVE",
"375 1 CURVE",
"371 1 OFFCURVE",
"369 0 OFFCURVE",
"367 1 CURVE",
"353 2 OFFCURVE",
"353 1 OFFCURVE",
"337 -6 CURVE SMOOTH",
"325 -10 OFFCURVE",
"313 -15 OFFCURVE",
"301 -20 CURVE",
"286 -14 OFFCURVE",
"271 -15 OFFCURVE",
"255 -15 CURVE",
"252 -13 OFFCURVE",
"247 -10 OFFCURVE",
"243 -8 CURVE SMOOTH",
"238 -6 OFFCURVE",
"235 -5 OFFCURVE",
"230 -3 CURVE",
"227 -3 OFFCURVE",
"222 -3 OFFCURVE",
"217 -5 CURVE",
"214 -7 OFFCURVE",
"210 -9 OFFCURVE",
"207 -13 CURVE",
"181 -9 OFFCURVE",
"154 -6 OFFCURVE",
"128 -1 CURVE SMOOTH",
"117 1 OFFCURVE",
"107 5 OFFCURVE",
"97 8 CURVE",
"89 7 OFFCURVE",
"81 5 OFFCURVE",
"72 3 CURVE SMOOTH",
"62 2 OFFCURVE",
"54 6 OFFCURVE",
"49 17 CURVE",
"49 20 OFFCURVE",
"48 22 OFFCURVE",
"48 24 CURVE",
"51 38 OFFCURVE",
"53 52 OFFCURVE",
"55 64 CURVE",
"55 67 OFFCURVE",
"57 68 OFFCURVE",
"59 70 CURVE",
"59 74 LINE",
"54 78 OFFCURVE",
"49 82 OFFCURVE",
"45 86 CURVE",
"44 176 LINE",
"44 177 LINE",
"51 177 LINE",
"49 179 OFFCURVE",
"47 182 OFFCURVE",
"44 183 CURVE",
"44 183 OFFCURVE",
"49 199 OFFCURVE",
"51 205 CURVE SMOOTH",
"53 213 OFFCURVE",
"48 217 OFFCURVE",
"47 223 CURVE",
"49 228 OFFCURVE",
"52 232 OFFCURVE",
"54 238 CURVE",
"52 244 OFFCURVE",
"49 250 OFFCURVE",
"47 255 CURVE SMOOTH",
"45 262 OFFCURVE",
"49 269 OFFCURVE",
"49 275 CURVE",
"51 282 OFFCURVE",
"49 288 OFFCURVE",
"49 297 CURVE",
"47 304 OFFCURVE",
"44 312 OFFCURVE",
"40 321 CURVE",
"44 329 OFFCURVE",
"46 337 OFFCURVE",
"49 345 CURVE",
"46 359 LINE",
"48 369 OFFCURVE",
"52 381 OFFCURVE",
"54 391 CURVE",
"49 411 OFFCURVE",
"51 430 OFFCURVE",
"51 450 CURVE SMOOTH",
"51 457 OFFCURVE",
"53 462 OFFCURVE",
"56 468 CURVE",
"59 470 OFFCURVE",
"59 474 OFFCURVE",
"60 476 CURVE",
"57 482 OFFCURVE",
"55 486 OFFCURVE",
"54 491 CURVE",
"54 499 OFFCURVE",
"59 508 OFFCURVE",
"53 515 CURVE",
"49 529 OFFCURVE",
"51 542 OFFCURVE",
"54 555 CURVE",
"60 562 OFFCURVE",
"64 569 OFFCURVE",
"70 577 CURVE",
"77 578 OFFCURVE",
"84 581 OFFCURVE",
"90 580 CURVE",
"101 578 OFFCURVE",
"113 580 OFFCURVE",
"124 585 CURVE SMOOTH",
"131 589 OFFCURVE",
"138 587 OFFCURVE",
"146 584 CURVE",
"171 588 OFFCURVE",
"197 591 OFFCURVE",
"221 598 CURVE",
"227 600 OFFCURVE",
"233 598 OFFCURVE",
"243 598 CURVE",
"261 606 LINE",
"267 604 OFFCURVE",
"274 603 OFFCURVE",
"281 600 CURVE",
"289 601 OFFCURVE",
"297 604 OFFCURVE",
"306 606 CURVE",
"311 603 OFFCURVE",
"316 599 OFFCURVE",
"322 596 CURVE",
"336 597 OFFCURVE",
"348 603 OFFCURVE",
"362 604 CURVE",
"367 598 OFFCURVE",
"369 592 OFFCURVE",
"374 588 CURVE",
"379 581 OFFCURVE",
"392 582 OFFCURVE",
"396 590 CURVE SMOOTH",
"398 596 OFFCURVE",
"405 595 OFFCURVE",
"412 585 CURVE",
"420 585 OFFCURVE",
"428 587 OFFCURVE",
"437 587 CURVE",
"443 583 OFFCURVE",
"448 580 OFFCURVE",
"453 575 CURVE SMOOTH",
"458 570 OFFCURVE",
"463 565 OFFCURVE",
"470 561 CURVE",
"474 559 OFFCURVE",
"477 555 OFFCURVE",
"478 552 CURVE",
"483 544 OFFCURVE",
"491 537 OFFCURVE",
"498 530 CURVE",
"504 523 OFFCURVE",
"512 519 OFFCURVE",
"522 516 CURVE",
"524 515 OFFCURVE",
"528 513 OFFCURVE",
"530 512 CURVE",
"532 501 OFFCURVE",
"536 491 OFFCURVE",
"538 481 CURVE",
"537 475 OFFCURVE",
"536 470 OFFCURVE",
"535 466 CURVE",
"538 454 OFFCURVE",
"547 448 OFFCURVE",
"554 440 CURVE",
"564 424 OFFCURVE",
"568 407 OFFCURVE",
"568 389 CURVE SMOOTH",
"568 376 OFFCURVE",
"570 363 OFFCURVE",
"568 351 CURVE SMOOTH",
"567 340 OFFCURVE",
"572 329 OFFCURVE",
"570 319 CURVE"
);
},
{
closed = 1;
nodes = (
"419 345 OFFCURVE",
"414 352 OFFCURVE",
"411 360 CURVE SMOOTH",
"407 368 OFFCURVE",
"405 376 OFFCURVE",
"402 386 CURVE",
"381 389 OFFCURVE",
"367 401 OFFCURVE",
"352 412 CURVE",
"337 412 LINE",
"324 422 OFFCURVE",
"312 431 OFFCURVE",
"299 440 CURVE",
"276 443 OFFCURVE",
"253 438 OFFCURVE",
"235 442 CURVE",
"223 438 OFFCURVE",
"215 436 OFFCURVE",
"207 434 CURVE SMOOTH",
"204 432 OFFCURVE",
"201 430 OFFCURVE",
"199 428 CURVE",
"195 408 OFFCURVE",
"197 388 OFFCURVE",
"199 368 CURVE",
"204 360 OFFCURVE",
"198 353 OFFCURVE",
"199 346 CURVE SMOOTH",
"200 342 OFFCURVE",
"201 338 OFFCURVE",
"202 332 CURVE",
"199 324 OFFCURVE",
"199 315 OFFCURVE",
"198 305 CURVE",
"198 294 OFFCURVE",
"197 284 OFFCURVE",
"195 275 CURVE",
"199 268 OFFCURVE",
"201 262 OFFCURVE",
"204 256 CURVE",
"200 244 OFFCURVE",
"195 231 OFFCURVE",
"192 220 CURVE",
"192 213 OFFCURVE",
"193 206 OFFCURVE",
"192 200 CURVE SMOOTH",
"191 192 OFFCURVE",
"189 184 OFFCURVE",
"186 176 CURVE",
"190 169 LINE SMOOTH",
"194 160 OFFCURVE",
"204 156 OFFCURVE",
"214 158 CURVE",
"220 158 OFFCURVE",
"227 159 OFFCURVE",
"232 161 CURVE",
"241 163 OFFCURVE",
"250 160 OFFCURVE",
"259 161 CURVE",
"270 164 OFFCURVE",
"283 169 OFFCURVE",
"294 173 CURVE",
"300 174 OFFCURVE",
"306 176 OFFCURVE",
"311 175 CURVE SMOOTH",
"323 173 OFFCURVE",
"336 175 OFFCURVE",
"350 177 CURVE",
"353 179 OFFCURVE",
"359 181 OFFCURVE",
"363 184 CURVE",
"374 189 OFFCURVE",
"382 197 OFFCURVE",
"389 207 CURVE SMOOTH",
"396 216 OFFCURVE",
"399 228 OFFCURVE",
"405 238 CURVE SMOOTH",
"416 260 OFFCURVE",
"422 282 OFFCURVE",
"419 306 CURVE",
"417 311 OFFCURVE",
"419 316 OFFCURVE",
"420 322 CURVE SMOOTH",
"421 327 OFFCURVE",
"423 332 OFFCURVE",
"422 338 CURVE"
);
}
);
width = 611;
}
);
unicode = 0044;
},
{
glyphname = Eth;
lastChange = "2020-11-04 23:12:10 +0000";
layers = (
{
layerId = master01;
paths = (
{
closed = 1;
nodes = (
"692 274 OFFCURVE",
"685 256 OFFCURVE",
"688 237 CURVE",
"688 236 OFFCURVE",
"688 233 OFFCURVE",
"689 231 CURVE",
"697 222 OFFCURVE",
"696 212 OFFCURVE",
"692 201 CURVE SMOOTH",
"690 193 OFFCURVE",
"685 185 OFFCURVE",
"682 177 CURVE",
"679 175 OFFCURVE",
"675 173 OFFCURVE",
"670 170 CURVE",
"660 163 LINE",
"659 156 OFFCURVE",
"660 150 OFFCURVE",
"658 144 CURVE",
"656 135 OFFCURVE",
"651 126 OFFCURVE",
"646 118 CURVE SMOOTH",
"644 115 OFFCURVE",
"642 110 OFFCURVE",
"639 106 CURVE",
"618 91 OFFCURVE",
"597 71 OFFCURVE",
"576 53 CURVE SMOOTH",
"555 36 OFFCURVE",
"553 35 OFFCURVE",
"529 26 CURVE",
"527 26 OFFCURVE",
"524 25 OFFCURVE",
"522 25 CURVE",
"511 23 OFFCURVE",
"500 18 OFFCURVE",
"490 12 CURVE",
"486 10 OFFCURVE",
"482 8 OFFCURVE",
"478 7 CURVE SMOOTH",
"466 3 OFFCURVE",
"453 6 OFFCURVE",
"440 1 CURVE",
"436 0 OFFCURVE",
"429 0 OFFCURVE",
"424 1 CURVE SMOOTH",
"417 3 OFFCURVE",
"409 5 OFFCURVE",
"402 6 CURVE",
"399 7 OFFCURVE",
"396 10 OFFCURVE",
"391 13 CURVE",
"365 12 OFFCURVE",
"365 12 OFFCURVE",
"339 1 CURVE",
"331 1 OFFCURVE",
"324 6 OFFCURVE",
"317 2 CURVE",
"314 1 OFFCURVE",
"311 1 OFFCURVE",
"308 2 CURVE",
"301 5 OFFCURVE",
"296 3 OFFCURVE",
"289 2 CURVE SMOOTH",
"281 1 OFFCURVE",
"273 5 OFFCURVE",
"265 -1 CURVE",
"241 -1 LINE SMOOTH",
"233 -1 OFFCURVE",
"225 -2 OFFCURVE",
"216 -2 CURVE",
"207 2 OFFCURVE",
"199 7 OFFCURVE",
"191 10 CURVE SMOOTH",
"183 15 OFFCURVE",
"175 20 OFFCURVE",
"167 22 CURVE SMOOTH",
"159 24 OFFCURVE",
"151 24 OFFCURVE",
"143 25 CURVE",
"140 28 OFFCURVE",
"138 29 OFFCURVE",
"138 30 CURVE",
"137 36 OFFCURVE",
"136 41 OFFCURVE",
"136 46 CURVE SMOOTH",
"136 61 OFFCURVE",
"136 76 OFFCURVE",
"138 91 CURVE",
"135 106 OFFCURVE",
"137 121 OFFCURVE",
"138 136 CURVE",
"138 138 OFFCURVE",
"139 140 OFFCURVE",
"139 143 CURVE",
"133 160 OFFCURVE",
"137 178 OFFCURVE",
"137 197 CURVE SMOOTH",
"137 204 LINE",
"136 212 OFFCURVE",
"131 217 OFFCURVE",
"122 217 CURVE SMOOTH",
"109 217 OFFCURVE",
"97 220 OFFCURVE",
"85 223 CURVE",
"78 222 OFFCURVE",
"74 221 OFFCURVE",
"68 220 CURVE",
"66 221 OFFCURVE",
"62 221 OFFCURVE",
"59 222 CURVE",
"55 224 OFFCURVE",
"52 227 OFFCURVE",
"49 229 CURVE",
"45 237 OFFCURVE",
"49 245 OFFCURVE",
"49 254 CURVE",
"47 259 OFFCURVE",
"45 265 OFFCURVE",
"43 271 CURVE",
"48 293 OFFCURVE",
"46 317 OFFCURVE",
"46 339 CURVE",
"47 347 OFFCURVE",
"54 351 OFFCURVE",
"57 358 CURVE",
"59 365 OFFCURVE",
"60 373 OFFCURVE",
"62 382 CURVE",
"64 384 OFFCURVE",
"67 386 OFFCURVE",
"70 386 CURVE",
"75 389 OFFCURVE",
"81 390 OFFCURVE",
"86 390 CURVE",
"100 389 OFFCURVE",
"114 390 OFFCURVE",
"128 393 CURVE",
"137 394 OFFCURVE",
"146 394 OFFCURVE",
"155 396 CURVE",
"164 400 OFFCURVE",
"170 408 OFFCURVE",
"176 416 CURVE",
"176 419 OFFCURVE",
"176 421 OFFCURVE",
"175 422 CURVE",
"170 431 OFFCURVE",
"169 440 OFFCURVE",
"169 450 CURVE SMOOTH",
"169 474 OFFCURVE",
"168 497 OFFCURVE",
"171 521 CURVE SMOOTH",
"173 530 OFFCURVE",
"170 541 OFFCURVE",
"169 551 CURVE",
"175 561 OFFCURVE",
"181 573 OFFCURVE",
"185 585 CURVE SMOOTH",
"197 619 LINE",
"197 622 OFFCURVE",
"199 624 OFFCURVE",
"201 626 CURVE SMOOTH",
"208 629 OFFCURVE",
"215 631 OFFCURVE",
"223 629 CURVE",
"225 629 OFFCURVE",
"228 630 OFFCURVE",
"229 631 CURVE",
"229 634 OFFCURVE",
"230 635 OFFCURVE",
"230 638 CURVE",
"250 643 OFFCURVE",
"269 649 OFFCURVE",
"289 646 CURVE",
"292 644 OFFCURVE",
"294 643 OFFCURVE",
"298 641 CURVE",
"306 633 OFFCURVE",
"315 634 OFFCURVE",
"325 637 CURVE",
"329 636 OFFCURVE",
"332 634 OFFCURVE",
"337 631 CURVE",
"353 633 OFFCURVE",
"370 633 OFFCURVE",
"388 634 CURVE SMOOTH",
"408 635 OFFCURVE",
"428 629 OFFCURVE",
"447 627 CURVE SMOOTH",
"453 626 OFFCURVE",
"458 622 OFFCURVE",
"462 621 CURVE",
"468 621 OFFCURVE",
"474 620 OFFCURVE",
"478 621 CURVE",
"490 622 OFFCURVE",
"500 620 OFFCURVE",
"507 610 CURVE SMOOTH",
"509 606 OFFCURVE",
"513 604 OFFCURVE",
"516 601 CURVE",
"527 597 OFFCURVE",
"537 590 OFFCURVE",
"547 584 CURVE",
"558 567 OFFCURVE",
"573 555 OFFCURVE",
"580 536 CURVE",
"590 528 OFFCURVE",
"599 519 OFFCURVE",
"610 512 CURVE",
"629 501 OFFCURVE",
"642 484 OFFCURVE",
"651 465 CURVE",
"651 462 OFFCURVE",
"652 460 OFFCURVE",
"653 459 CURVE",
"653 451 OFFCURVE",
"652 444 OFFCURVE",
"656 437 CURVE",
"661 432 OFFCURVE",
"670 432 OFFCURVE",
"673 422 CURVE",
"673 420 OFFCURVE",
"672 415 OFFCURVE",
"672 411 CURVE",
"672 409 OFFCURVE",
"673 407 OFFCURVE",
"674 405 CURVE",
"677 400 OFFCURVE",
"682 394 OFFCURVE",
"682 389 CURVE",
"684 375 OFFCURVE",
"688 361 OFFCURVE",
"688 347 CURVE",
"689 328 OFFCURVE",
"695 309 OFFCURVE",
"699 291 CURVE"
);
},
{
closed = 1;
nodes = (
"526 317 OFFCURVE",
"531 331 OFFCURVE",
"531 344 CURVE SMOOTH",
"531 351 OFFCURVE",
"524 353 OFFCURVE",
"526 359 CURVE",
"526 365 OFFCURVE",
"524 369 OFFCURVE",
"528 375 CURVE SMOOTH",
"529 377 OFFCURVE",
"528 381 OFFCURVE",
"528 384 CURVE",
"524 391 OFFCURVE",
"521 397 OFFCURVE",
"518 404 CURVE",
"514 408 OFFCURVE",
"512 413 OFFCURVE",
"511 419 CURVE SMOOTH",
"506 435 OFFCURVE",
"494 445 OFFCURVE",
"478 452 CURVE SMOOTH",
"470 455 OFFCURVE",
"463 459 OFFCURVE",
"455 463 CURVE SMOOTH",
"431 478 OFFCURVE",
"405 485 OFFCURVE",
"381 490 CURVE",
"368 489 OFFCURVE",
"359 488 OFFCURVE",
"350 485 CURVE SMOOTH",
"343 484 OFFCURVE",
"335 482 OFFCURVE",
"329 476 CURVE",
"325 469 OFFCURVE",
"322 463 OFFCURVE",
"319 457 CURVE",
"308 429 LINE",
"307 424 OFFCURVE",
"307 419 OFFCURVE",
"312 412 CURVE",
"320 408 OFFCURVE",
"328 404 OFFCURVE",
"336 401 CURVE SMOOTH",
"346 399 OFFCURVE",
"357 397 OFFCURVE",
"367 400 CURVE",
"374 399 OFFCURVE",
"379 397 OFFCURVE",
"385 396 CURVE SMOOTH",
"392 393 OFFCURVE",
"400 397 OFFCURVE",
"407 392 CURVE",
"405 381 OFFCURVE",
"413 369 OFFCURVE",
"412 358 CURVE SMOOTH",
"411 346 OFFCURVE",
"412 334 OFFCURVE",
"412 322 CURVE",
"414 309 OFFCURVE",
"422 299 OFFCURVE",
"422 285 CURVE",
"415 281 OFFCURVE",
"407 283 OFFCURVE",
"400 281 CURVE",
"390 276 OFFCURVE",
"379 275 OFFCURVE",
"368 275 CURVE",
"365 274 OFFCURVE",
"360 275 OFFCURVE",
"355 274 CURVE SMOOTH",
"347 273 OFFCURVE",
"338 273 OFFCURVE",
"330 269 CURVE SMOOTH",
"317 265 OFFCURVE",
"305 261 OFFCURVE",
"293 253 CURVE",
"292 250 OFFCURVE",
"290 246 OFFCURVE",
"290 243 CURVE",
"289 230 OFFCURVE",
"289 215 OFFCURVE",
"284 202 CURVE SMOOTH",
"282 195 OFFCURVE",
"284 189 OFFCURVE",
"286 183 CURVE SMOOTH",
"289 178 OFFCURVE",
"292 174 OFFCURVE",
"294 169 CURVE",
"301 168 OFFCURVE",
"308 167 OFFCURVE",
"314 166 CURVE",
"320 163 OFFCURVE",
"325 160 OFFCURVE",
"331 156 CURVE",
"339 153 OFFCURVE",
"346 148 OFFCURVE",
"357 147 CURVE",
"366 150 OFFCURVE",
"377 153 OFFCURVE",
"391 156 CURVE",
"398 155 OFFCURVE",
"408 154 OFFCURVE",
"417 152 CURVE",
"431 154 OFFCURVE",
"445 155 OFFCURVE",
"459 158 CURVE",
"462 159 OFFCURVE",
"466 162 OFFCURVE",
"467 167 CURVE SMOOTH",
"469 174 OFFCURVE",
"470 182 OFFCURVE",
"473 189 CURVE SMOOTH",
"475 194 OFFCURVE",
"478 200 OFFCURVE",
"485 201 CURVE",
"490 201 OFFCURVE",
"493 201 OFFCURVE",
"498 200 CURVE",
"500 202 OFFCURVE",
"504 205 OFFCURVE",
"504 207 CURVE",
"511 222 OFFCURVE",
"516 237 OFFCURVE",
"522 251 CURVE",
"522 266 OFFCURVE",
"523 279 OFFCURVE",
"523 293 CURVE",
"527 297 OFFCURVE",
"529 300 OFFCURVE",
"532 304 CURVE"
);
}
);
width = 742;
}
);
unicode = 00D0;
},
{
glyphname = E;
lastChange = "2020-11-04 23:12:10 +0000";
layers = (
{
layerId = master01;
paths = (
{
closed = 1;
nodes = (
"437 477 OFFCURVE",
"432 476 OFFCURVE",
"428 476 CURVE SMOOTH",
"417 476 OFFCURVE",
"407 477 OFFCURVE",
"400 473 CURVE",
"383 476 LINE",
"378 475 OFFCURVE",
"374 474 OFFCURVE",
"368 473 CURVE",
"365 473 OFFCURVE",
"361 474 OFFCURVE",
"357 475 CURVE SMOOTH",
"350 476 OFFCURVE",
"343 476 OFFCURVE",
"336 474 CURVE SMOOTH",
"328 471 OFFCURVE",
"319 470 OFFCURVE",
"309 471 CURVE SMOOTH",
"297 473 OFFCURVE",
"284 469 OFFCURVE",
"273 466 CURVE",
"268 467 OFFCURVE",
"263 468 OFFCURVE",
"260 469 CURVE",
"252 468 OFFCURVE",
"245 463 OFFCURVE",
"237 458 CURVE",
"233 452 OFFCURVE",
"230 445 OFFCURVE",
"225 438 CURVE",
"224 422 OFFCURVE",
"224 405 OFFCURVE",
"223 390 CURVE SMOOTH",
"222 379 OFFCURVE",
"213 375 OFFCURVE",
"213 367 CURVE",
"215 361 OFFCURVE",
"218 359 OFFCURVE",
"224 358 CURVE SMOOTH",
"232 355 OFFCURVE",
"241 355 OFFCURVE",
"251 354 CURVE",
"262 358 OFFCURVE",
"273 362 OFFCURVE",
"282 366 CURVE",
"296 366 OFFCURVE",
"306 366 OFFCURVE",
"317 367 CURVE",
"321 367 OFFCURVE",
"325 367 OFFCURVE",
"329 369 CURVE",
"347 377 OFFCURVE",
"366 375 OFFCURVE",
"385 373 CURVE SMOOTH",
"392 371 OFFCURVE",
"396 367 OFFCURVE",
"398 358 CURVE",
"398 355 OFFCURVE",
"399 352 OFFCURVE",
"400 348 CURVE",
"399 344 OFFCURVE",
"397 338 OFFCURVE",
"397 332 CURVE",
"398 311 OFFCURVE",
"394 289 OFFCURVE",
"396 267 CURVE SMOOTH",
"397 258 OFFCURVE",
"393 248 OFFCURVE",
"389 241 CURVE",
"386 239 LINE",
"378 237 OFFCURVE",
"373 241 OFFCURVE",
"366 241 CURVE SMOOTH",
"358 241 OFFCURVE",
"353 236 OFFCURVE",
"347 233 CURVE",
"337 232 OFFCURVE",
"327 231 OFFCURVE",
"317 233 CURVE SMOOTH",
"311 235 OFFCURVE",
"305 231 OFFCURVE",
"300 229 CURVE",
"288 230 OFFCURVE",
"276 231 OFFCURVE",
"266 237 CURVE",
"258 237 OFFCURVE",
"250 237 OFFCURVE",
"241 236 CURVE SMOOTH",
"232 235 OFFCURVE",
"223 235 OFFCURVE",
"214 236 CURVE SMOOTH",
"207 237 OFFCURVE",
"200 235 OFFCURVE",
"194 230 CURVE SMOOTH",
"191 228 OFFCURVE",
"187 221 OFFCURVE",
"189 217 CURVE",
"194 206 OFFCURVE",
"194 194 OFFCURVE",
"194 183 CURVE",
"195 179 OFFCURVE",
"197 177 OFFCURVE",
"198 174 CURVE",
"197 171 OFFCURVE",
"194 169 OFFCURVE",
"193 166 CURVE",
"191 161 OFFCURVE",
"193 155 OFFCURVE",
"198 154 CURVE SMOOTH",
"214 150 OFFCURVE",
"231 146 OFFCURVE",
"248 143 CURVE",
"252 144 OFFCURVE",
"258 146 OFFCURVE",
"262 146 CURVE SMOOTH",
"281 146 OFFCURVE",
"300 151 OFFCURVE",
"319 151 CURVE SMOOTH",
"323 151 OFFCURVE",
"329 152 OFFCURVE",
"334 151 CURVE SMOOTH",
"345 147 OFFCURVE",
"357 146 OFFCURVE",
"369 146 CURVE SMOOTH",
"377 146 OFFCURVE",
"384 145 OFFCURVE",
"392 144 CURVE",
"397 143 OFFCURVE",
"400 140 OFFCURVE",
"400 136 CURVE",
"398 129 OFFCURVE",
"394 121 OFFCURVE",
"392 116 CURVE",
"391 107 OFFCURVE",
"397 102 OFFCURVE",
"398 97 CURVE",
"396 84 OFFCURVE",
"396 71 OFFCURVE",
"389 62 CURVE",
"389 54 OFFCURVE",
"394 51 OFFCURVE",
"396 46 CURVE",
"393 43 OFFCURVE",
"391 38 OFFCURVE",
"389 33 CURVE",
"391 22 OFFCURVE",
"396 10 OFFCURVE",
"388 -1 CURVE",
"384 -3 OFFCURVE",
"379 -7 OFFCURVE",
"374 -6 CURVE SMOOTH",
"361 -3 OFFCURVE",
"348 -8 OFFCURVE",
"336 -9 CURVE SMOOTH",
"327 -10 OFFCURVE",
"319 -15 OFFCURVE",
"311 -18 CURVE",
"298 -21 OFFCURVE",
"285 -22 OFFCURVE",
"270 -24 CURVE",
"256 -21 LINE",
"250 -22 OFFCURVE",
"243 -23 OFFCURVE",
"235 -24 CURVE",
"208 -18 LINE",
"202 -14 OFFCURVE",
"198 -9 OFFCURVE",
"192 -6 CURVE SMOOTH",
"190 -5 OFFCURVE",
"186 -6 OFFCURVE",
"186 -7 CURVE",
"186 -15 OFFCURVE",
"183 -18 OFFCURVE",
"175 -20 CURVE",
"168 -18 OFFCURVE",
"160 -16 OFFCURVE",
"153 -15 CURVE SMOOTH",
"146 -14 OFFCURVE",
"138 -15 OFFCURVE",
"131 -15 CURVE SMOOTH",
"115 -15 OFFCURVE",
"100 -12 OFFCURVE",
"84 1 CURVE",
"82 5 OFFCURVE",
"79 9 OFFCURVE",
"77 14 CURVE",
"71 17 OFFCURVE",
"67 21 OFFCURVE",
"62 24 CURVE",
"51 30 LINE",
"45 38 OFFCURVE",
"47 45 OFFCURVE",
"46 52 CURVE SMOOTH",
"45 59 OFFCURVE",
"44 66 OFFCURVE",
"43 74 CURVE",
"45 90 OFFCURVE",
"46 106 OFFCURVE",
"45 123 CURVE SMOOTH",
"44 138 OFFCURVE",
"45 153 OFFCURVE",
"51 168 CURVE",
"49 173 OFFCURVE",
"47 177 OFFCURVE",
"47 182 CURVE SMOOTH",
"47 189 OFFCURVE",
"51 195 OFFCURVE",
"49 202 CURVE",
"49 204 OFFCURVE",
"52 206 OFFCURVE",
"53 207 CURVE",
"56 213 OFFCURVE",
"56 214 OFFCURVE",
"51 215 CURVE",
"45 217 OFFCURVE",
"41 220 OFFCURVE",
"41 225 CURVE",
"43 233 OFFCURVE",
"41 241 OFFCURVE",
"41 250 CURVE SMOOTH",
"41 256 OFFCURVE",
"44 263 OFFCURVE",
"41 270 CURVE",
"41 271 OFFCURVE",
"40 274 OFFCURVE",
"41 276 CURVE SMOOTH",
"47 290 OFFCURVE",
"44 304 OFFCURVE",
"40 317 CURVE",
"45 329 OFFCURVE",
"46 340 OFFCURVE",
"46 352 CURVE SMOOTH",
"46 379 LINE",
"47 383 OFFCURVE",
"47 388 OFFCURVE",
"48 391 CURVE SMOOTH",
"54 407 OFFCURVE",
"53 422 OFFCURVE",
"47 437 CURVE",
"46 439 OFFCURVE",
"46 442 OFFCURVE",
"46 443 CURVE",
"49 451 OFFCURVE",
"52 458 OFFCURVE",
"54 466 CURVE SMOOTH",
"57 477 OFFCURVE",
"60 489 OFFCURVE",
"62 500 CURVE",
"62 507 LINE",
"60 514 OFFCURVE",
"62 521 OFFCURVE",
"61 528 CURVE",
"59 535 OFFCURVE",
"61 541 OFFCURVE",
"61 547 CURVE SMOOTH",
"61 552 OFFCURVE",
"60 555 OFFCURVE",
"59 559 CURVE",
"62 568 OFFCURVE",
"72 572 OFFCURVE",
"74 580 CURVE",
"90 591 OFFCURVE",
"107 591 OFFCURVE",
"122 599 CURVE SMOOTH",
"137 607 OFFCURVE",
"153 605 OFFCURVE",
"168 611 CURVE",
"177 608 OFFCURVE",
"185 605 OFFCURVE",
"195 603 CURVE",
"200 603 OFFCURVE",
"206 604 OFFCURVE",
"212 605 CURVE",
"221 604 OFFCURVE",
"229 600 OFFCURVE",
"238 601 CURVE SMOOTH",
"245 603 OFFCURVE",
"252 603 OFFCURVE",
"259 601 CURVE",
"265 601 OFFCURVE",
"270 600 OFFCURVE",
"276 599 CURVE",
"286 606 OFFCURVE",
"297 608 OFFCURVE",
"308 605 CURVE SMOOTH",
"319 601 OFFCURVE",
"329 605 OFFCURVE",
"340 601 CURVE SMOOTH",
"350 598 OFFCURVE",
"360 600 OFFCURVE",
"370 600 CURVE",
"376 601 OFFCURVE",
"382 601 OFFCURVE",
"388 600 CURVE",
"399 597 OFFCURVE",
"412 596 OFFCURVE",
"423 596 CURVE SMOOTH",
"428 596 OFFCURVE",
"432 593 OFFCURVE",
"437 589 CURVE",
"446 553 OFFCURVE",
"448 518 OFFCURVE",
"442 481 CURVE"
);
}
);
width = 486;
}
);
unicode = 0045;
},
{
glyphname = Eacute;
lastChange = "2020-11-04 23:12:10 +0000";
layers = (
{
layerId = master01;
paths = (
{
closed = 1;
nodes = (
"346 764 OFFCURVE",
"345 759 OFFCURVE",
"343 758 CURVE",
"330 749 OFFCURVE",
"324 735 OFFCURVE",
"313 725 CURVE SMOOTH",
"302 714 OFFCURVE",
"292 704 OFFCURVE",
"277 698 CURVE",
"271 695 OFFCURVE",
"265 690 OFFCURVE",
"259 685 CURVE SMOOTH",
"253 682 OFFCURVE",
"246 677 OFFCURVE",
"240 673 CURVE",
"230 674 OFFCURVE",
"220 675 OFFCURVE",
"208 677 CURVE",
"207 677 OFFCURVE",
"205 679 OFFCURVE",
"202 680 CURVE",
"201 681 OFFCURVE",
"199 682 OFFCURVE",
"198 683 CURVE",
"193 688 OFFCURVE",
"195 692 OFFCURVE",
"194 698 CURVE",
"198 707 OFFCURVE",
"205 714 OFFCURVE",
"210 722 CURVE SMOOTH",
"216 729 OFFCURVE",
"223 736 OFFCURVE",
"229 743 CURVE",
"255 819 LINE",
"256 821 OFFCURVE",
"258 823 OFFCURVE",
"258 825 CURVE",
"262 837 OFFCURVE",
"270 844 OFFCURVE",
"283 846 CURVE",
"294 844 OFFCURVE",
"297 833 OFFCURVE",
"302 826 CURVE",
"311 820 OFFCURVE",
"321 821 OFFCURVE",
"329 814 CURVE SMOOTH",
"336 807 OFFCURVE",
"343 800 OFFCURVE",
"347 796 CURVE",
"354 784 OFFCURVE",
"353 775 OFFCURVE",
"347 766 CURVE SMOOTH"
);
},
{
closed = 1;
nodes = (
"435 547 OFFCURVE",
"435 529 OFFCURVE",
"434 511 CURVE",
"434 500 OFFCURVE",
"430 490 OFFCURVE",
"428 481 CURVE SMOOTH",
"427 476 OFFCURVE",
"420 473 OFFCURVE",
"415 473 CURVE SMOOTH",
"405 473 LINE",
"400 471 OFFCURVE",
"394 470 OFFCURVE",
"391 467 CURVE SMOOTH",
"389 465 OFFCURVE",
"386 462 OFFCURVE",
"384 461 CURVE",
"363 466 OFFCURVE",
"363 465 OFFCURVE",
"345 460 CURVE",
"342 462 OFFCURVE",
"337 465 OFFCURVE",
"332 468 CURVE",
"328 467 OFFCURVE",
"324 466 OFFCURVE",
"320 467 CURVE",
"316 467 OFFCURVE",
"312 469 OFFCURVE",
"308 470 CURVE",
"284 468 OFFCURVE",
"261 462 OFFCURVE",
"239 468 CURVE",
"231 467 OFFCURVE",
"229 462 OFFCURVE",
"229 457 CURVE SMOOTH",
"229 446 OFFCURVE",
"224 438 OFFCURVE",
"218 430 CURVE",
"216 419 OFFCURVE",
"217 406 OFFCURVE",
"217 393 CURVE SMOOTH",
"217 390 OFFCURVE",
"220 386 OFFCURVE",
"224 384 CURVE SMOOTH",
"227 383 OFFCURVE",
"228 383 OFFCURVE",
"230 382 CURVE",
"238 382 OFFCURVE",
"245 378 OFFCURVE",
"250 373 CURVE",
"253 369 OFFCURVE",
"256 368 OFFCURVE",
"262 367 CURVE",
"265 368 OFFCURVE",
"267 369 OFFCURVE",
"270 370 CURVE SMOOTH",
"273 371 OFFCURVE",
"276 373 OFFCURVE",
"278 374 CURVE",
"281 374 OFFCURVE",
"283 375 OFFCURVE",
"285 374 CURVE",
"314 366 OFFCURVE",
"343 359 OFFCURVE",
"371 352 CURVE SMOOTH",
"376 351 OFFCURVE",
"381 351 OFFCURVE",
"384 348 CURVE",
"394 344 OFFCURVE",
"405 343 OFFCURVE",
"415 342 CURVE",
"420 340 OFFCURVE",
"421 336 OFFCURVE",
"420 331 CURVE",
"420 315 LINE",
"424 300 OFFCURVE",
"423 284 OFFCURVE",
"422 269 CURVE SMOOTH",
"421 256 OFFCURVE",
"415 247 OFFCURVE",
"405 240 CURVE SMOOTH",
"394 235 OFFCURVE",
"384 229 OFFCURVE",
"376 224 CURVE",
"366 222 OFFCURVE",
"358 229 OFFCURVE",
"348 227 CURVE",
"340 223 OFFCURVE",
"331 228 OFFCURVE",
"323 225 CURVE SMOOTH",
"315 223 OFFCURVE",
"306 225 OFFCURVE",
"298 222 CURVE",
"282 217 OFFCURVE",
"266 217 OFFCURVE",
"251 214 CURVE SMOOTH",
"240 212 OFFCURVE",
"230 209 OFFCURVE",
"218 208 CURVE",
"216 207 OFFCURVE",
"212 202 OFFCURVE",
"212 199 CURVE",
"213 182 OFFCURVE",
"215 166 OFFCURVE",
"216 150 CURVE",
"217 145 OFFCURVE",
"218 141 OFFCURVE",
"221 137 CURVE",
"238 137 OFFCURVE",
"254 132 OFFCURVE",
"273 128 CURVE",
"276 129 OFFCURVE",
"282 130 OFFCURVE",
"286 131 CURVE SMOOTH",
"296 133 OFFCURVE",
"304 132 OFFCURVE",
"311 126 CURVE",
"313 125 OFFCURVE",
"315 126 OFFCURVE",
"319 125 CURVE",
"322 129 OFFCURVE",
"325 132 OFFCURVE",
"330 136 CURVE",
"347 135 OFFCURVE",
"363 124 OFFCURVE",
"382 122 CURVE SMOOTH",
"393 121 OFFCURVE",
"404 130 OFFCURVE",
"415 126 CURVE",
"417 124 OFFCURVE",
"420 123 OFFCURVE",
"420 122 CURVE",
"421 102 OFFCURVE",
"423 83 OFFCURVE",
"419 63 CURVE",
"419 57 OFFCURVE",
"420 53 OFFCURVE",
"421 47 CURVE",
"421 37 OFFCURVE",
"421 26 OFFCURVE",
"423 16 CURVE SMOOTH",
"424 7 OFFCURVE",
"428 -1 OFFCURVE",
"430 -10 CURVE",
"429 -12 OFFCURVE",
"427 -13 OFFCURVE",
"425 -14 CURVE",
"420 -14 OFFCURVE",
"427 -29 OFFCURVE",
"421 -30 CURVE",
"419 -31 OFFCURVE",
"414 -30 OFFCURVE",
"412 -32 CURVE",
"411 -37 OFFCURVE",
"401 -31 OFFCURVE",
"400 -36 CURVE",
"397 -37 OFFCURVE",
"394 -38 OFFCURVE",
"391 -38 CURVE SMOOTH",
"386 -38 OFFCURVE",
"381 -38 OFFCURVE",
"375 -37 CURVE SMOOTH",
"360 -33 OFFCURVE",
"346 -33 OFFCURVE",
"330 -35 CURVE",
"317 -41 OFFCURVE",
"307 -53 OFFCURVE",
"290 -55 CURVE",
"275 -51 OFFCURVE",
"258 -51 OFFCURVE",
"241 -46 CURVE SMOOTH",
"230 -44 OFFCURVE",
"217 -46 OFFCURVE",
"207 -49 CURVE",
"198 -48 OFFCURVE",
"190 -47 OFFCURVE",
"182 -46 CURVE SMOOTH",
"169 -45 OFFCURVE",
"158 -45 OFFCURVE",
"146 -45 CURVE",
"135 -44 OFFCURVE",
"124 -46 OFFCURVE",
"115 -53 CURVE",
"114 -54 OFFCURVE",
"112 -54 OFFCURVE",
"109 -55 CURVE",
"99 -51 OFFCURVE",
"87 -47 OFFCURVE",
"76 -44 CURVE",
"68 -40 OFFCURVE",
"62 -35 OFFCURVE",
"57 -26 CURVE",
"57 1 LINE",
"46 17 LINE",
"46 22 OFFCURVE",
"47 25 OFFCURVE",
"48 30 CURVE SMOOTH",
"51 37 OFFCURVE",
"53 44 OFFCURVE",
"54 51 CURVE",
"54 56 OFFCURVE",
"52 63 OFFCURVE",
"53 69 CURVE",
"53 77 OFFCURVE",
"52 85 OFFCURVE",
"55 93 CURVE",
"56 98 OFFCURVE",
"56 103 OFFCURVE",
"56 109 CURVE SMOOTH",
"56 120 OFFCURVE",
"53 131 OFFCURVE",
"56 143 CURVE SMOOTH",
"59 152 OFFCURVE",
"57 163 OFFCURVE",
"57 174 CURVE",
"57 176 OFFCURVE",
"59 179 OFFCURVE",
"59 183 CURVE",
"60 185 OFFCURVE",
"61 189 OFFCURVE",
"60 192 CURVE SMOOTH",
"55 206 OFFCURVE",
"57 221 OFFCURVE",
"56 235 CURVE SMOOTH",
"55 250 OFFCURVE",
"54 263 OFFCURVE",
"52 278 CURVE SMOOTH",
"51 286 OFFCURVE",
"53 297 OFFCURVE",
"53 309 CURVE",
"51 315 OFFCURVE",
"48 325 OFFCURVE",
"47 336 CURVE",
"48 339 OFFCURVE",
"49 344 OFFCURVE",
"52 347 CURVE",
"49 351 OFFCURVE",
"47 354 OFFCURVE",
"46 358 CURVE",
"45 365 OFFCURVE",
"45 370 OFFCURVE",
"45 376 CURVE SMOOTH",
"45 383 OFFCURVE",
"47 389 OFFCURVE",
"47 394 CURVE SMOOTH",
"47 400 OFFCURVE",
"46 405 OFFCURVE",
"46 411 CURVE",
"47 421 OFFCURVE",
"46 430 OFFCURVE",
"49 440 CURVE SMOOTH",
"53 448 OFFCURVE",
"54 457 OFFCURVE",
"53 465 CURVE",
"51 474 OFFCURVE",
"52 482 OFFCURVE",
"54 490 CURVE",
"54 492 OFFCURVE",
"55 497 OFFCURVE",
"54 499 CURVE SMOOTH",
"51 507 OFFCURVE",
"52 515 OFFCURVE",
"52 523 CURVE SMOOTH",
"52 551 LINE",
"60 566 OFFCURVE",
"74 576 OFFCURVE",
"85 589 CURVE SMOOTH",
"90 593 OFFCURVE",
"97 595 OFFCURVE",
"103 593 CURVE",
"105 593 OFFCURVE",
"107 593 OFFCURVE",
"109 592 CURVE",
"126 601 OFFCURVE",
"144 613 OFFCURVE",
"163 616 CURVE",
"173 616 OFFCURVE",
"181 613 OFFCURVE",
"190 616 CURVE SMOOTH",
"195 619 OFFCURVE",
"202 618 OFFCURVE",
"208 619 CURVE SMOOTH",
"217 620 OFFCURVE",
"224 615 OFFCURVE",
"233 616 CURVE SMOOTH",
"241 618 OFFCURVE",
"251 615 OFFCURVE",
"259 615 CURVE",
"271 614 OFFCURVE",
"278 614 OFFCURVE",
"293 621 CURVE",
"297 622 OFFCURVE",
"301 623 OFFCURVE",
"305 623 CURVE",
"314 622 OFFCURVE",
"322 620 OFFCURVE",
"330 622 CURVE",
"365 615 LINE SMOOTH",
"370 614 OFFCURVE",
"375 613 OFFCURVE",
"381 613 CURVE",
"385 612 OFFCURVE",
"390 612 OFFCURVE",
"393 611 CURVE SMOOTH",
"404 608 OFFCURVE",
"414 605 OFFCURVE",
"423 603 CURVE",
"431 584 OFFCURVE",
"435 578 OFFCURVE",
"435 567 CURVE SMOOTH"
);
}
);
width = 480;
}
);
unicode = 00C9;
},
{
glyphname = Ecircumflex;
lastChange = "2020-11-04 23:12:10 +0000";
layers = (
{
layerId = master01;
paths = (
{
closed = 1;
nodes = (
"405 646 OFFCURVE",
"396 627 OFFCURVE",
"374 619 CURVE",
"367 624 OFFCURVE",
"362 633 OFFCURVE",
"354 636 CURVE",
"350 637 OFFCURVE",
"347 641 OFFCURVE",
"344 643 CURVE",
"336 650 OFFCURVE",
"328 657 OFFCURVE",
"319 664 CURVE SMOOTH",
"304 675 OFFCURVE",
"289 688 OFFCURVE",
"275 700 CURVE",
"270 706 OFFCURVE",
"262 705 OFFCURVE",
"258 700 CURVE",
"250 690 OFFCURVE",
"241 681 OFFCURVE",
"233 670 CURVE SMOOTH",
"225 661 OFFCURVE",
"218 653 OFFCURVE",
"210 644 CURVE",
"204 642 OFFCURVE",
"197 638 OFFCURVE",
"189 636 CURVE",
"175 638 OFFCURVE",
"164 647 OFFCURVE",
"153 656 CURVE SMOOTH",
"143 664 OFFCURVE",
"138 675 OFFCURVE",
"133 688 CURVE",
"132 696 OFFCURVE",
"141 699 OFFCURVE",
"145 707 CURVE",
"148 708 OFFCURVE",
"153 712 OFFCURVE",
"159 714 CURVE SMOOTH",
"169 719 OFFCURVE",
"178 726 OFFCURVE",
"187 734 CURVE",
"194 742 OFFCURVE",
"204 747 OFFCURVE",
"212 753 CURVE SMOOTH",
"224 761 OFFCURVE",
"236 768 OFFCURVE",
"245 779 CURVE SMOOTH",
"253 787 OFFCURVE",
"263 789 OFFCURVE",
"275 792 CURVE",
"282 790 OFFCURVE",
"290 789 OFFCURVE",
"296 784 CURVE SMOOTH",
"306 777 OFFCURVE",
"317 775 OFFCURVE",
"327 773 CURVE",
"330 770 OFFCURVE",
"332 769 OFFCURVE",
"334 768 CURVE",
"345 757 OFFCURVE",
"355 745 OFFCURVE",
"368 733 CURVE",
"373 730 OFFCURVE",
"378 727 OFFCURVE",
"383 725 CURVE",
"392 713 OFFCURVE",
"401 703 OFFCURVE",
"412 691 CURVE",
"415 682 OFFCURVE",
"417 674 OFFCURVE",
"416 664 CURVE"
);
},
{
closed = 1;
nodes = (
"468 463 OFFCURVE",
"463 457 OFFCURVE",
"460 448 CURVE",
"457 447 OFFCURVE",
"453 446 OFFCURVE",
"451 446 CURVE",
"446 446 OFFCURVE",
"442 447 OFFCURVE",
"438 448 CURVE SMOOTH",
"431 451 OFFCURVE",
"424 454 OFFCURVE",
"417 457 CURVE",
"373 446 LINE",
"368 450 OFFCURVE",
"363 452 OFFCURVE",
"359 454 CURVE",
"354 453 OFFCURVE",
"350 451 OFFCURVE",
"344 448 CURVE",
"330 455 LINE",
"319 457 OFFCURVE",
"309 451 OFFCURVE",
"297 447 CURVE",
"275 448 OFFCURVE",
"252 443 OFFCURVE",
"230 436 CURVE",
"228 436 OFFCURVE",
"227 434 OFFCURVE",
"224 432 CURVE",
"222 423 OFFCURVE",
"220 415 OFFCURVE",
"222 406 CURVE SMOOTH",
"223 402 OFFCURVE",
"223 399 OFFCURVE",
"222 397 CURVE SMOOTH",
"217 385 OFFCURVE",
"220 374 OFFCURVE",
"220 362 CURVE",
"222 359 OFFCURVE",
"224 355 OFFCURVE",
"228 352 CURVE SMOOTH",
"235 345 OFFCURVE",
"238 344 OFFCURVE",
"246 350 CURVE",
"248 351 OFFCURVE",
"250 352 OFFCURVE",
"252 353 CURVE",
"253 354 OFFCURVE",
"254 354 OFFCURVE",
"255 354 CURVE",
"262 353 OFFCURVE",
"262 345 OFFCURVE",
"269 339 CURVE",
"270 338 OFFCURVE",
"275 337 OFFCURVE",
"278 335 CURVE",
"285 332 OFFCURVE",
"293 331 OFFCURVE",
"300 334 CURVE SMOOTH",
"304 335 OFFCURVE",
"307 335 OFFCURVE",
"309 334 CURVE",
"320 331 OFFCURVE",
"329 332 OFFCURVE",
"338 336 CURVE SMOOTH",
"344 338 OFFCURVE",
"351 338 OFFCURVE",
"357 340 CURVE",
"363 342 OFFCURVE",
"369 342 OFFCURVE",
"376 342 CURVE",
"385 340 OFFCURVE",
"394 340 OFFCURVE",
"405 340 CURVE",
"406 339 OFFCURVE",
"409 337 OFFCURVE",
"409 334 CURVE",
"411 320 OFFCURVE",
"405 316 OFFCURVE",
"415 307 CURVE",
"415 304 LINE",
"412 301 OFFCURVE",
"419 289 OFFCURVE",
"415 285 CURVE",
"417 278 OFFCURVE",
"420 273 OFFCURVE",
"423 266 CURVE",
"420 255 OFFCURVE",
"416 246 OFFCURVE",
"416 236 CURVE",
"417 231 OFFCURVE",
"420 228 OFFCURVE",
"422 224 CURVE",
"420 220 OFFCURVE",
"419 216 OFFCURVE",
"417 213 CURVE",
"411 207 OFFCURVE",
"402 204 OFFCURVE",
"394 202 CURVE SMOOTH",
"386 201 OFFCURVE",
"379 199 OFFCURVE",
"371 199 CURVE",
"365 198 OFFCURVE",
"357 195 OFFCURVE",
"350 195 CURVE",
"314 197 OFFCURVE",
"278 197 OFFCURVE",
"244 197 CURVE SMOOTH",
"239 197 OFFCURVE",
"235 198 OFFCURVE",
"231 198 CURVE",
"225 194 OFFCURVE",
"224 190 OFFCURVE",
"225 184 CURVE SMOOTH",
"227 178 OFFCURVE",
"228 173 OFFCURVE",
"230 167 CURVE",
"227 155 OFFCURVE",
"223 145 OFFCURVE",
"221 135 CURVE",
"222 123 OFFCURVE",
"223 113 OFFCURVE",
"228 103 CURVE",
"229 100 OFFCURVE",
"233 98 OFFCURVE",
"238 100 CURVE SMOOTH",
"240 101 OFFCURVE",
"244 102 OFFCURVE",
"247 105 CURVE",
"265 98 LINE",
"273 103 OFFCURVE",
"279 108 OFFCURVE",
"288 114 CURVE",
"298 117 LINE",
"305 116 OFFCURVE",
"312 115 OFFCURVE",
"319 114 CURVE SMOOTH",
"331 112 OFFCURVE",
"344 110 OFFCURVE",
"358 113 CURVE SMOOTH",
"367 115 OFFCURVE",
"376 114 OFFCURVE",
"384 108 CURVE",
"391 110 OFFCURVE",
"396 113 OFFCURVE",
"400 113 CURVE",
"408 114 OFFCURVE",
"415 113 OFFCURVE",
"422 113 CURVE",
"432 109 OFFCURVE",
"438 101 OFFCURVE",
"445 97 CURVE",
"447 91 OFFCURVE",
"443 89 OFFCURVE",
"442 81 CURVE",
"442 76 OFFCURVE",
"443 68 OFFCURVE",
"443 60 CURVE",
"444 54 OFFCURVE",
"445 47 OFFCURVE",
"445 41 CURVE",
"444 30 OFFCURVE",
"445 18 OFFCURVE",
"450 8 CURVE SMOOTH",
"452 2 OFFCURVE",
"452 -5 OFFCURVE",
"450 -12 CURVE",
"442 -20 OFFCURVE",
"425 -16 OFFCURVE",
"424 -30 CURVE",
"409 -33 OFFCURVE",
"397 -33 OFFCURVE",
"383 -31 CURVE",
"379 -33 OFFCURVE",
"376 -36 OFFCURVE",
"373 -37 CURVE SMOOTH",
"369 -38 OFFCURVE",
"367 -39 OFFCURVE",
"365 -39 CURVE",
"357 -39 OFFCURVE",
"354 -33 OFFCURVE",
"350 -31 CURVE",
"347 -31 LINE",
"340 -36 OFFCURVE",
"335 -39 OFFCURVE",
"328 -44 CURVE",
"320 -45 OFFCURVE",
"313 -46 OFFCURVE",
"304 -47 CURVE",
"302 -47 LINE",
"302 -47 OFFCURVE",
"299 -44 OFFCURVE",
"296 -41 CURVE",
"284 -41 OFFCURVE",
"273 -41 OFFCURVE",
"261 -43 CURVE SMOOTH",
"251 -44 OFFCURVE",
"239 -38 OFFCURVE",
"230 -44 CURVE",
"223 -41 OFFCURVE",
"217 -38 OFFCURVE",
"212 -38 CURVE SMOOTH",
"202 -38 OFFCURVE",
"194 -37 OFFCURVE",
"186 -36 CURVE",
"174 -41 OFFCURVE",
"161 -33 OFFCURVE",
"148 -38 CURVE",
"144 -40 OFFCURVE",
"138 -38 OFFCURVE",
"132 -37 CURVE",
"129 -36 OFFCURVE",
"124 -36 OFFCURVE",
"118 -36 CURVE",
"107 -29 OFFCURVE",
"92 -22 OFFCURVE",
"78 -17 CURVE",
"75 -13 OFFCURVE",
"71 -8 OFFCURVE",
"69 -5 CURVE",
"61 -1 OFFCURVE",
"55 -5 OFFCURVE",
"48 -5 CURVE",
"47 -3 OFFCURVE",
"44 -1 OFFCURVE",
"43 1 CURVE",
"41 5 OFFCURVE",
"40 7 OFFCURVE",
"40 10 CURVE",
"41 33 OFFCURVE",
"39 55 OFFCURVE",
"44 78 CURVE",
"43 83 OFFCURVE",
"41 89 OFFCURVE",
"41 91 CURVE",
"43 103 OFFCURVE",
"45 113 OFFCURVE",
"46 123 CURVE",
"47 128 OFFCURVE",
"49 131 OFFCURVE",
"52 133 CURVE",
"52 136 OFFCURVE",
"52 138 OFFCURVE",
"51 139 CURVE",
"43 159 OFFCURVE",
"43 178 OFFCURVE",
"46 198 CURVE SMOOTH",
"47 207 OFFCURVE",
"49 215 OFFCURVE",
"48 225 CURVE",
"47 230 OFFCURVE",
"49 235 OFFCURVE",
"51 240 CURVE",
"49 243 OFFCURVE",
"47 245 OFFCURVE",
"45 247 CURVE",
"44 250 OFFCURVE",
"43 252 OFFCURVE",
"43 253 CURVE",
"46 265 OFFCURVE",
"41 277 OFFCURVE",
"43 290 CURVE SMOOTH",
"44 300 OFFCURVE",
"45 312 OFFCURVE",
"46 323 CURVE",
"46 328 OFFCURVE",
"46 331 OFFCURVE",
"47 336 CURVE",
"55 355 OFFCURVE",
"53 376 OFFCURVE",
"55 397 CURVE SMOOTH",
"56 404 OFFCURVE",
"54 412 OFFCURVE",
"53 416 CURVE",
"55 422 OFFCURVE",
"59 422 OFFCURVE",
"61 423 CURVE",
"62 425 OFFCURVE",
"63 428 OFFCURVE",
"63 429 CURVE",
"61 437 OFFCURVE",
"60 445 OFFCURVE",
"60 454 CURVE SMOOTH",
"60 460 OFFCURVE",
"61 466 OFFCURVE",
"63 471 CURVE SMOOTH",
"68 483 OFFCURVE",
"71 500 OFFCURVE",
"71 511 CURVE",
"72 527 OFFCURVE",
"72 542 OFFCURVE",
"72 557 CURVE SMOOTH",
"72 562 OFFCURVE",
"74 567 OFFCURVE",
"75 573 CURVE",
"76 576 OFFCURVE",
"79 581 OFFCURVE",
"83 582 CURVE SMOOTH",
"94 587 OFFCURVE",
"103 591 OFFCURVE",
"114 597 CURVE",
"118 600 OFFCURVE",
"124 600 OFFCURVE",
"130 603 CURVE",
"133 600 OFFCURVE",
"137 598 OFFCURVE",
"141 596 CURVE",
"155 598 OFFCURVE",
"170 600 OFFCURVE",
"185 603 CURVE SMOOTH",
"197 605 OFFCURVE",
"208 606 OFFCURVE",
"220 603 CURVE",
"222 601 OFFCURVE",
"225 600 OFFCURVE",
"229 600 CURVE SMOOTH",
"244 600 OFFCURVE",
"259 599 OFFCURVE",
"274 596 CURVE",
"277 595 OFFCURVE",
"282 595 OFFCURVE",
"286 596 CURVE",
"291 596 OFFCURVE",
"297 597 OFFCURVE",
"301 598 CURVE",
"307 596 OFFCURVE",
"312 593 OFFCURVE",
"316 591 CURVE",
"323 591 LINE SMOOTH",
"328 591 OFFCURVE",
"334 593 OFFCURVE",
"338 592 CURVE SMOOTH",
"351 590 OFFCURVE",
"363 591 OFFCURVE",
"376 592 CURVE SMOOTH",
"385 593 OFFCURVE",
"393 592 OFFCURVE",
"402 592 CURVE SMOOTH",
"408 592 OFFCURVE",
"415 593 OFFCURVE",
"424 595 CURVE",
"429 593 OFFCURVE",
"436 592 OFFCURVE",
"443 590 CURVE",
"448 587 OFFCURVE",
"455 591 OFFCURVE",
"462 587 CURVE",
"462 581 OFFCURVE",
"463 575 OFFCURVE",
"465 569 CURVE SMOOTH",
"469 553 OFFCURVE",
"470 537 OFFCURVE",
"466 520 CURVE",
"462 512 OFFCURVE",
"462 501 OFFCURVE",
"461 491 CURVE",
"463 485 OFFCURVE",
"466 478 OFFCURVE",
"468 473 CURVE"
);
}
);
width = 509;
}
);
unicode = 00CA;
},
{
glyphname = Edieresis;
lastChange = "2020-11-04 23:12:10 +0000";
layers = (
{
layerId = master01;
paths = (
{
closed = 1;
nodes = (
"429 675 OFFCURVE",
"425 667 OFFCURVE",
"416 664 CURVE SMOOTH",
"408 660 OFFCURVE",
"402 654 OFFCURVE",
"398 647 CURVE SMOOTH",
"393 641 OFFCURVE",
"386 638 OFFCURVE",
"378 637 CURVE SMOOTH",
"369 636 OFFCURVE",
"360 637 OFFCURVE",
"351 642 CURVE SMOOTH",
"343 645 OFFCURVE",
"336 649 OFFCURVE",
"328 653 CURVE",
"315 659 OFFCURVE",
"308 669 OFFCURVE",
"305 682 CURVE SMOOTH",
"302 690 OFFCURVE",
"302 699 OFFCURVE",
"304 707 CURVE SMOOTH",
"305 714 OFFCURVE",
"306 722 OFFCURVE",
"308 729 CURVE SMOOTH",
"312 742 OFFCURVE",
"320 750 OFFCURVE",
"330 756 CURVE",
"338 759 OFFCURVE",
"346 761 OFFCURVE",
"355 764 CURVE",
"370 765 OFFCURVE",
"383 765 OFFCURVE",
"396 764 CURVE",
"412 752 OFFCURVE",
"420 736 OFFCURVE",
"427 720 CURVE",
"430 707 OFFCURVE",
"430 696 OFFCURVE",
"429 684 CURVE"
);
},
{
closed = 1;
nodes = (
"209 688 OFFCURVE",
"205 680 OFFCURVE",
"200 669 CURVE",
"185 654 OFFCURVE",
"167 644 OFFCURVE",
"144 641 CURVE",
"135 642 OFFCURVE",
"124 643 OFFCURVE",
"113 645 CURVE",
"109 647 OFFCURVE",
"105 651 OFFCURVE",
"100 654 CURVE",
"98 659 OFFCURVE",
"95 666 OFFCURVE",
"93 672 CURVE SMOOTH",
"91 676 OFFCURVE",
"89 681 OFFCURVE",
"86 684 CURVE",
"87 697 OFFCURVE",
"93 706 OFFCURVE",
"93 716 CURVE SMOOTH",
"93 720 OFFCURVE",
"92 723 OFFCURVE",
"92 728 CURVE",
"98 738 OFFCURVE",
"107 747 OFFCURVE",
"113 759 CURVE",
"120 762 OFFCURVE",
"125 766 OFFCURVE",
"132 769 CURVE",
"154 772 OFFCURVE",
"175 773 OFFCURVE",
"194 762 CURVE",
"217 745 OFFCURVE",
"220 722 OFFCURVE",
"214 695 CURVE"
);
},
{
closed = 1;
nodes = (
"451 20 OFFCURVE",
"448 14 OFFCURVE",
"447 7 CURVE SMOOTH",
"446 2 OFFCURVE",
"446 -2 OFFCURVE",
"446 -7 CURVE",
"439 -15 OFFCURVE",
"434 -22 OFFCURVE",
"427 -29 CURVE",
"423 -30 OFFCURVE",
"421 -31 OFFCURVE",
"417 -31 CURVE",
"400 -32 OFFCURVE",
"383 -32 OFFCURVE",
"366 -32 CURVE",
"346 -31 OFFCURVE",
"325 -30 OFFCURVE",
"306 -36 CURVE",
"294 -32 OFFCURVE",
"283 -38 OFFCURVE",
"270 -35 CURVE SMOOTH",
"265 -33 OFFCURVE",
"258 -33 OFFCURVE",
"252 -35 CURVE SMOOTH",
"244 -36 OFFCURVE",
"237 -37 OFFCURVE",
"230 -36 CURVE SMOOTH",
"224 -35 OFFCURVE",
"218 -36 OFFCURVE",
"214 -36 CURVE",
"192 -39 OFFCURVE",
"171 -39 OFFCURVE",
"150 -36 CURVE SMOOTH",
"138 -33 OFFCURVE",
"126 -32 OFFCURVE",
"116 -30 CURVE",
"102 -22 LINE",
"92 -21 OFFCURVE",
"83 -26 OFFCURVE",
"72 -23 CURVE",
"71 -21 OFFCURVE",
"68 -20 OFFCURVE",
"67 -16 CURVE",
"61 -6 OFFCURVE",
"55 6 OFFCURVE",
"56 18 CURVE",
"56 22 OFFCURVE",
"55 25 OFFCURVE",
"54 28 CURVE SMOOTH",
"51 35 OFFCURVE",
"49 41 OFFCURVE",
"51 49 CURVE",
"51 99 LINE SMOOTH",
"51 105 OFFCURVE",
"51 112 OFFCURVE",
"53 117 CURVE",
"54 118 OFFCURVE",
"55 121 OFFCURVE",
"54 123 CURVE",
"54 129 OFFCURVE",
"55 133 OFFCURVE",
"54 138 CURVE",
"52 144 OFFCURVE",
"53 148 OFFCURVE",
"54 154 CURVE",
"54 159 OFFCURVE",
"54 164 OFFCURVE",
"53 169 CURVE",
"47 184 OFFCURVE",
"51 200 OFFCURVE",
"45 215 CURVE",
"44 229 OFFCURVE",
"44 244 OFFCURVE",
"43 259 CURVE",
"43 261 OFFCURVE",
"43 265 OFFCURVE",
"41 267 CURVE",
"36 282 OFFCURVE",
"37 296 OFFCURVE",
"39 311 CURVE",
"36 329 OFFCURVE",
"44 347 OFFCURVE",
"44 366 CURVE SMOOTH",
"44 369 OFFCURVE",
"44 373 OFFCURVE",
"45 375 CURVE SMOOTH",
"52 391 OFFCURVE",
"49 409 OFFCURVE",
"52 427 CURVE",
"52 430 OFFCURVE",
"51 432 OFFCURVE",
"51 436 CURVE",
"52 442 OFFCURVE",
"52 446 OFFCURVE",
"53 451 CURVE SMOOTH",
"56 473 OFFCURVE",
"61 494 OFFCURVE",
"64 515 CURVE",
"63 532 OFFCURVE",
"69 549 OFFCURVE",
"70 565 CURVE",
"70 569 OFFCURVE",
"72 575 OFFCURVE",
"74 580 CURVE SMOOTH",
"77 590 OFFCURVE",
"83 596 OFFCURVE",
"94 595 CURVE",
"105 595 OFFCURVE",
"112 601 OFFCURVE",
"122 604 CURVE",
"123 603 OFFCURVE",
"125 603 OFFCURVE",
"128 601 CURVE",
"137 593 OFFCURVE",
"147 595 OFFCURVE",
"158 599 CURVE",
"167 597 OFFCURVE",
"176 593 OFFCURVE",
"184 591 CURVE",
"191 591 LINE",
"209 596 OFFCURVE",
"228 595 OFFCURVE",
"245 600 CURVE SMOOTH",
"248 601 OFFCURVE",
"253 600 OFFCURVE",
"258 600 CURVE SMOOTH",
"262 600 OFFCURVE",
"266 599 OFFCURVE",
"270 599 CURVE SMOOTH",
"277 599 OFFCURVE",
"283 600 OFFCURVE",
"290 600 CURVE",
"294 599 OFFCURVE",
"299 597 OFFCURVE",
"304 596 CURVE",
"315 598 OFFCURVE",
"320 607 OFFCURVE",
"330 612 CURVE",
"355 615 OFFCURVE",
"382 612 OFFCURVE",
"404 603 CURVE",
"416 604 OFFCURVE",
"422 616 OFFCURVE",
"435 612 CURVE",
"442 606 OFFCURVE",
"446 597 OFFCURVE",
"451 588 CURVE",
"453 578 OFFCURVE",
"454 568 OFFCURVE",
"452 560 CURVE SMOOTH",
"448 549 OFFCURVE",
"451 537 OFFCURVE",
"448 527 CURVE",
"445 516 OFFCURVE",
"447 506 OFFCURVE",
"451 496 CURVE SMOOTH",
"454 486 OFFCURVE",
"452 480 OFFCURVE",
"444 474 CURVE",
"442 473 OFFCURVE",
"438 470 OFFCURVE",
"435 469 CURVE",
"419 473 OFFCURVE",
"401 473 OFFCURVE",
"385 468 CURVE SMOOTH",
"374 465 OFFCURVE",
"361 465 OFFCURVE",
"350 463 CURVE",
"346 463 OFFCURVE",
"342 465 OFFCURVE",
"337 465 CURVE",
"331 462 OFFCURVE",
"325 459 OFFCURVE",
"320 457 CURVE",
"314 455 OFFCURVE",
"307 454 OFFCURVE",
"301 453 CURVE SMOOTH",
"293 452 OFFCURVE",
"286 451 OFFCURVE",
"278 450 CURVE SMOOTH",
"267 447 OFFCURVE",
"255 446 OFFCURVE",
"244 451 CURVE SMOOTH",
"237 454 OFFCURVE",
"229 453 OFFCURVE",
"222 451 CURVE",
"220 450 OFFCURVE",
"218 447 OFFCURVE",
"216 446 CURVE",
"216 444 OFFCURVE",
"215 440 OFFCURVE",
"215 438 CURVE",
"215 425 OFFCURVE",
"214 413 OFFCURVE",
"209 401 CURVE SMOOTH",
"208 398 OFFCURVE",
"208 393 OFFCURVE",
"209 389 CURVE",
"209 384 OFFCURVE",
"212 381 OFFCURVE",
"216 379 CURVE",
"225 375 OFFCURVE",
"236 371 OFFCURVE",
"246 371 CURVE SMOOTH",
"254 371 OFFCURVE",
"261 374 OFFCURVE",
"271 375 CURVE",
"277 375 OFFCURVE",
"285 373 OFFCURVE",
"293 371 CURVE",
"302 371 OFFCURVE",
"311 367 OFFCURVE",
"319 365 CURVE SMOOTH",
"329 362 OFFCURVE",
"339 361 OFFCURVE",
"350 360 CURVE",
"355 360 OFFCURVE",
"359 365 OFFCURVE",
"363 367 CURVE SMOOTH",
"369 370 OFFCURVE",
"376 371 OFFCURVE",
"382 371 CURVE SMOOTH",
"392 371 OFFCURVE",
"404 370 OFFCURVE",
"414 370 CURVE",
"417 368 OFFCURVE",
"417 365 OFFCURVE",
"416 362 CURVE",
"414 352 OFFCURVE",
"420 344 OFFCURVE",
"420 335 CURVE",
"419 329 OFFCURVE",
"420 322 OFFCURVE",
"420 316 CURVE",
"416 293 OFFCURVE",
"416 292 OFFCURVE",
"421 267 CURVE SMOOTH",
"422 260 OFFCURVE",
"419 254 OFFCURVE",
"414 251 CURVE SMOOTH",
"407 246 OFFCURVE",
"401 243 OFFCURVE",
"394 239 CURVE",
"392 240 OFFCURVE",
"390 233 OFFCURVE",
"388 235 CURVE",
"384 237 OFFCURVE",
"377 235 OFFCURVE",
"374 232 CURVE SMOOTH",
"365 225 OFFCURVE",
"367 227 OFFCURVE",
"359 218 CURVE",
"350 215 OFFCURVE",
"340 213 OFFCURVE",
"329 214 CURVE SMOOTH",
"322 215 OFFCURVE",
"316 212 OFFCURVE",
"311 208 CURVE",
"302 208 OFFCURVE",
"294 210 OFFCURVE",
"285 208 CURVE SMOOTH",
"278 207 OFFCURVE",
"270 209 OFFCURVE",
"263 210 CURVE",
"255 210 OFFCURVE",
"246 212 OFFCURVE",
"239 213 CURVE",
"233 210 OFFCURVE",
"230 207 OFFCURVE",
"231 204 CURVE",
"235 187 OFFCURVE",
"232 170 OFFCURVE",
"239 154 CURVE",
"238 150 OFFCURVE",
"236 145 OFFCURVE",
"235 139 CURVE SMOOTH",
"233 133 OFFCURVE",
"235 128 OFFCURVE",
"243 123 CURVE",
"253 123 OFFCURVE",
"265 122 OFFCURVE",
"277 122 CURVE SMOOTH",
"290 122 OFFCURVE",
"302 122 OFFCURVE",
"315 117 CURVE SMOOTH",
"321 115 OFFCURVE",
"328 116 OFFCURVE",
"334 117 CURVE SMOOTH",
"338 118 OFFCURVE",
"342 120 OFFCURVE",
"345 121 CURVE",
"354 118 OFFCURVE",
"355 109 OFFCURVE",
"362 106 CURVE",
"368 105 OFFCURVE",
"373 108 OFFCURVE",
"377 109 CURVE SMOOTH",
"383 110 OFFCURVE",
"388 112 OFFCURVE",
"393 113 CURVE",
"405 116 OFFCURVE",
"416 116 OFFCURVE",
"428 112 CURVE SMOOTH",
"432 109 OFFCURVE",
"437 108 OFFCURVE",
"444 107 CURVE",
"448 93 OFFCURVE",
"444 82 OFFCURVE",
"446 69 CURVE",
"455 56 OFFCURVE",
"452 40 OFFCURVE",
"454 26 CURVE"
);
}
);
width = 491;
}
);
unicode = 00CB;
},
{
glyphname = Egrave;
lastChange = "2020-11-04 23:12:10 +0000";
layers = (
{
layerId = master01;
paths = (
{
closed = 1;
nodes = (
"325 668 OFFCURVE",
"315 658 OFFCURVE",
"301 652 CURVE SMOOTH",
"296 650 OFFCURVE",
"290 645 OFFCURVE",
"285 642 CURVE",
"277 644 OFFCURVE",
"279 653 OFFCURVE",
"274 660 CURVE",
"239 685 OFFCURVE",
"205 715 OFFCURVE",
"173 747 CURVE",
"170 760 OFFCURVE",
"170 760 OFFCURVE",
"181 784 CURVE",
"184 789 OFFCURVE",
"189 791 OFFCURVE",
"194 792 CURVE",
"202 796 OFFCURVE",
"210 798 OFFCURVE",
"215 806 CURVE",
"216 807 OFFCURVE",
"218 810 OFFCURVE",
"220 810 CURVE",
"251 827 LINE",
"252 828 OFFCURVE",
"255 827 OFFCURVE",
"256 826 CURVE",
"268 808 OFFCURVE",
"277 789 OFFCURVE",
"285 769 CURVE",
"286 750 OFFCURVE",
"298 736 OFFCURVE",
"313 725 CURVE",
"313 723 OFFCURVE",
"314 722 OFFCURVE",
"316 720 CURVE",
"319 711 OFFCURVE",
"327 702 OFFCURVE",
"335 692 CURVE SMOOTH",
"337 690 OFFCURVE",
"337 684 OFFCURVE",
"335 681 CURVE SMOOTH"
);
},
{
closed = 1;
nodes = (
"421 64 OFFCURVE",
"421 49 OFFCURVE",
"421 36 CURVE",
"420 24 OFFCURVE",
"422 13 OFFCURVE",
"413 2 CURVE",
"413 -1 OFFCURVE",
"414 -6 OFFCURVE",
"414 -9 CURVE SMOOTH",
"414 -13 OFFCURVE",
"409 -16 OFFCURVE",
"407 -16 CURVE",
"398 -14 OFFCURVE",
"389 -16 OFFCURVE",
"379 -18 CURVE",
"366 -15 LINE",
"352 -22 LINE",
"345 -21 OFFCURVE",
"337 -18 OFFCURVE",
"330 -22 CURVE SMOOTH",
"328 -23 OFFCURVE",
"323 -23 OFFCURVE",
"321 -22 CURVE",
"316 -21 OFFCURVE",
"312 -20 OFFCURVE",
"308 -21 CURVE SMOOTH",
"299 -24 OFFCURVE",
"291 -21 OFFCURVE",
"283 -20 CURVE",
"270 -24 OFFCURVE",
"256 -23 OFFCURVE",
"247 -28 CURVE",
"239 -29 OFFCURVE",
"236 -23 OFFCURVE",
"229 -22 CURVE",
"209 -24 OFFCURVE",
"189 -26 OFFCURVE",
"167 -24 CURVE",
"143 -35 LINE",
"126 -39 OFFCURVE",
"109 -37 OFFCURVE",
"92 -37 CURVE",
"87 -38 OFFCURVE",
"82 -36 OFFCURVE",
"77 -35 CURVE SMOOTH",
"55 -30 OFFCURVE",
"47 -8 OFFCURVE",
"48 6 CURVE SMOOTH",
"49 40 OFFCURVE",
"49 45 OFFCURVE",
"44 74 CURVE",
"44 76 LINE",
"45 78 OFFCURVE",
"46 81 OFFCURVE",
"47 82 CURVE",
"47 84 OFFCURVE",
"48 85 OFFCURVE",
"49 89 CURVE",
"48 91 OFFCURVE",
"47 93 OFFCURVE",
"46 97 CURVE",
"48 107 OFFCURVE",
"57 113 OFFCURVE",
"63 122 CURVE",
"61 126 OFFCURVE",
"57 132 OFFCURVE",
"55 137 CURVE",
"53 146 OFFCURVE",
"57 152 OFFCURVE",
"59 159 CURVE",
"59 164 OFFCURVE",
"55 169 OFFCURVE",
"53 175 CURVE",
"54 190 OFFCURVE",
"52 206 OFFCURVE",
"52 224 CURVE",
"54 230 OFFCURVE",
"57 238 OFFCURVE",
"61 245 CURVE SMOOTH",
"64 252 OFFCURVE",
"60 254 OFFCURVE",
"64 262 CURVE",
"59 270 OFFCURVE",
"62 279 OFFCURVE",
"59 284 CURVE",
"57 297 OFFCURVE",
"60 298 OFFCURVE",
"60 311 CURVE",
"56 312 OFFCURVE",
"57 323 OFFCURVE",
"54 325 CURVE",
"51 330 OFFCURVE",
"55 335 OFFCURVE",
"55 339 CURVE SMOOTH",
"55 344 OFFCURVE",
"56 348 OFFCURVE",
"56 352 CURVE SMOOTH",
"56 360 OFFCURVE",
"60 368 OFFCURVE",
"57 377 CURVE SMOOTH",
"55 384 OFFCURVE",
"60 393 OFFCURVE",
"57 401 CURVE",
"55 405 OFFCURVE",
"57 409 OFFCURVE",
"57 414 CURVE",
"59 428 OFFCURVE",
"63 442 OFFCURVE",
"61 457 CURVE",
"61 462 LINE",
"68 478 OFFCURVE",
"68 496 OFFCURVE",
"74 511 CURVE SMOOTH",
"78 522 OFFCURVE",
"81 535 OFFCURVE",
"82 547 CURVE",
"82 557 OFFCURVE",
"86 566 OFFCURVE",
"94 574 CURVE",
"100 576 OFFCURVE",
"108 580 OFFCURVE",
"113 581 CURVE",
"122 581 OFFCURVE",
"126 580 OFFCURVE",
"132 581 CURVE SMOOTH",
"158 585 OFFCURVE",
"183 584 OFFCURVE",
"209 584 CURVE SMOOTH",
"224 584 OFFCURVE",
"239 583 OFFCURVE",
"254 587 CURVE",
"263 588 OFFCURVE",
"273 584 OFFCURVE",
"282 588 CURVE",
"305 584 OFFCURVE",
"327 591 OFFCURVE",
"350 591 CURVE",
"352 591 OFFCURVE",
"355 592 OFFCURVE",
"359 593 CURVE SMOOTH",
"371 598 OFFCURVE",
"384 596 OFFCURVE",
"396 588 CURVE",
"399 588 OFFCURVE",
"404 589 OFFCURVE",
"407 589 CURVE",
"414 588 OFFCURVE",
"417 584 OFFCURVE",
"417 578 CURVE",
"415 567 OFFCURVE",
"416 555 OFFCURVE",
"417 545 CURVE SMOOTH",
"420 534 OFFCURVE",
"420 522 OFFCURVE",
"416 511 CURVE",
"415 509 OFFCURVE",
"415 507 OFFCURVE",
"415 505 CURVE",
"417 501 OFFCURVE",
"420 498 OFFCURVE",
"423 496 CURVE",
"424 488 OFFCURVE",
"417 482 OFFCURVE",
"416 474 CURVE",
"417 470 OFFCURVE",
"417 465 OFFCURVE",
"419 460 CURVE",
"416 458 LINE",
"411 459 OFFCURVE",
"405 459 OFFCURVE",
"400 460 CURVE SMOOTH",
"386 462 OFFCURVE",
"375 460 OFFCURVE",
"363 453 CURVE",
"360 452 OFFCURVE",
"357 451 OFFCURVE",
"354 450 CURVE",
"344 450 OFFCURVE",
"332 448 OFFCURVE",
"322 448 CURVE",
"304 442 OFFCURVE",
"282 443 OFFCURVE",
"263 434 CURVE",
"256 431 OFFCURVE",
"248 431 OFFCURVE",
"241 430 CURVE",
"233 428 OFFCURVE",
"228 422 OFFCURVE",
"229 414 CURVE",
"229 412 LINE",
"235 397 OFFCURVE",
"235 381 OFFCURVE",
"235 366 CURVE",
"237 365 OFFCURVE",
"239 363 OFFCURVE",
"240 361 CURVE",
"252 360 OFFCURVE",
"263 359 OFFCURVE",
"276 358 CURVE",
"279 360 OFFCURVE",
"284 363 OFFCURVE",
"289 367 CURVE",
"291 368 OFFCURVE",
"294 369 OFFCURVE",
"297 369 CURVE",
"307 368 OFFCURVE",
"316 369 OFFCURVE",
"325 368 CURVE SMOOTH",
"338 366 OFFCURVE",
"351 366 OFFCURVE",
"363 359 CURVE SMOOTH",
"368 357 OFFCURVE",
"373 357 OFFCURVE",
"377 355 CURVE",
"398 359 LINE",
"402 357 OFFCURVE",
"406 353 OFFCURVE",
"409 352 CURVE",
"412 348 OFFCURVE",
"413 346 OFFCURVE",
"413 344 CURVE",
"413 337 OFFCURVE",
"414 330 OFFCURVE",
"414 323 CURVE SMOOTH",
"414 312 OFFCURVE",
"415 302 OFFCURVE",
"416 292 CURVE",
"419 283 OFFCURVE",
"419 274 OFFCURVE",
"420 265 CURVE",
"420 256 OFFCURVE",
"419 250 OFFCURVE",
"415 243 CURVE SMOOTH",
"413 238 OFFCURVE",
"408 235 OFFCURVE",
"402 232 CURVE",
"399 233 OFFCURVE",
"394 233 OFFCURVE",
"391 233 CURVE",
"389 233 OFFCURVE",
"386 233 OFFCURVE",
"384 232 CURVE SMOOTH",
"375 228 OFFCURVE",
"366 224 OFFCURVE",
"354 223 CURVE",
"348 223 OFFCURVE",
"344 221 OFFCURVE",
"338 220 CURVE",
"311 228 OFFCURVE",
"281 223 OFFCURVE",
"254 225 CURVE",
"237 222 OFFCURVE",
"227 212 OFFCURVE",
"216 199 CURVE",
"220 185 OFFCURVE",
"221 171 OFFCURVE",
"220 156 CURVE",
"220 153 OFFCURVE",
"221 148 OFFCURVE",
"222 144 CURVE",
"222 141 OFFCURVE",
"228 137 OFFCURVE",
"231 137 CURVE",
"237 138 OFFCURVE",
"244 139 OFFCURVE",
"252 140 CURVE",
"255 138 OFFCURVE",
"261 135 OFFCURVE",
"267 132 CURVE",
"269 132 OFFCURVE",
"273 131 OFFCURVE",
"276 132 CURVE",
"286 135 OFFCURVE",
"297 136 OFFCURVE",
"308 135 CURVE SMOOTH",
"320 133 OFFCURVE",
"331 135 OFFCURVE",
"343 138 CURVE SMOOTH",
"352 141 OFFCURVE",
"361 140 OFFCURVE",
"370 136 CURVE",
"374 133 OFFCURVE",
"378 132 OFFCURVE",
"382 131 CURVE",
"389 132 OFFCURVE",
"396 132 OFFCURVE",
"401 133 CURVE",
"409 129 OFFCURVE",
"412 120 OFFCURVE",
"420 115 CURVE",
"419 110 OFFCURVE",
"419 106 OFFCURVE",
"417 101 CURVE",
"420 94 OFFCURVE",
"422 86 OFFCURVE",
"424 78 CURVE"
);
}
);
width = 468;
}
);
unicode = 00C8;
},
{
glyphname = F;
lastChange = "2020-11-04 23:12:10 +0000";
layers = (
{
layerId = master01;
paths = (
{
closed = 1;
nodes = (
"480 488 OFFCURVE",
"477 483 OFFCURVE",
"473 482 CURVE",
"457 481 OFFCURVE",
"444 469 OFFCURVE",
"429 465 CURVE",
"412 466 OFFCURVE",
"396 461 OFFCURVE",
"378 465 CURVE",
"375 462 OFFCURVE",
"371 460 OFFCURVE",
"367 457 CURVE",
"361 457 OFFCURVE",
"355 455 OFFCURVE",
"348 455 CURVE SMOOTH",
"323 455 LINE SMOOTH",
"312 455 OFFCURVE",
"301 454 OFFCURVE",
"291 455 CURVE",
"279 455 OFFCURVE",
"270 448 OFFCURVE",
"260 448 CURVE SMOOTH",
"255 448 OFFCURVE",
"251 447 OFFCURVE",
"247 446 CURVE",
"238 448 OFFCURVE",
"229 453 OFFCURVE",
"220 444 CURVE",
"213 421 OFFCURVE",
"209 397 OFFCURVE",
"206 374 CURVE SMOOTH",
"204 362 OFFCURVE",
"204 351 OFFCURVE",
"206 340 CURVE",
"207 337 OFFCURVE",
"208 335 OFFCURVE",
"209 332 CURVE",
"239 332 LINE",
"248 328 OFFCURVE",
"258 322 OFFCURVE",
"269 316 CURVE SMOOTH",
"271 315 OFFCURVE",
"277 314 OFFCURVE",
"282 313 CURVE SMOOTH",
"286 312 OFFCURVE",
"292 311 OFFCURVE",
"297 308 CURVE",
"306 308 OFFCURVE",
"313 315 OFFCURVE",
"323 317 CURVE",
"328 317 LINE SMOOTH",
"334 317 OFFCURVE",
"340 315 OFFCURVE",
"346 316 CURVE SMOOTH",
"363 320 OFFCURVE",
"381 314 OFFCURVE",
"397 314 CURVE SMOOTH",
"408 314 OFFCURVE",
"417 309 OFFCURVE",
"427 304 CURVE",
"432 258 OFFCURVE",
"430 212 OFFCURVE",
"429 167 CURVE SMOOTH",
"429 162 OFFCURVE",
"424 160 OFFCURVE",
"420 162 CURVE SMOOTH",
"417 163 OFFCURVE",
"414 164 OFFCURVE",
"409 166 CURVE",
"351 166 LINE",
"339 167 OFFCURVE",
"329 164 OFFCURVE",
"319 166 CURVE SMOOTH",
"308 167 OFFCURVE",
"298 168 OFFCURVE",
"286 169 CURVE SMOOTH",
"276 170 OFFCURVE",
"266 170 OFFCURVE",
"254 171 CURVE",
"247 171 OFFCURVE",
"240 174 OFFCURVE",
"233 176 CURVE",
"224 175 OFFCURVE",
"221 168 OFFCURVE",
"214 163 CURVE",
"212 160 OFFCURVE",
"210 155 OFFCURVE",
"208 151 CURVE",
"209 148 OFFCURVE",
"209 146 OFFCURVE",
"209 144 CURVE",
"215 136 OFFCURVE",
"217 125 OFFCURVE",
"217 115 CURVE SMOOTH",
"217 99 OFFCURVE",
"220 83 OFFCURVE",
"218 67 CURVE",
"218 53 OFFCURVE",
"218 40 OFFCURVE",
"223 28 CURVE",
"224 26 OFFCURVE",
"224 24 OFFCURVE",
"224 21 CURVE",
"220 12 OFFCURVE",
"214 2 OFFCURVE",
"208 -6 CURVE",
"195 -15 OFFCURVE",
"182 -17 OFFCURVE",
"168 -23 CURVE",
"162 -22 OFFCURVE",
"156 -22 OFFCURVE",
"150 -22 CURVE",
"146 -23 OFFCURVE",
"143 -25 OFFCURVE",
"137 -29 CURVE",
"103 -29 LINE SMOOTH",
"92 -29 OFFCURVE",
"81 -30 OFFCURVE",
"68 -30 CURVE SMOOTH",
"63 -30 OFFCURVE",
"57 -28 OFFCURVE",
"54 -21 CURVE",
"53 -16 OFFCURVE",
"53 -9 OFFCURVE",
"52 -1 CURVE",
"48 5 OFFCURVE",
"46 12 OFFCURVE",
"43 17 CURVE",
"41 25 OFFCURVE",
"41 33 OFFCURVE",
"40 40 CURVE",
"44 52 OFFCURVE",
"47 62 OFFCURVE",
"51 74 CURVE",
"45 105 OFFCURVE",
"43 137 OFFCURVE",
"49 171 CURVE",
"49 178 OFFCURVE",
"45 186 OFFCURVE",
"49 195 CURVE SMOOTH",
"53 202 OFFCURVE",
"53 209 OFFCURVE",
"49 216 CURVE",
"47 225 OFFCURVE",
"46 235 OFFCURVE",
"49 244 CURVE",
"51 248 OFFCURVE",
"51 253 OFFCURVE",
"51 259 CURVE",
"52 266 OFFCURVE",
"47 274 OFFCURVE",
"49 282 CURVE SMOOTH",
"52 289 OFFCURVE",
"52 296 OFFCURVE",
"52 304 CURVE SMOOTH",
"52 313 OFFCURVE",
"53 323 OFFCURVE",
"56 331 CURVE",
"55 340 OFFCURVE",
"54 347 OFFCURVE",
"53 355 CURVE",
"59 369 OFFCURVE",
"59 385 OFFCURVE",
"59 401 CURVE SMOOTH",
"59 412 OFFCURVE",
"59 422 OFFCURVE",
"60 432 CURVE SMOOTH",
"61 442 OFFCURVE",
"62 452 OFFCURVE",
"62 462 CURVE",
"62 465 OFFCURVE",
"61 468 OFFCURVE",
"62 471 CURVE",
"67 481 OFFCURVE",
"64 491 OFFCURVE",
"66 501 CURVE",
"66 509 OFFCURVE",
"67 518 OFFCURVE",
"68 526 CURVE",
"66 532 OFFCURVE",
"63 541 OFFCURVE",
"62 547 CURVE",
"63 554 OFFCURVE",
"66 560 OFFCURVE",
"66 567 CURVE",
"67 576 OFFCURVE",
"74 581 OFFCURVE",
"82 583 CURVE SMOOTH",
"94 587 OFFCURVE",
"107 590 OFFCURVE",
"120 592 CURVE",
"123 592 OFFCURVE",
"128 593 OFFCURVE",
"131 596 CURVE",
"133 597 OFFCURVE",
"137 598 OFFCURVE",
"140 598 CURVE",
"148 596 OFFCURVE",
"156 598 OFFCURVE",
"166 600 CURVE",
"171 603 OFFCURVE",
"177 605 OFFCURVE",
"184 605 CURVE",
"209 606 OFFCURVE",
"235 613 OFFCURVE",
"260 615 CURVE SMOOTH",
"273 616 OFFCURVE",
"285 618 OFFCURVE",
"298 614 CURVE SMOOTH",
"308 612 OFFCURVE",
"319 612 OFFCURVE",
"330 612 CURVE SMOOTH",
"335 612 OFFCURVE",
"340 613 OFFCURVE",
"346 613 CURVE",
"374 614 OFFCURVE",
"374 614 OFFCURVE",
"402 608 CURVE SMOOTH",
"411 606 OFFCURVE",
"420 606 OFFCURVE",
"428 604 CURVE",
"436 600 OFFCURVE",
"444 598 OFFCURVE",
"452 597 CURVE SMOOTH",
"458 596 OFFCURVE",
"462 592 OFFCURVE",
"465 589 CURVE",
"468 578 OFFCURVE",
"468 568 OFFCURVE",
"465 558 CURVE",
"467 552 OFFCURVE",
"469 545 OFFCURVE",
"471 537 CURVE",
"471 535 OFFCURVE",
"470 530 OFFCURVE",
"470 527 CURVE",
"470 524 OFFCURVE",
"470 522 OFFCURVE",
"471 521 CURVE",
"474 515 OFFCURVE",
"476 509 OFFCURVE",
"478 504 CURVE SMOOTH",
"480 500 OFFCURVE",
"480 496 OFFCURVE",
"480 492 CURVE SMOOTH"
);
}
);
width = 520;
}
);
unicode = 0046;
},
{
glyphname = G;
lastChange = "2020-11-04 23:12:10 +0000";
layers = (
{
layerId = master01;
paths = (
{
closed = 1;
nodes = (
"560 205 OFFCURVE",
"557 193 OFFCURVE",
"554 181 CURVE SMOOTH",
"553 176 OFFCURVE",
"552 171 OFFCURVE",
"552 167 CURVE",
"551 160 OFFCURVE",
"551 154 OFFCURVE",
"551 150 CURVE",
"541 132 OFFCURVE",
"532 116 OFFCURVE",
"528 98 CURVE SMOOTH",
"522 77 OFFCURVE",
"509 59 OFFCURVE",
"498 41 CURVE SMOOTH",
"493 36 OFFCURVE",
"489 31 OFFCURVE",
"485 26 CURVE",
"470 20 OFFCURVE",
"457 14 OFFCURVE",
"446 3 CURVE SMOOTH",
"444 1 OFFCURVE",
"440 0 OFFCURVE",
"438 -1 CURVE",
"423 -7 OFFCURVE",
"409 -14 OFFCURVE",
"394 -20 CURVE",
"367 -16 LINE",
"358 -18 OFFCURVE",
"348 -22 OFFCURVE",
"340 -24 CURVE",
"335 -23 OFFCURVE",
"331 -20 OFFCURVE",
"329 -17 CURVE SMOOTH",
"325 -14 OFFCURVE",
"321 -10 OFFCURVE",
"315 -12 CURVE SMOOTH",
"307 -13 OFFCURVE",
"302 -6 OFFCURVE",
"296 -3 CURVE",
"292 -5 OFFCURVE",
"289 -5 OFFCURVE",
"283 -6 CURVE",
"267 -2 LINE",
"261 -2 OFFCURVE",
"255 -3 OFFCURVE",
"250 -5 CURVE",
"243 -2 OFFCURVE",
"237 3 OFFCURVE",
"228 3 CURVE SMOOTH",
"218 3 OFFCURVE",
"210 8 OFFCURVE",
"201 9 CURVE SMOOTH",
"193 10 OFFCURVE",
"186 12 OFFCURVE",
"179 13 CURVE",
"173 15 OFFCURVE",
"171 20 OFFCURVE",
"169 24 CURVE",
"167 25 OFFCURVE",
"166 26 OFFCURVE",
"163 26 CURVE",
"159 30 OFFCURVE",
"153 31 OFFCURVE",
"147 33 CURVE SMOOTH",
"138 37 OFFCURVE",
"132 43 OFFCURVE",
"125 49 CURVE SMOOTH",
"116 59 OFFCURVE",
"109 70 OFFCURVE",
"99 79 CURVE",
"94 89 LINE",
"87 97 OFFCURVE",
"84 101 OFFCURVE",
"74 107 CURVE",
"62 107 LINE",
"61 107 OFFCURVE",
"59 110 OFFCURVE",
"60 112 CURVE",
"61 117 OFFCURVE",
"62 123 OFFCURVE",
"64 129 CURVE",
"64 136 OFFCURVE",
"60 140 OFFCURVE",
"57 147 CURVE",
"56 175 OFFCURVE",
"47 200 OFFCURVE",
"39 227 CURVE",
"39 256 LINE",
"43 260 OFFCURVE",
"46 266 OFFCURVE",
"49 270 CURVE",
"48 277 OFFCURVE",
"47 283 OFFCURVE",
"48 290 CURVE",
"48 298 OFFCURVE",
"46 306 OFFCURVE",
"45 316 CURVE",
"45 317 OFFCURVE",
"47 323 OFFCURVE",
"47 328 CURVE",
"48 332 OFFCURVE",
"49 337 OFFCURVE",
"48 342 CURVE SMOOTH",
"45 353 OFFCURVE",
"47 362 OFFCURVE",
"49 374 CURVE SMOOTH",
"52 383 OFFCURVE",
"55 392 OFFCURVE",
"54 401 CURVE",
"54 405 OFFCURVE",
"55 408 OFFCURVE",
"56 409 CURVE",
"62 417 OFFCURVE",
"62 427 OFFCURVE",
"64 435 CURVE",
"71 447 OFFCURVE",
"79 460 OFFCURVE",
"91 470 CURVE SMOOTH",
"95 475 OFFCURVE",
"99 481 OFFCURVE",
"103 485 CURVE SMOOTH",
"115 497 OFFCURVE",
"124 509 OFFCURVE",
"131 524 CURVE",
"136 528 OFFCURVE",
"141 530 OFFCURVE",
"146 534 CURVE",
"147 536 OFFCURVE",
"148 537 OFFCURVE",
"150 538 CURVE",
"153 553 OFFCURVE",
"162 560 OFFCURVE",
"176 564 CURVE",
"179 564 OFFCURVE",
"184 565 OFFCURVE",
"189 566 CURVE",
"193 569 OFFCURVE",
"199 574 OFFCURVE",
"205 577 CURVE",
"209 582 OFFCURVE",
"216 585 OFFCURVE",
"223 588 CURVE",
"231 589 OFFCURVE",
"237 595 OFFCURVE",
"244 598 CURVE",
"251 599 OFFCURVE",
"258 599 OFFCURVE",
"265 597 CURVE SMOOTH",
"277 593 OFFCURVE",
"290 593 OFFCURVE",
"302 600 CURVE SMOOTH",
"311 605 OFFCURVE",
"322 603 OFFCURVE",
"329 610 CURVE",
"337 607 OFFCURVE",
"343 605 OFFCURVE",
"350 603 CURVE",
"370 599 LINE",
"383 596 OFFCURVE",
"397 591 OFFCURVE",
"409 587 CURVE SMOOTH",
"422 581 OFFCURVE",
"436 577 OFFCURVE",
"447 570 CURVE",
"452 567 OFFCURVE",
"457 567 OFFCURVE",
"461 565 CURVE SMOOTH",
"467 562 OFFCURVE",
"473 560 OFFCURVE",
"477 558 CURVE",
"481 552 OFFCURVE",
"484 547 OFFCURVE",
"489 542 CURVE",
"492 539 OFFCURVE",
"496 537 OFFCURVE",
"500 535 CURVE SMOOTH",
"509 530 OFFCURVE",
"516 523 OFFCURVE",
"516 512 CURVE SMOOTH",
"516 506 OFFCURVE",
"522 503 OFFCURVE",
"524 497 CURVE",
"521 491 OFFCURVE",
"518 484 OFFCURVE",
"516 478 CURVE",
"513 469 OFFCURVE",
"507 462 OFFCURVE",
"500 458 CURVE",
"499 457 OFFCURVE",
"498 454 OFFCURVE",
"497 452 CURVE",
"500 437 OFFCURVE",
"491 427 OFFCURVE",
"482 417 CURVE",
"482 412 OFFCURVE",
"484 406 OFFCURVE",
"477 405 CURVE",
"475 406 OFFCURVE",
"468 401 OFFCURVE",
"467 399 CURVE SMOOTH",
"465 393 OFFCURVE",
"458 391 OFFCURVE",
"454 394 CURVE SMOOTH",
"450 399 OFFCURVE",
"446 400 OFFCURVE",
"440 400 CURVE",
"439 401 LINE",
"438 402 OFFCURVE",
"436 405 OFFCURVE",
"435 405 CURVE",
"432 406 OFFCURVE",
"429 407 OFFCURVE",
"425 407 CURVE SMOOTH",
"413 407 OFFCURVE",
"406 413 OFFCURVE",
"400 423 CURVE SMOOTH",
"399 425 OFFCURVE",
"397 427 OFFCURVE",
"396 428 CURVE",
"379 435 OFFCURVE",
"363 443 OFFCURVE",
"345 446 CURVE",
"332 444 OFFCURVE",
"320 447 OFFCURVE",
"306 442 CURVE",
"293 429 LINE",
"284 425 OFFCURVE",
"275 424 OFFCURVE",
"267 421 CURVE",
"260 416 OFFCURVE",
"252 415 OFFCURVE",
"244 409 CURVE",
"241 407 OFFCURVE",
"239 404 OFFCURVE",
"236 399 CURVE",
"236 388 LINE",
"232 386 OFFCURVE",
"229 385 OFFCURVE",
"225 385 CURVE",
"222 379 OFFCURVE",
"222 375 OFFCURVE",
"222 370 CURVE SMOOTH",
"222 361 OFFCURVE",
"221 353 OFFCURVE",
"218 344 CURVE SMOOTH",
"216 335 OFFCURVE",
"216 323 OFFCURVE",
"213 313 CURVE",
"212 311 OFFCURVE",
"213 307 OFFCURVE",
"213 305 CURVE",
"214 302 OFFCURVE",
"215 300 OFFCURVE",
"214 299 CURVE",
"212 289 OFFCURVE",
"210 279 OFFCURVE",
"213 270 CURVE",
"216 261 OFFCURVE",
"216 251 OFFCURVE",
"218 241 CURVE SMOOTH",
"220 236 OFFCURVE",
"221 230 OFFCURVE",
"222 224 CURVE",
"224 221 OFFCURVE",
"228 216 OFFCURVE",
"231 213 CURVE",
"230 207 OFFCURVE",
"230 201 OFFCURVE",
"229 195 CURVE",
"230 184 OFFCURVE",
"239 177 OFFCURVE",
"243 166 CURVE",
"250 161 OFFCURVE",
"259 159 OFFCURVE",
"263 151 CURVE",
"274 143 OFFCURVE",
"283 135 OFFCURVE",
"293 126 CURVE",
"298 124 OFFCURVE",
"302 123 OFFCURVE",
"308 121 CURVE",
"322 124 OFFCURVE",
"337 126 OFFCURVE",
"353 130 CURVE",
"357 130 OFFCURVE",
"361 129 OFFCURVE",
"366 128 CURVE",
"370 128 OFFCURVE",
"375 128 OFFCURVE",
"377 131 CURVE",
"382 135 OFFCURVE",
"384 140 OFFCURVE",
"390 144 CURVE SMOOTH",
"394 146 OFFCURVE",
"398 148 OFFCURVE",
"401 151 CURVE",
"409 160 OFFCURVE",
"413 170 OFFCURVE",
"419 179 CURVE",
"419 187 OFFCURVE",
"416 195 OFFCURVE",
"414 202 CURVE",
"413 208 OFFCURVE",
"407 212 OFFCURVE",
"401 213 CURVE SMOOTH",
"397 214 OFFCURVE",
"393 215 OFFCURVE",
"390 214 CURVE SMOOTH",
"371 209 OFFCURVE",
"353 212 OFFCURVE",
"336 210 CURVE",
"332 213 OFFCURVE",
"329 214 OFFCURVE",
"325 215 CURVE",
"323 217 OFFCURVE",
"323 220 OFFCURVE",
"324 221 CURVE",
"328 230 OFFCURVE",
"331 238 OFFCURVE",
"330 247 CURVE",
"330 268 OFFCURVE",
"335 288 OFFCURVE",
"339 307 CURVE",
"343 314 OFFCURVE",
"348 317 OFFCURVE",
"357 317 CURVE",
"370 319 OFFCURVE",
"384 322 OFFCURVE",
"396 329 CURVE",
"408 330 OFFCURVE",
"420 330 OFFCURVE",
"431 325 CURVE",
"448 324 OFFCURVE",
"465 321 OFFCURVE",
"482 322 CURVE",
"484 321 OFFCURVE",
"488 320 OFFCURVE",
"490 317 CURVE",
"493 320 OFFCURVE",
"496 322 OFFCURVE",
"499 324 CURVE",
"506 321 OFFCURVE",
"512 316 OFFCURVE",
"518 314 CURVE SMOOTH",
"521 313 OFFCURVE",
"526 313 OFFCURVE",
"530 312 CURVE",
"541 306 OFFCURVE",
"550 296 OFFCURVE",
"560 294 CURVE",
"572 282 OFFCURVE",
"568 270 OFFCURVE",
"560 261 CURVE",
"560 253 OFFCURVE",
"559 245 OFFCURVE",
"560 237 CURVE SMOOTH",
"561 231 OFFCURVE",
"565 224 OFFCURVE",
"562 210 CURVE"
);
}
);
width = 607;
}
);
unicode = 0047;
},
{
glyphname = H;
lastChange = "2020-11-04 23:12:10 +0000";
layers = (
{
layerId = master01;
paths = (
{
closed = 1;
nodes = (
"612 530 OFFCURVE",
"612 526 OFFCURVE",
"612 522 CURVE SMOOTH",
"612 518 OFFCURVE",
"613 513 OFFCURVE",
"612 509 CURVE SMOOTH",
"610 501 OFFCURVE",
"614 494 OFFCURVE",
"611 488 CURVE SMOOTH",
"610 485 OFFCURVE",
"608 483 OFFCURVE",
"608 481 CURVE",
"610 457 OFFCURVE",
"603 435 OFFCURVE",
"599 411 CURVE",
"606 390 LINE",
"604 382 OFFCURVE",
"600 374 OFFCURVE",
"598 365 CURVE",
"599 357 OFFCURVE",
"600 348 OFFCURVE",
"601 339 CURVE",
"598 331 OFFCURVE",
"596 321 OFFCURVE",
"599 312 CURVE SMOOTH",
"604 297 OFFCURVE",
"599 282 OFFCURVE",
"601 267 CURVE",
"601 266 OFFCURVE",
"601 262 OFFCURVE",
"600 261 CURVE",
"596 251 OFFCURVE",
"597 240 OFFCURVE",
"598 229 CURVE SMOOTH",
"600 216 OFFCURVE",
"599 204 OFFCURVE",
"606 192 CURVE",
"607 181 OFFCURVE",
"607 169 OFFCURVE",
"608 158 CURVE",
"605 152 OFFCURVE",
"601 146 OFFCURVE",
"598 141 CURVE",
"597 130 OFFCURVE",
"596 121 OFFCURVE",
"601 110 CURVE SMOOTH",
"603 108 OFFCURVE",
"604 79 OFFCURVE",
"605 78 CURVE",
"610 71 OFFCURVE",
"610 64 OFFCURVE",
"605 57 CURVE SMOOTH",
"603 54 OFFCURVE",
"601 52 OFFCURVE",
"600 48 CURVE",
"603 39 OFFCURVE",
"605 30 OFFCURVE",
"607 21 CURVE SMOOTH",
"610 9 OFFCURVE",
"605 5 OFFCURVE",
"597 -1 CURVE",
"595 -2 OFFCURVE",
"591 -3 OFFCURVE",
"588 -5 CURVE",
"587 -5 OFFCURVE",
"584 -5 OFFCURVE",
"582 -6 CURVE",
"576 -7 OFFCURVE",
"572 -8 OFFCURVE",
"566 -9 CURVE",
"555 -2 LINE",
"550 -1 OFFCURVE",
"538 -10 OFFCURVE",
"530 -3 CURVE",
"528 1 OFFCURVE",
"512 6 OFFCURVE",
"514 2 CURVE",
"514 1 LINE",
"514 1 OFFCURVE",
"498 -5 OFFCURVE",
"491 -9 CURVE",
"480 -8 OFFCURVE",
"462 6 OFFCURVE",
"455 6 CURVE",
"450 12 OFFCURVE",
"450 17 OFFCURVE",
"450 24 CURVE",
"451 30 OFFCURVE",
"453 36 OFFCURVE",
"454 43 CURVE",
"458 51 OFFCURVE",
"457 59 OFFCURVE",
"454 67 CURVE SMOOTH",
"451 76 OFFCURVE",
"447 85 OFFCURVE",
"446 94 CURVE SMOOTH",
"445 98 OFFCURVE",
"445 112 OFFCURVE",
"443 115 CURVE",
"442 124 OFFCURVE",
"444 133 OFFCURVE",
"439 143 CURVE",
"437 150 OFFCURVE",
"438 158 OFFCURVE",
"440 164 CURVE SMOOTH",
"442 169 OFFCURVE",
"443 174 OFFCURVE",
"444 177 CURVE",
"445 184 OFFCURVE",
"445 190 OFFCURVE",
"442 195 CURVE SMOOTH",
"436 205 OFFCURVE",
"429 214 OFFCURVE",
"421 220 CURVE",
"411 221 OFFCURVE",
"401 223 OFFCURVE",
"390 223 CURVE",
"388 223 OFFCURVE",
"384 224 OFFCURVE",
"379 225 CURVE SMOOTH",
"359 229 OFFCURVE",
"342 222 OFFCURVE",
"320 221 CURVE",
"312 221 OFFCURVE",
"305 224 OFFCURVE",
"299 229 CURVE",
"297 227 OFFCURVE",
"293 225 OFFCURVE",
"290 223 CURVE",
"283 227 OFFCURVE",
"275 230 OFFCURVE",
"267 232 CURVE SMOOTH",
"259 235 OFFCURVE",
"250 235 OFFCURVE",
"240 236 CURVE",
"235 235 OFFCURVE",
"231 229 OFFCURVE",
"230 222 CURVE",
"230 213 LINE",
"232 195 OFFCURVE",
"231 178 OFFCURVE",
"225 162 CURVE",
"225 159 OFFCURVE",
"225 155 OFFCURVE",
"224 152 CURVE",
"228 146 OFFCURVE",
"230 140 OFFCURVE",
"233 135 CURVE",
"231 128 OFFCURVE",
"228 121 OFFCURVE",
"224 114 CURVE",
"225 105 OFFCURVE",
"225 95 OFFCURVE",
"227 86 CURVE",
"228 83 OFFCURVE",
"229 79 OFFCURVE",
"231 77 CURVE",
"238 66 OFFCURVE",
"237 55 OFFCURVE",
"228 45 CURVE",
"227 44 OFFCURVE",
"227 43 OFFCURVE",
"225 40 CURVE",
"225 35 OFFCURVE",
"225 28 OFFCURVE",
"224 20 CURVE",
"224 17 OFFCURVE",
"223 14 OFFCURVE",
"221 10 CURVE",
"221 9 OFFCURVE",
"218 8 OFFCURVE",
"216 5 CURVE",
"208 2 OFFCURVE",
"199 -1 OFFCURVE",
"191 -3 CURVE",
"169 -6 OFFCURVE",
"159 -2 OFFCURVE",
"138 6 CURVE",
"123 3 OFFCURVE",
"108 2 OFFCURVE",
"91 7 CURVE",
"84 10 OFFCURVE",
"75 16 OFFCURVE",
"66 21 CURVE SMOOTH",
"57 25 OFFCURVE",
"48 29 OFFCURVE",
"40 32 CURVE",
"38 38 OFFCURVE",
"38 44 OFFCURVE",
"39 48 CURVE SMOOTH",
"41 56 OFFCURVE",
"43 66 OFFCURVE",
"46 74 CURVE SMOOTH",
"49 82 OFFCURVE",
"51 90 OFFCURVE",
"51 99 CURVE",
"49 102 OFFCURVE",
"49 107 OFFCURVE",
"52 112 CURVE SMOOTH",
"57 123 OFFCURVE",
"52 135 OFFCURVE",
"54 146 CURVE",
"49 164 OFFCURVE",
"53 184 OFFCURVE",
"56 202 CURVE SMOOTH",
"57 212 OFFCURVE",
"61 220 OFFCURVE",
"59 228 CURVE",
"61 238 OFFCURVE",
"71 243 OFFCURVE",
"71 251 CURVE",
"72 261 OFFCURVE",
"67 267 OFFCURVE",
"66 277 CURVE",
"66 281 OFFCURVE",
"67 288 OFFCURVE",
"67 293 CURVE SMOOTH",
"67 299 OFFCURVE",
"67 305 OFFCURVE",
"68 309 CURVE SMOOTH",
"70 320 OFFCURVE",
"64 330 OFFCURVE",
"66 342 CURVE",
"66 344 OFFCURVE",
"64 347 OFFCURVE",
"63 351 CURVE",
"62 362 OFFCURVE",
"64 374 OFFCURVE",
"64 385 CURVE SMOOTH",
"64 397 OFFCURVE",
"62 407 OFFCURVE",
"63 417 CURVE",
"63 419 OFFCURVE",
"64 420 OFFCURVE",
"64 421 CURVE",
"67 422 OFFCURVE",
"70 419 OFFCURVE",
"72 421 CURVE",
"78 436 OFFCURVE",
"71 450 OFFCURVE",
"70 463 CURVE",
"74 469 OFFCURVE",
"74 482 OFFCURVE",
"70 484 CURVE",
"70 493 OFFCURVE",
"69 503 OFFCURVE",
"68 512 CURVE SMOOTH",
"67 522 OFFCURVE",
"63 531 OFFCURVE",
"64 542 CURVE SMOOTH",
"66 550 OFFCURVE",
"68 558 OFFCURVE",
"74 566 CURVE",
"79 567 OFFCURVE",
"87 568 OFFCURVE",
"94 572 CURVE SMOOTH",
"100 574 OFFCURVE",
"103 580 OFFCURVE",
"109 581 CURVE SMOOTH",
"120 582 OFFCURVE",
"128 576 OFFCURVE",
"136 575 CURVE SMOOTH",
"155 573 OFFCURVE",
"162 577 OFFCURVE",
"178 589 CURVE",
"185 585 OFFCURVE",
"192 581 OFFCURVE",
"198 577 CURVE SMOOTH",
"204 574 OFFCURVE",
"209 572 OFFCURVE",
"214 569 CURVE",
"220 565 OFFCURVE",
"222 560 OFFCURVE",
"222 554 CURVE",
"223 545 OFFCURVE",
"223 537 OFFCURVE",
"224 529 CURVE",
"224 518 OFFCURVE",
"224 507 OFFCURVE",
"228 497 CURVE",
"229 491 OFFCURVE",
"229 486 OFFCURVE",
"230 481 CURVE",
"231 463 OFFCURVE",
"232 427 OFFCURVE",
"225 411 CURVE SMOOTH",
"224 408 OFFCURVE",
"224 406 OFFCURVE",
"224 404 CURVE",
"231 394 OFFCURVE",
"240 401 OFFCURVE",
"248 401 CURVE",
"262 394 OFFCURVE",
"267 386 OFFCURVE",
"282 378 CURVE",
"296 384 OFFCURVE",
"308 381 OFFCURVE",
"324 386 CURVE",
"371 386 LINE SMOOTH",
"388 386 OFFCURVE",
"405 388 OFFCURVE",
"422 392 CURVE",
"428 394 OFFCURVE",
"435 394 OFFCURVE",
"440 396 CURVE",
"443 397 OFFCURVE",
"445 399 OFFCURVE",
"447 400 CURVE",
"450 409 OFFCURVE",
"443 436 OFFCURVE",
"443 444 CURVE",
"442 451 OFFCURVE",
"439 459 OFFCURVE",
"439 466 CURVE",
"442 480 OFFCURVE",
"438 493 OFFCURVE",
"438 507 CURVE SMOOTH",
"438 514 OFFCURVE",
"437 522 OFFCURVE",
"436 529 CURVE SMOOTH",
"432 544 OFFCURVE",
"432 559 OFFCURVE",
"435 574 CURVE",
"447 584 OFFCURVE",
"461 589 OFFCURVE",
"476 591 CURVE",
"490 595 OFFCURVE",
"504 589 OFFCURVE",
"518 587 CURVE",
"524 590 OFFCURVE",
"532 593 OFFCURVE",
"543 598 CURVE",
"557 598 OFFCURVE",
"559 598 OFFCURVE",
"575 599 CURVE",
"585 599 OFFCURVE",
"588 601 OFFCURVE",
"600 603 CURVE",
"601 601 OFFCURVE",
"608 589 OFFCURVE",
"608 584 CURVE",
"607 583 OFFCURVE",
"612 566 OFFCURVE",
"611 557 CURVE",
"611 549 OFFCURVE",
"613 542 OFFCURVE",
"613 535 CURVE"
);
}
);
width = 652;
}
);
unicode = 0048;
},
{
glyphname = I;
lastChange = "2020-11-04 23:12:10 +0000";
layers = (
{
layerId = master01;
paths = (
{
closed = 1;
nodes = (
"382 534 OFFCURVE",
"383 523 OFFCURVE",
"377 513 CURVE",
"374 508 OFFCURVE",
"376 503 OFFCURVE",
"376 497 CURVE",
"373 493 OFFCURVE",
"369 490 OFFCURVE",
"366 485 CURVE SMOOTH",
"363 482 OFFCURVE",
"362 477 OFFCURVE",
"357 475 CURVE",
"350 476 OFFCURVE",
"340 476 OFFCURVE",
"332 476 CURVE SMOOTH",
"323 476 OFFCURVE",
"314 474 OFFCURVE",
"305 468 CURVE",
"300 463 OFFCURVE",
"294 462 OFFCURVE",
"289 459 CURVE",
"285 455 OFFCURVE",
"284 451 OFFCURVE",
"285 447 CURVE",
"285 428 LINE",
"286 416 OFFCURVE",
"289 405 OFFCURVE",
"288 392 CURVE",
"286 389 OFFCURVE",
"289 384 OFFCURVE",
"290 381 CURVE",
"288 376 OFFCURVE",
"286 373 OFFCURVE",
"285 368 CURVE",
"286 363 OFFCURVE",
"288 358 OFFCURVE",
"289 353 CURVE",
"289 351 OFFCURVE",
"289 348 OFFCURVE",
"288 346 CURVE",
"285 338 OFFCURVE",
"284 330 OFFCURVE",
"281 322 CURVE SMOOTH",
"277 313 OFFCURVE",
"283 305 OFFCURVE",
"279 297 CURVE",
"279 269 OFFCURVE",
"275 243 OFFCURVE",
"274 216 CURVE",
"274 198 OFFCURVE",
"277 181 OFFCURVE",
"283 163 CURVE SMOOTH",
"285 158 OFFCURVE",
"289 154 OFFCURVE",
"296 154 CURVE",
"298 155 OFFCURVE",
"302 158 OFFCURVE",
"306 160 CURVE",
"307 160 OFFCURVE",
"309 160 OFFCURVE",
"311 158 CURVE",
"316 152 OFFCURVE",
"322 148 OFFCURVE",
"329 146 CURVE SMOOTH",
"340 143 OFFCURVE",
"343 139 OFFCURVE",
"338 130 CURVE SMOOTH",
"334 120 OFFCURVE",
"336 109 OFFCURVE",
"335 99 CURVE SMOOTH",
"332 69 OFFCURVE",
"332 39 OFFCURVE",
"336 9 CURVE",
"336 -6 OFFCURVE",
"336 -6 OFFCURVE",
"322 -17 CURVE",
"319 -17 LINE",
"308 -16 OFFCURVE",
"298 -15 OFFCURVE",
"289 -13 CURVE",
"276 -15 OFFCURVE",
"266 -16 OFFCURVE",
"255 -16 CURVE",
"246 -17 OFFCURVE",
"237 -22 OFFCURVE",
"227 -21 CURVE",
"216 -18 OFFCURVE",
"206 -23 OFFCURVE",
"195 -23 CURVE",
"190 -21 OFFCURVE",
"185 -20 OFFCURVE",
"179 -17 CURVE",
"147 -23 OFFCURVE",
"115 -23 OFFCURVE",
"82 -24 CURVE",
"75 -15 OFFCURVE",
"68 -8 OFFCURVE",
"63 0 CURVE",
"60 9 OFFCURVE",
"52 15 OFFCURVE",
"45 21 CURVE",
"44 28 OFFCURVE",
"43 33 OFFCURVE",
"41 40 CURVE SMOOTH",
"40 45 OFFCURVE",
"40 51 OFFCURVE",
"41 56 CURVE",
"43 59 OFFCURVE",
"44 62 OFFCURVE",
"43 66 CURVE",
"40 78 OFFCURVE",
"43 91 OFFCURVE",
"46 103 CURVE",
"46 115 LINE",
"57 117 OFFCURVE",
"67 121 OFFCURVE",
"78 118 CURVE",
"83 121 OFFCURVE",
"86 124 OFFCURVE",
"92 128 CURVE",
"98 125 OFFCURVE",
"105 123 OFFCURVE",
"113 120 CURVE",
"121 125 OFFCURVE",
"128 130 OFFCURVE",
"136 136 CURVE",
"137 139 OFFCURVE",
"138 143 OFFCURVE",
"138 145 CURVE",
"138 160 OFFCURVE",
"137 175 OFFCURVE",
"139 190 CURVE",
"139 193 LINE",
"133 206 OFFCURVE",
"137 218 OFFCURVE",
"136 231 CURVE",
"136 244 LINE",
"139 274 OFFCURVE",
"137 304 OFFCURVE",
"136 335 CURVE",
"143 348 LINE",
"141 354 OFFCURVE",
"140 361 OFFCURVE",
"139 368 CURVE",
"140 374 OFFCURVE",
"143 379 OFFCURVE",
"144 386 CURVE",
"144 388 OFFCURVE",
"144 390 OFFCURVE",
"143 392 CURVE",
"140 399 OFFCURVE",
"138 406 OFFCURVE",
"139 414 CURVE",
"139 429 LINE SMOOTH",
"139 434 OFFCURVE",
"135 436 OFFCURVE",
"135 442 CURVE",
"136 444 OFFCURVE",
"136 447 OFFCURVE",
"136 451 CURVE",
"135 459 OFFCURVE",
"133 467 OFFCURVE",
"131 475 CURVE",
"124 481 OFFCURVE",
"116 477 OFFCURVE",
"109 478 CURVE SMOOTH",
"102 480 OFFCURVE",
"94 480 OFFCURVE",
"85 480 CURVE",
"76 485 OFFCURVE",
"63 482 OFFCURVE",
"53 486 CURVE",
"48 492 OFFCURVE",
"51 504 OFFCURVE",
"47 508 CURVE SMOOTH",
"44 513 OFFCURVE",
"49 523 OFFCURVE",
"47 530 CURVE",
"52 536 OFFCURVE",
"44 537 OFFCURVE",
"48 545 CURVE SMOOTH",
"52 551 OFFCURVE",
"49 561 OFFCURVE",
"55 567 CURVE",
"57 570 OFFCURVE",
"55 577 OFFCURVE",
"57 582 CURVE",
"60 585 OFFCURVE",
"72 584 OFFCURVE",
"74 587 CURVE",
"79 593 OFFCURVE",
"87 595 OFFCURVE",
"95 599 CURVE",
"98 599 OFFCURVE",
"102 600 OFFCURVE",
"107 600 CURVE SMOOTH",
"118 600 OFFCURVE",
"130 600 OFFCURVE",
"141 601 CURVE SMOOTH",
"152 603 OFFCURVE",
"162 605 OFFCURVE",
"174 607 CURVE SMOOTH",
"179 608 OFFCURVE",
"186 608 OFFCURVE",
"192 606 CURVE SMOOTH",
"202 603 OFFCURVE",
"213 604 OFFCURVE",
"224 607 CURVE SMOOTH",
"229 608 OFFCURVE",
"233 610 OFFCURVE",
"236 611 CURVE",
"245 610 OFFCURVE",
"252 608 OFFCURVE",
"258 608 CURVE SMOOTH",
"262 608 OFFCURVE",
"267 610 OFFCURVE",
"270 610 CURVE SMOOTH",
"283 610 OFFCURVE",
"294 610 OFFCURVE",
"306 607 CURVE SMOOTH",
"317 605 OFFCURVE",
"329 604 OFFCURVE",
"340 605 CURVE",
"346 606 OFFCURVE",
"352 605 OFFCURVE",
"353 605 CURVE",
"362 603 OFFCURVE",
"366 598 OFFCURVE",
"369 595 CURVE SMOOTH",
"379 585 OFFCURVE",
"383 575 OFFCURVE",
"376 562 CURVE",
"375 561 OFFCURVE",
"375 559 OFFCURVE",
"375 555 CURVE",
"376 552 OFFCURVE",
"376 549 OFFCURVE",
"378 544 CURVE SMOOTH"
);
}
);
width = 422;
}
);
unicode = 0049;
},
{
glyphname = Iacute;
lastChange = "2020-11-04 23:12:10 +0000";
layers = (
{
layerId = master01;
paths = (
{
closed = 1;
nodes = (
"286 698 LINE SMOOTH",
"284 693 OFFCURVE",
"281 690 OFFCURVE",
"277 687 CURVE",
"267 673 LINE",
"258 658 OFFCURVE",
"246 646 OFFCURVE",
"231 637 CURVE",
"228 630 OFFCURVE",
"223 623 OFFCURVE",
"220 618 CURVE",
"213 612 OFFCURVE",
"205 611 OFFCURVE",
"198 608 CURVE",
"195 608 OFFCURVE",
"193 608 OFFCURVE",
"192 610 CURVE",
"182 616 OFFCURVE",
"171 620 OFFCURVE",
"159 621 CURVE",
"156 621 OFFCURVE",
"154 624 OFFCURVE",
"153 627 CURVE",
"154 634 OFFCURVE",
"154 641 OFFCURVE",
"155 645 CURVE SMOOTH",
"159 656 OFFCURVE",
"167 659 OFFCURVE",
"168 668 CURVE SMOOTH",
"169 675 OFFCURVE",
"175 680 OFFCURVE",
"176 687 CURVE",
"176 689 OFFCURVE",
"175 692 OFFCURVE",
"175 696 CURVE",
"177 702 OFFCURVE",
"182 707 OFFCURVE",
"184 713 CURVE SMOOTH",
"186 720 OFFCURVE",
"190 726 OFFCURVE",
"193 731 CURVE",
"197 736 OFFCURVE",
"198 743 OFFCURVE",
"199 749 CURVE",
"205 766 LINE SMOOTH",
"207 774 OFFCURVE",
"212 780 OFFCURVE",
"217 785 CURVE",
"220 789 OFFCURVE",
"224 790 OFFCURVE",
"228 790 CURVE",
"232 789 OFFCURVE",
"238 788 OFFCURVE",
"243 787 CURVE SMOOTH",
"248 785 OFFCURVE",
"254 783 OFFCURVE",
"260 782 CURVE SMOOTH",
"265 781 OFFCURVE",
"269 781 OFFCURVE",
"274 780 CURVE",
"276 777 OFFCURVE",
"278 776 OFFCURVE",
"279 774 CURVE SMOOTH",
"285 762 OFFCURVE",
"292 751 OFFCURVE",
"300 742 CURVE SMOOTH",
"302 739 OFFCURVE",
"302 736 OFFCURVE",
"304 733 CURVE"
);
},
{
closed = 1;
nodes = (
"353 474 OFFCURVE",
"351 468 OFFCURVE",
"348 463 CURVE SMOOTH",
"345 458 OFFCURVE",
"340 451 OFFCURVE",
"334 446 CURVE",
"316 445 OFFCURVE",
"298 440 OFFCURVE",
"282 434 CURVE",
"275 421 OFFCURVE",
"273 415 OFFCURVE",
"273 404 CURVE",
"274 397 OFFCURVE",
"273 391 OFFCURVE",
"270 384 CURVE",
"268 373 OFFCURVE",
"265 361 OFFCURVE",
"268 350 CURVE SMOOTH",
"269 345 OFFCURVE",
"268 340 OFFCURVE",
"267 337 CURVE",
"265 325 OFFCURVE",
"262 314 OFFCURVE",
"260 301 CURVE SMOOTH",
"259 294 OFFCURVE",
"259 286 OFFCURVE",
"259 279 CURVE",
"256 269 OFFCURVE",
"263 260 OFFCURVE",
"261 251 CURVE",
"258 241 OFFCURVE",
"259 231 OFFCURVE",
"259 222 CURVE",
"258 201 OFFCURVE",
"258 181 OFFCURVE",
"256 160 CURVE",
"256 155 OFFCURVE",
"258 150 OFFCURVE",
"259 145 CURVE SMOOTH",
"261 137 OFFCURVE",
"263 130 OFFCURVE",
"266 123 CURVE",
"270 116 OFFCURVE",
"276 113 OFFCURVE",
"284 112 CURVE SMOOTH",
"296 109 OFFCURVE",
"307 107 OFFCURVE",
"319 105 CURVE",
"324 105 OFFCURVE",
"329 103 OFFCURVE",
"335 102 CURVE",
"337 99 OFFCURVE",
"338 97 OFFCURVE",
"339 94 CURVE",
"342 86 OFFCURVE",
"343 78 OFFCURVE",
"346 72 CURVE",
"352 60 OFFCURVE",
"354 48 OFFCURVE",
"350 35 CURVE SMOOTH",
"345 23 OFFCURVE",
"346 9 OFFCURVE",
"347 -3 CURVE",
"347 -7 OFFCURVE",
"348 -10 OFFCURVE",
"347 -13 CURVE",
"346 -18 OFFCURVE",
"343 -23 OFFCURVE",
"338 -25 CURVE",
"335 -26 OFFCURVE",
"331 -28 OFFCURVE",
"329 -28 CURVE",
"321 -29 OFFCURVE",
"314 -30 OFFCURVE",
"307 -30 CURVE",
"299 -33 OFFCURVE",
"292 -36 OFFCURVE",
"285 -39 CURVE",
"279 -39 LINE",
"266 -37 OFFCURVE",
"252 -36 OFFCURVE",
"238 -39 CURVE",
"229 -40 OFFCURVE",
"218 -37 OFFCURVE",
"209 -40 CURVE",
"207 -41 OFFCURVE",
"205 -40 OFFCURVE",
"202 -40 CURVE",
"190 -36 OFFCURVE",
"177 -36 OFFCURVE",
"164 -38 CURVE SMOOTH",
"143 -43 OFFCURVE",
"120 -43 OFFCURVE",
"98 -44 CURVE",
"85 -44 OFFCURVE",
"71 -43 OFFCURVE",
"60 -46 CURVE SMOOTH",
"56 -47 OFFCURVE",
"51 -43 OFFCURVE",
"49 -39 CURVE SMOOTH",
"48 -36 OFFCURVE",
"47 -33 OFFCURVE",
"47 -30 CURVE SMOOTH",
"47 45 LINE SMOOTH",
"47 53 OFFCURVE",
"49 62 OFFCURVE",
"51 70 CURVE",
"63 81 OFFCURVE",
"75 89 OFFCURVE",
"90 92 CURVE",
"97 94 OFFCURVE",
"102 100 OFFCURVE",
"109 105 CURVE",
"116 103 OFFCURVE",
"124 101 OFFCURVE",
"130 101 CURVE",
"132 103 OFFCURVE",
"133 106 OFFCURVE",
"133 107 CURVE",
"130 129 OFFCURVE",
"131 152 OFFCURVE",
"130 175 CURVE",
"130 193 OFFCURVE",
"130 212 OFFCURVE",
"131 230 CURVE",
"131 247 OFFCURVE",
"130 265 OFFCURVE",
"125 281 CURVE",
"128 286 OFFCURVE",
"129 291 OFFCURVE",
"130 298 CURVE",
"126 312 OFFCURVE",
"125 327 OFFCURVE",
"129 342 CURVE",
"130 345 OFFCURVE",
"129 350 OFFCURVE",
"129 354 CURVE",
"130 368 OFFCURVE",
"131 382 OFFCURVE",
"136 396 CURVE",
"132 413 LINE",
"132 417 LINE",
"135 423 OFFCURVE",
"137 428 OFFCURVE",
"138 432 CURVE SMOOTH",
"139 436 OFFCURVE",
"138 439 OFFCURVE",
"136 442 CURVE",
"129 442 LINE",
"117 435 OFFCURVE",
"105 436 OFFCURVE",
"92 438 CURVE",
"81 442 OFFCURVE",
"69 445 OFFCURVE",
"57 444 CURVE",
"55 458 OFFCURVE",
"54 469 OFFCURVE",
"52 481 CURVE SMOOTH",
"51 492 OFFCURVE",
"48 503 OFFCURVE",
"47 513 CURVE SMOOTH",
"46 524 OFFCURVE",
"46 536 OFFCURVE",
"41 546 CURVE",
"60 562 OFFCURVE",
"81 565 OFFCURVE",
"100 570 CURVE",
"118 570 OFFCURVE",
"138 570 OFFCURVE",
"158 569 CURVE SMOOTH",
"171 568 OFFCURVE",
"185 566 OFFCURVE",
"198 562 CURVE SMOOTH",
"206 560 OFFCURVE",
"215 559 OFFCURVE",
"223 559 CURVE",
"233 560 OFFCURVE",
"245 561 OFFCURVE",
"254 561 CURVE",
"259 560 OFFCURVE",
"263 560 OFFCURVE",
"268 559 CURVE",
"276 565 OFFCURVE",
"286 564 OFFCURVE",
"296 562 CURVE",
"305 562 LINE",
"313 560 OFFCURVE",
"320 557 OFFCURVE",
"327 554 CURVE SMOOTH",
"332 552 OFFCURVE",
"339 553 OFFCURVE",
"345 547 CURVE",
"346 546 OFFCURVE",
"348 543 OFFCURVE",
"348 541 CURVE",
"354 520 OFFCURVE",
"354 499 OFFCURVE",
"353 480 CURVE"
);
}
);
width = 396;
}
);
unicode = 00CD;
},
{
glyphname = Icircumflex;
lastChange = "2020-11-04 23:12:10 +0000";
layers = (
{
layerId = master01;
paths = (
{
closed = 1;
nodes = (
"330 666 OFFCURVE",
"329 660 OFFCURVE",
"325 658 CURVE SMOOTH",
"321 654 OFFCURVE",
"315 651 OFFCURVE",
"309 647 CURVE SMOOTH",
"300 643 OFFCURVE",
"294 636 OFFCURVE",
"288 629 CURVE",
"274 624 OFFCURVE",
"262 630 OFFCURVE",
"252 637 CURVE",
"239 651 OFFCURVE",
"227 665 OFFCURVE",
"215 679 CURVE SMOOTH",
"210 683 OFFCURVE",
"207 689 OFFCURVE",
"204 693 CURVE SMOOTH",
"198 702 OFFCURVE",
"198 702 OFFCURVE",
"182 706 CURVE",
"176 703 OFFCURVE",
"169 699 OFFCURVE",
"162 695 CURVE",
"158 688 OFFCURVE",
"152 679 OFFCURVE",
"147 670 CURVE",
"132 661 OFFCURVE",
"121 650 OFFCURVE",
"108 637 CURVE SMOOTH",
"101 630 LINE",
"98 628 OFFCURVE",
"90 628 OFFCURVE",
"86 631 CURVE",
"82 637 OFFCURVE",
"77 643 OFFCURVE",
"71 650 CURVE",
"67 652 OFFCURVE",
"61 656 OFFCURVE",
"56 658 CURVE",
"54 660 OFFCURVE",
"53 661 OFFCURVE",
"52 664 CURVE",
"48 673 OFFCURVE",
"45 683 OFFCURVE",
"41 693 CURVE",
"41 695 OFFCURVE",
"43 698 OFFCURVE",
"44 699 CURVE",
"54 706 OFFCURVE",
"63 715 OFFCURVE",
"75 721 CURVE SMOOTH",
"86 728 OFFCURVE",
"95 736 OFFCURVE",
"106 744 CURVE SMOOTH",
"110 747 OFFCURVE",
"114 751 OFFCURVE",
"117 756 CURVE SMOOTH",
"128 768 OFFCURVE",
"139 782 OFFCURVE",
"150 796 CURVE",
"173 799 OFFCURVE",
"195 799 OFFCURVE",
"220 802 CURVE",
"241 784 OFFCURVE",
"258 761 OFFCURVE",
"274 736 CURVE",
"279 731 OFFCURVE",
"288 726 OFFCURVE",
"297 719 CURVE",
"306 702 OFFCURVE",
"314 685 OFFCURVE",
"327 672 CURVE",
"328 672 OFFCURVE",
"328 670 OFFCURVE",
"329 669 CURVE"
);
},
{
closed = 1;
nodes = (
"347 32 OFFCURVE",
"346 26 OFFCURVE",
"344 22 CURVE",
"345 16 OFFCURVE",
"346 12 OFFCURVE",
"347 5 CURVE",
"345 -1 OFFCURVE",
"343 -9 OFFCURVE",
"340 -16 CURVE",
"338 -17 OFFCURVE",
"337 -18 OFFCURVE",
"335 -20 CURVE",
"324 -22 OFFCURVE",
"313 -25 OFFCURVE",
"301 -29 CURVE SMOOTH",
"293 -31 OFFCURVE",
"284 -33 OFFCURVE",
"276 -33 CURVE SMOOTH",
"273 -33 OFFCURVE",
"269 -33 OFFCURVE",
"267 -35 CURVE",
"251 -40 OFFCURVE",
"235 -40 OFFCURVE",
"218 -39 CURVE",
"205 -39 OFFCURVE",
"191 -40 OFFCURVE",
"176 -45 CURVE",
"163 -44 OFFCURVE",
"150 -41 OFFCURVE",
"137 -39 CURVE",
"120 -29 LINE",
"115 -32 OFFCURVE",
"110 -35 OFFCURVE",
"105 -37 CURVE",
"101 -35 OFFCURVE",
"97 -31 OFFCURVE",
"91 -28 CURVE",
"82 -28 OFFCURVE",
"70 -26 OFFCURVE",
"61 -26 CURVE",
"59 -24 OFFCURVE",
"56 -23 OFFCURVE",
"56 -21 CURVE",
"53 -12 OFFCURVE",
"51 -2 OFFCURVE",
"49 7 CURVE SMOOTH",
"48 14 OFFCURVE",
"48 21 OFFCURVE",
"51 26 CURVE",
"53 36 OFFCURVE",
"51 44 OFFCURVE",
"48 54 CURVE",
"51 62 OFFCURVE",
"54 70 OFFCURVE",
"56 78 CURVE",
"61 85 OFFCURVE",
"67 89 OFFCURVE",
"74 86 CURVE",
"82 85 OFFCURVE",
"89 85 OFFCURVE",
"97 86 CURVE SMOOTH",
"108 89 OFFCURVE",
"120 85 OFFCURVE",
"130 90 CURVE",
"135 93 OFFCURVE",
"137 97 OFFCURVE",
"137 101 CURVE",
"136 113 OFFCURVE",
"135 124 OFFCURVE",
"137 137 CURVE",
"137 139 OFFCURVE",
"136 143 OFFCURVE",
"135 146 CURVE SMOOTH",
"131 156 OFFCURVE",
"131 167 OFFCURVE",
"135 178 CURVE SMOOTH",
"138 194 OFFCURVE",
"139 209 OFFCURVE",
"135 225 CURVE SMOOTH",
"133 230 OFFCURVE",
"132 235 OFFCURVE",
"132 238 CURVE SMOOTH",
"132 288 LINE",
"136 296 OFFCURVE",
"139 304 OFFCURVE",
"141 309 CURVE",
"140 330 OFFCURVE",
"139 350 OFFCURVE",
"139 369 CURVE SMOOTH",
"139 379 OFFCURVE",
"139 389 OFFCURVE",
"135 398 CURVE",
"129 407 OFFCURVE",
"128 417 OFFCURVE",
"125 428 CURVE",
"125 430 OFFCURVE",
"124 432 OFFCURVE",
"123 435 CURVE",
"113 443 OFFCURVE",
"101 442 OFFCURVE",
"90 437 CURVE",
"75 438 OFFCURVE",
"61 445 OFFCURVE",
"47 448 CURVE",
"44 458 OFFCURVE",
"49 463 OFFCURVE",
"48 471 CURVE",
"48 478 OFFCURVE",
"48 486 OFFCURVE",
"47 494 CURVE",
"47 500 OFFCURVE",
"46 507 OFFCURVE",
"45 513 CURVE",
"45 519 OFFCURVE",
"43 524 OFFCURVE",
"43 529 CURVE SMOOTH",
"43 536 OFFCURVE",
"44 543 OFFCURVE",
"44 547 CURVE",
"47 557 OFFCURVE",
"57 555 OFFCURVE",
"62 562 CURVE SMOOTH",
"64 566 OFFCURVE",
"67 570 OFFCURVE",
"69 575 CURVE",
"71 576 OFFCURVE",
"74 577 OFFCURVE",
"75 577 CURVE",
"79 577 OFFCURVE",
"84 576 OFFCURVE",
"87 576 CURVE",
"103 573 OFFCURVE",
"120 574 OFFCURVE",
"136 576 CURVE SMOOTH",
"144 577 OFFCURVE",
"153 578 OFFCURVE",
"160 580 CURVE",
"167 580 OFFCURVE",
"171 577 OFFCURVE",
"177 577 CURVE",
"186 580 OFFCURVE",
"195 578 OFFCURVE",
"206 578 CURVE",
"221 577 OFFCURVE",
"235 574 OFFCURVE",
"250 580 CURVE SMOOTH",
"253 581 OFFCURVE",
"256 581 OFFCURVE",
"260 580 CURVE",
"273 577 OFFCURVE",
"284 575 OFFCURVE",
"297 573 CURVE",
"298 573 OFFCURVE",
"299 572 OFFCURVE",
"299 572 CURVE",
"304 569 OFFCURVE",
"305 565 OFFCURVE",
"306 560 CURVE SMOOTH",
"308 552 OFFCURVE",
"314 545 OFFCURVE",
"320 539 CURVE",
"319 532 OFFCURVE",
"317 526 OFFCURVE",
"317 520 CURVE SMOOTH",
"317 514 OFFCURVE",
"319 509 OFFCURVE",
"320 504 CURVE SMOOTH",
"321 499 OFFCURVE",
"321 496 OFFCURVE",
"320 491 CURVE SMOOTH",
"319 486 OFFCURVE",
"319 481 OFFCURVE",
"319 475 CURVE",
"304 468 OFFCURVE",
"288 468 OFFCURVE",
"276 459 CURVE",
"270 448 OFFCURVE",
"273 439 OFFCURVE",
"271 431 CURVE",
"271 427 OFFCURVE",
"273 421 OFFCURVE",
"274 415 CURVE SMOOTH",
"275 409 OFFCURVE",
"275 402 OFFCURVE",
"275 396 CURVE",
"269 382 OFFCURVE",
"265 368 OFFCURVE",
"262 353 CURVE SMOOTH",
"261 346 OFFCURVE",
"260 340 OFFCURVE",
"260 334 CURVE",
"259 319 OFFCURVE",
"259 304 OFFCURVE",
"254 289 CURVE SMOOTH",
"251 277 OFFCURVE",
"254 266 OFFCURVE",
"258 253 CURVE",
"255 245 OFFCURVE",
"253 235 OFFCURVE",
"251 225 CURVE",
"251 220 LINE SMOOTH",
"251 214 OFFCURVE",
"253 208 OFFCURVE",
"253 204 CURVE",
"254 185 OFFCURVE",
"252 167 OFFCURVE",
"256 148 CURVE",
"258 146 OFFCURVE",
"256 143 OFFCURVE",
"255 139 CURVE",
"255 136 OFFCURVE",
"254 132 OFFCURVE",
"255 130 CURVE",
"258 121 OFFCURVE",
"252 113 OFFCURVE",
"255 103 CURVE",
"262 95 OFFCURVE",
"273 91 OFFCURVE",
"282 83 CURVE",
"286 83 OFFCURVE",
"293 82 OFFCURVE",
"299 82 CURVE SMOOTH",
"314 82 OFFCURVE",
"327 78 OFFCURVE",
"340 74 CURVE",
"343 72 OFFCURVE",
"344 70 OFFCURVE",
"346 69 CURVE",
"346 59 OFFCURVE",
"347 48 OFFCURVE",
"348 39 CURVE"
);
}
);
width = 391;
}
);
unicode = 00CE;
},
{
glyphname = Idieresis;
lastChange = "2020-11-04 23:12:10 +0000";
layers = (
{
layerId = master01;
paths = (
{
closed = 1;
nodes = (
"342 670 OFFCURVE",
"335 660 OFFCURVE",
"328 652 CURVE",
"312 644 OFFCURVE",
"296 639 OFFCURVE",
"276 644 CURVE",
"263 654 OFFCURVE",
"251 668 OFFCURVE",
"239 680 CURVE",
"236 689 OFFCURVE",
"236 696 OFFCURVE",
"235 703 CURVE SMOOTH",
"233 711 OFFCURVE",
"231 718 OFFCURVE",
"229 725 CURVE",
"231 728 OFFCURVE",
"233 730 OFFCURVE",
"236 733 CURVE",
"237 734 OFFCURVE",
"238 736 OFFCURVE",
"238 737 CURVE",
"238 747 LINE",
"250 760 OFFCURVE",
"261 773 OFFCURVE",
"276 781 CURVE",
"285 780 OFFCURVE",
"293 780 OFFCURVE",
"302 779 CURVE",
"302 779 OFFCURVE",
"304 779 OFFCURVE",
"305 777 CURVE",
"313 769 OFFCURVE",
"321 761 OFFCURVE",
"329 752 CURVE SMOOTH",
"335 745 OFFCURVE",
"340 738 OFFCURVE",
"347 730 CURVE",
"350 713 OFFCURVE",
"351 697 OFFCURVE",
"347 679 CURVE"
);
},
{
closed = 1;
nodes = (
"168 720 OFFCURVE",
"162 713 OFFCURVE",
"166 704 CURVE",
"155 684 OFFCURVE",
"153 664 OFFCURVE",
"136 651 CURVE",
"131 649 OFFCURVE",
"124 646 OFFCURVE",
"118 644 CURVE",
"102 639 OFFCURVE",
"87 642 OFFCURVE",
"71 647 CURVE SMOOTH",
"59 651 OFFCURVE",
"53 660 OFFCURVE",
"49 673 CURVE",
"48 680 OFFCURVE",
"48 688 OFFCURVE",
"47 695 CURVE",
"47 706 OFFCURVE",
"47 716 OFFCURVE",
"51 729 CURVE",
"56 738 OFFCURVE",
"63 749 OFFCURVE",
"70 760 CURVE",
"75 764 OFFCURVE",
"79 766 OFFCURVE",
"84 768 CURVE",
"95 776 OFFCURVE",
"108 776 OFFCURVE",
"121 774 CURVE SMOOTH",
"135 770 OFFCURVE",
"147 766 OFFCURVE",
"159 756 CURVE",
"162 747 OFFCURVE",
"167 739 OFFCURVE",
"168 729 CURVE"
);
},
{
closed = 1;
nodes = (
"361 1 OFFCURVE",
"357 -6 OFFCURVE",
"350 -9 CURVE",
"335 -14 OFFCURVE",
"320 -21 OFFCURVE",
"304 -20 CURVE",
"300 -20 OFFCURVE",
"297 -18 OFFCURVE",
"293 -20 CURVE",
"274 -24 OFFCURVE",
"253 -24 OFFCURVE",
"233 -28 CURVE SMOOTH",
"218 -31 OFFCURVE",
"206 -30 OFFCURVE",
"192 -28 CURVE SMOOTH",
"184 -26 OFFCURVE",
"177 -26 OFFCURVE",
"169 -28 CURVE SMOOTH",
"156 -29 OFFCURVE",
"143 -29 OFFCURVE",
"129 -31 CURVE SMOOTH",
"116 -32 OFFCURVE",
"102 -31 OFFCURVE",
"90 -31 CURVE SMOOTH",
"82 -31 OFFCURVE",
"75 -32 OFFCURVE",
"68 -36 CURVE SMOOTH",
"66 -37 OFFCURVE",
"61 -35 OFFCURVE",
"60 -32 CURVE",
"55 -20 OFFCURVE",
"52 -8 OFFCURVE",
"47 5 CURVE",
"48 14 OFFCURVE",
"51 22 OFFCURVE",
"52 30 CURVE SMOOTH",
"53 44 OFFCURVE",
"52 56 OFFCURVE",
"44 68 CURVE",
"41 70 OFFCURVE",
"41 74 OFFCURVE",
"40 76 CURVE",
"40 79 OFFCURVE",
"43 86 OFFCURVE",
"46 87 CURVE SMOOTH",
"62 92 OFFCURVE",
"77 103 OFFCURVE",
"94 105 CURVE",
"100 106 OFFCURVE",
"107 106 OFFCURVE",
"113 107 CURVE",
"114 108 OFFCURVE",
"115 108 OFFCURVE",
"115 109 CURVE",
"116 110 OFFCURVE",
"116 112 OFFCURVE",
"116 113 CURVE",
"118 124 OFFCURVE",
"121 136 OFFCURVE",
"122 147 CURVE",
"121 152 OFFCURVE",
"121 155 OFFCURVE",
"118 162 CURVE",
"123 177 OFFCURVE",
"122 194 OFFCURVE",
"126 212 CURVE",
"123 223 OFFCURVE",
"126 235 OFFCURVE",
"129 246 CURVE",
"129 251 OFFCURVE",
"128 254 OFFCURVE",
"128 259 CURVE SMOOTH",
"128 265 LINE",
"130 269 OFFCURVE",
"132 273 OFFCURVE",
"135 276 CURVE",
"133 283 OFFCURVE",
"131 289 OFFCURVE",
"130 296 CURVE SMOOTH",
"129 304 OFFCURVE",
"129 313 OFFCURVE",
"129 321 CURVE SMOOTH",
"129 330 OFFCURVE",
"130 338 OFFCURVE",
"131 346 CURVE SMOOTH",
"132 357 OFFCURVE",
"133 366 OFFCURVE",
"132 375 CURVE SMOOTH",
"131 383 OFFCURVE",
"135 390 OFFCURVE",
"136 400 CURVE",
"131 413 OFFCURVE",
"130 427 OFFCURVE",
"135 442 CURVE SMOOTH",
"137 447 OFFCURVE",
"130 452 OFFCURVE",
"124 450 CURVE",
"123 450 OFFCURVE",
"122 448 OFFCURVE",
"122 448 CURVE",
"116 447 OFFCURVE",
"112 444 OFFCURVE",
"106 444 CURVE",
"93 443 OFFCURVE",
"81 443 OFFCURVE",
"68 442 CURVE",
"67 442 OFFCURVE",
"66 443 OFFCURVE",
"64 443 CURVE",
"54 444 OFFCURVE",
"46 455 OFFCURVE",
"48 467 CURVE SMOOTH",
"49 474 OFFCURVE",
"51 481 OFFCURVE",
"48 489 CURVE SMOOTH",
"47 493 OFFCURVE",
"48 497 OFFCURVE",
"49 501 CURVE SMOOTH",
"53 519 OFFCURVE",
"55 536 OFFCURVE",
"55 553 CURVE",
"68 575 OFFCURVE",
"91 582 OFFCURVE",
"113 593 CURVE",
"126 596 OFFCURVE",
"141 596 OFFCURVE",
"155 600 CURVE SMOOTH",
"163 603 OFFCURVE",
"173 601 OFFCURVE",
"182 601 CURVE",
"191 598 OFFCURVE",
"199 595 OFFCURVE",
"208 591 CURVE",
"217 591 LINE",
"220 591 OFFCURVE",
"222 592 OFFCURVE",
"224 592 CURVE",
"243 588 OFFCURVE",
"260 588 OFFCURVE",
"278 589 CURVE SMOOTH",
"293 590 OFFCURVE",
"306 588 OFFCURVE",
"320 583 CURVE",
"323 584 OFFCURVE",
"328 585 OFFCURVE",
"332 587 CURVE SMOOTH",
"337 588 OFFCURVE",
"344 584 OFFCURVE",
"345 580 CURVE SMOOTH",
"348 560 OFFCURVE",
"354 539 OFFCURVE",
"353 519 CURVE",
"353 514 OFFCURVE",
"352 508 OFFCURVE",
"350 504 CURVE",
"345 485 OFFCURVE",
"342 468 OFFCURVE",
"339 450 CURVE",
"339 445 OFFCURVE",
"337 442 OFFCURVE",
"335 438 CURVE",
"319 432 OFFCURVE",
"301 439 OFFCURVE",
"288 428 CURVE",
"282 421 OFFCURVE",
"281 412 OFFCURVE",
"278 404 CURVE SMOOTH",
"274 384 OFFCURVE",
"268 365 OFFCURVE",
"270 343 CURVE",
"270 332 OFFCURVE",
"269 322 OFFCURVE",
"266 312 CURVE SMOOTH",
"263 304 OFFCURVE",
"262 294 OFFCURVE",
"262 285 CURVE",
"263 260 OFFCURVE",
"265 233 OFFCURVE",
"262 208 CURVE",
"261 205 OFFCURVE",
"261 201 OFFCURVE",
"262 199 CURVE",
"266 187 OFFCURVE",
"263 177 OFFCURVE",
"263 167 CURVE SMOOTH",
"263 158 OFFCURVE",
"263 150 OFFCURVE",
"265 140 CURVE SMOOTH",
"266 131 OFFCURVE",
"270 124 OFFCURVE",
"279 122 CURVE SMOOTH",
"286 120 OFFCURVE",
"291 117 OFFCURVE",
"296 113 CURVE SMOOTH",
"302 106 OFFCURVE",
"311 102 OFFCURVE",
"320 102 CURVE SMOOTH",
"329 102 OFFCURVE",
"338 101 OFFCURVE",
"347 101 CURVE",
"353 99 OFFCURVE",
"357 95 OFFCURVE",
"360 87 CURVE",
"360 68 OFFCURVE",
"362 47 OFFCURVE",
"358 25 CURVE",
"358 21 OFFCURVE",
"359 15 OFFCURVE",
"360 9 CURVE SMOOTH"
);
}
);
width = 407;
}
);
unicode = 00CF;
},
{
glyphname = Igrave;
lastChange = "2020-11-04 23:12:10 +0000";
layers = (
{
layerId = master01;
paths = (
{
closed = 1;
nodes = (
"260 684 OFFCURVE",
"261 677 OFFCURVE",
"258 672 CURVE",
"255 666 OFFCURVE",
"255 666 OFFCURVE",
"229 656 CURVE",
"225 657 OFFCURVE",
"221 657 OFFCURVE",
"216 658 CURVE",
"213 658 OFFCURVE",
"208 658 OFFCURVE",
"205 659 CURVE",
"200 661 OFFCURVE",
"195 665 OFFCURVE",
"189 668 CURVE",
"186 673 OFFCURVE",
"184 677 OFFCURVE",
"182 683 CURVE SMOOTH",
"179 688 OFFCURVE",
"178 695 OFFCURVE",
"177 699 CURVE",
"174 702 OFFCURVE",
"171 704 OFFCURVE",
"167 707 CURVE",
"166 711 OFFCURVE",
"166 715 OFFCURVE",
"164 720 CURVE SMOOTH",
"162 728 OFFCURVE",
"158 734 OFFCURVE",
"150 736 CURVE",
"147 737 OFFCURVE",
"146 738 OFFCURVE",
"144 738 CURVE",
"133 756 LINE",
"129 760 OFFCURVE",
"123 765 OFFCURVE",
"120 769 CURVE SMOOTH",
"116 774 OFFCURVE",
"116 779 OFFCURVE",
"118 783 CURVE SMOOTH",
"128 802 OFFCURVE",
"141 814 OFFCURVE",
"161 820 CURVE SMOOTH",
"171 823 OFFCURVE",
"181 827 OFFCURVE",
"191 831 CURVE SMOOTH",
"200 836 OFFCURVE",
"213 833 OFFCURVE",
"220 823 CURVE SMOOTH",
"223 819 OFFCURVE",
"227 813 OFFCURVE",
"229 806 CURVE SMOOTH",
"232 797 OFFCURVE",
"235 785 OFFCURVE",
"239 776 CURVE",
"243 766 OFFCURVE",
"245 756 OFFCURVE",
"247 745 CURVE",
"244 731 LINE",
"247 718 OFFCURVE",
"251 704 OFFCURVE",
"259 692 CURVE"
);
},
{
closed = 1;
nodes = (
"360 528 OFFCURVE",
"357 521 OFFCURVE",
"353 514 CURVE",
"354 509 OFFCURVE",
"354 506 OFFCURVE",
"354 499 CURVE",
"352 496 OFFCURVE",
"350 490 OFFCURVE",
"347 484 CURVE",
"344 483 OFFCURVE",
"342 482 OFFCURVE",
"340 482 CURVE",
"329 481 OFFCURVE",
"316 480 OFFCURVE",
"305 478 CURVE",
"300 478 OFFCURVE",
"296 473 OFFCURVE",
"294 468 CURVE",
"292 452 OFFCURVE",
"292 436 OFFCURVE",
"297 421 CURVE",
"293 408 OFFCURVE",
"288 398 OFFCURVE",
"281 388 CURVE",
"279 375 OFFCURVE",
"282 362 OFFCURVE",
"276 350 CURVE",
"275 323 OFFCURVE",
"269 297 OFFCURVE",
"267 269 CURVE SMOOTH",
"266 253 OFFCURVE",
"267 235 OFFCURVE",
"267 218 CURVE SMOOTH",
"267 201 OFFCURVE",
"268 183 OFFCURVE",
"263 166 CURVE",
"265 160 OFFCURVE",
"266 154 OFFCURVE",
"269 148 CURVE",
"273 139 OFFCURVE",
"279 135 OFFCURVE",
"289 133 CURVE",
"294 133 OFFCURVE",
"301 135 OFFCURVE",
"308 132 CURVE",
"317 132 OFFCURVE",
"327 128 OFFCURVE",
"336 124 CURVE",
"337 122 OFFCURVE",
"339 120 OFFCURVE",
"342 116 CURVE",
"342 95 OFFCURVE",
"346 74 OFFCURVE",
"339 53 CURVE",
"339 31 OFFCURVE",
"331 10 OFFCURVE",
"329 -12 CURVE",
"327 -13 OFFCURVE",
"323 -16 OFFCURVE",
"321 -16 CURVE",
"311 -14 OFFCURVE",
"300 -14 OFFCURVE",
"289 -14 CURVE SMOOTH",
"281 -14 OFFCURVE",
"273 -12 OFFCURVE",
"266 -10 CURVE",
"243 -12 OFFCURVE",
"224 -13 OFFCURVE",
"205 -14 CURVE",
"199 -17 OFFCURVE",
"192 -20 OFFCURVE",
"185 -23 CURVE",
"178 -22 OFFCURVE",
"171 -21 OFFCURVE",
"163 -21 CURVE",
"155 -20 OFFCURVE",
"148 -14 OFFCURVE",
"139 -14 CURVE SMOOTH",
"131 -14 OFFCURVE",
"124 -10 OFFCURVE",
"117 -8 CURVE",
"112 -10 OFFCURVE",
"107 -13 OFFCURVE",
"102 -13 CURVE SMOOTH",
"87 -13 OFFCURVE",
"75 -15 OFFCURVE",
"61 -20 CURVE",
"59 -20 OFFCURVE",
"56 -18 OFFCURVE",
"54 -17 CURVE",
"53 -15 OFFCURVE",
"51 -13 OFFCURVE",
"51 -9 CURVE",
"43 26 OFFCURVE",
"43 26 OFFCURVE",
"44 61 CURVE",
"46 72 OFFCURVE",
"56 78 OFFCURVE",
"62 89 CURVE",
"61 92 OFFCURVE",
"60 97 OFFCURVE",
"59 101 CURVE",
"61 110 OFFCURVE",
"67 117 OFFCURVE",
"71 126 CURVE",
"72 128 OFFCURVE",
"74 129 OFFCURVE",
"76 130 CURVE",
"79 133 OFFCURVE",
"84 130 OFFCURVE",
"89 131 CURVE SMOOTH",
"94 132 OFFCURVE",
"100 133 OFFCURVE",
"107 136 CURVE SMOOTH",
"115 139 OFFCURVE",
"123 141 OFFCURVE",
"131 145 CURVE SMOOTH",
"135 146 OFFCURVE",
"137 151 OFFCURVE",
"138 155 CURVE SMOOTH",
"139 159 OFFCURVE",
"140 163 OFFCURVE",
"139 168 CURVE",
"138 177 OFFCURVE",
"143 186 OFFCURVE",
"144 194 CURVE SMOOTH",
"145 207 OFFCURVE",
"137 216 OFFCURVE",
"136 229 CURVE",
"137 232 OFFCURVE",
"138 238 OFFCURVE",
"139 243 CURVE",
"141 248 OFFCURVE",
"143 255 OFFCURVE",
"143 262 CURVE",
"141 265 OFFCURVE",
"141 268 OFFCURVE",
"143 271 CURVE SMOOTH",
"148 290 OFFCURVE",
"147 309 OFFCURVE",
"146 329 CURVE",
"146 347 OFFCURVE",
"145 366 OFFCURVE",
"146 384 CURVE SMOOTH",
"147 404 OFFCURVE",
"146 423 OFFCURVE",
"147 443 CURVE",
"147 447 OFFCURVE",
"146 453 OFFCURVE",
"146 459 CURVE",
"145 466 OFFCURVE",
"141 470 OFFCURVE",
"135 471 CURVE SMOOTH",
"124 473 OFFCURVE",
"113 473 OFFCURVE",
"102 477 CURVE",
"94 482 OFFCURVE",
"84 476 OFFCURVE",
"75 481 CURVE SMOOTH",
"62 488 OFFCURVE",
"62 500 OFFCURVE",
"57 509 CURVE",
"61 529 OFFCURVE",
"64 547 OFFCURVE",
"63 566 CURVE",
"63 570 OFFCURVE",
"64 576 OFFCURVE",
"66 581 CURVE SMOOTH",
"67 589 OFFCURVE",
"69 596 OFFCURVE",
"71 604 CURVE",
"75 605 OFFCURVE",
"77 607 OFFCURVE",
"81 607 CURVE",
"87 608 OFFCURVE",
"94 607 OFFCURVE",
"102 608 CURVE",
"124 608 OFFCURVE",
"147 606 OFFCURVE",
"169 611 CURVE",
"174 611 OFFCURVE",
"178 610 OFFCURVE",
"183 610 CURVE",
"185 611 OFFCURVE",
"189 611 OFFCURVE",
"191 613 CURVE",
"198 618 OFFCURVE",
"205 620 OFFCURVE",
"212 620 CURVE",
"222 621 OFFCURVE",
"231 619 OFFCURVE",
"240 616 CURVE SMOOTH",
"248 614 OFFCURVE",
"258 614 OFFCURVE",
"265 619 CURVE",
"277 614 OFFCURVE",
"291 614 OFFCURVE",
"299 604 CURVE",
"309 605 OFFCURVE",
"317 607 OFFCURVE",
"325 605 CURVE SMOOTH",
"331 604 OFFCURVE",
"336 607 OFFCURVE",
"342 607 CURVE",
"350 608 OFFCURVE",
"354 608 OFFCURVE",
"359 597 CURVE SMOOTH",
"360 595 OFFCURVE",
"361 591 OFFCURVE",
"362 588 CURVE",
"361 581 OFFCURVE",
"359 574 OFFCURVE",
"358 566 CURVE",
"359 555 OFFCURVE",
"361 545 OFFCURVE",
"363 534 CURVE"
);
}
);
width = 407;
}
);
unicode = 00CC;
},
{
glyphname = J;
lastChange = "2020-11-04 23:12:10 +0000";
layers = (
{
layerId = master01;
paths = (
{
closed = 1;
nodes = (
"513 459 OFFCURVE",
"512 448 OFFCURVE",
"512 437 CURVE SMOOTH",
"512 431 OFFCURVE",
"511 424 OFFCURVE",
"509 419 CURVE",
"507 412 OFFCURVE",
"503 404 OFFCURVE",
"503 397 CURVE SMOOTH",
"503 386 OFFCURVE",
"501 376 OFFCURVE",
"501 366 CURVE SMOOTH",
"501 347 OFFCURVE",
"500 329 OFFCURVE",
"500 311 CURVE",
"499 301 OFFCURVE",
"499 292 OFFCURVE",
"498 279 CURVE",
"494 274 OFFCURVE",
"489 266 OFFCURVE",
"484 260 CURVE",
"481 251 OFFCURVE",
"485 245 OFFCURVE",
"485 240 CURVE",
"483 229 OFFCURVE",
"483 220 OFFCURVE",
"480 210 CURVE",
"477 201 OFFCURVE",
"474 192 OFFCURVE",
"474 183 CURVE SMOOTH",
"474 178 OFFCURVE",
"471 175 OFFCURVE",
"470 170 CURVE SMOOTH",
"463 150 OFFCURVE",
"457 130 OFFCURVE",
"451 109 CURVE",
"448 105 OFFCURVE",
"448 99 OFFCURVE",
"447 93 CURVE",
"443 87 OFFCURVE",
"437 83 OFFCURVE",
"434 76 CURVE",
"429 70 OFFCURVE",
"427 63 OFFCURVE",
"422 56 CURVE SMOOTH",
"419 51 OFFCURVE",
"414 44 OFFCURVE",
"409 38 CURVE",
"400 23 OFFCURVE",
"390 7 OFFCURVE",
"381 -8 CURVE",
"370 -12 OFFCURVE",
"366 -21 OFFCURVE",
"359 -28 CURVE",
"347 -33 OFFCURVE",
"335 -39 OFFCURVE",
"321 -45 CURVE",
"312 -44 OFFCURVE",
"302 -43 OFFCURVE",
"292 -41 CURVE",
"282 -45 OFFCURVE",
"271 -49 OFFCURVE",
"259 -54 CURVE",
"254 -51 OFFCURVE",
"250 -47 OFFCURVE",
"245 -43 CURVE",
"236 -40 OFFCURVE",
"229 -47 OFFCURVE",
"220 -49 CURVE",
"212 -49 OFFCURVE",
"204 -48 OFFCURVE",
"194 -48 CURVE",
"189 -44 OFFCURVE",
"182 -39 OFFCURVE",
"177 -33 CURVE SMOOTH",
"166 -18 OFFCURVE",
"148 -9 OFFCURVE",
"131 0 CURVE",
"129 2 OFFCURVE",
"125 3 OFFCURVE",
"124 6 CURVE",
"116 16 OFFCURVE",
"103 22 OFFCURVE",
"94 31 CURVE",
"85 44 OFFCURVE",
"78 57 OFFCURVE",
"75 75 CURVE SMOOTH",
"72 84 OFFCURVE",
"69 92 OFFCURVE",
"66 101 CURVE",
"64 108 OFFCURVE",
"61 114 OFFCURVE",
"57 118 CURVE SMOOTH",
"54 123 OFFCURVE",
"53 129 OFFCURVE",
"54 133 CURVE SMOOTH",
"55 140 OFFCURVE",
"51 144 OFFCURVE",
"48 150 CURVE",
"49 153 OFFCURVE",
"51 156 OFFCURVE",
"51 161 CURVE",
"54 163 OFFCURVE",
"56 167 OFFCURVE",
"53 171 CURVE",
"51 176 OFFCURVE",
"46 179 OFFCURVE",
"44 184 CURVE",
"41 186 OFFCURVE",
"41 190 OFFCURVE",
"40 193 CURVE",
"47 217 LINE",
"51 218 OFFCURVE",
"54 222 OFFCURVE",
"56 222 CURVE",
"71 223 OFFCURVE",
"85 229 OFFCURVE",
"99 236 CURVE SMOOTH",
"106 239 OFFCURVE",
"113 240 OFFCURVE",
"120 244 CURVE SMOOTH",
"133 250 OFFCURVE",
"147 247 OFFCURVE",
"161 248 CURVE",
"163 248 OFFCURVE",
"166 246 OFFCURVE",
"168 244 CURVE",
"171 232 OFFCURVE",
"171 221 OFFCURVE",
"176 209 CURVE SMOOTH",
"179 199 OFFCURVE",
"182 189 OFFCURVE",
"187 179 CURVE SMOOTH",
"193 170 OFFCURVE",
"197 160 OFFCURVE",
"200 150 CURVE",
"209 140 OFFCURVE",
"218 130 OFFCURVE",
"229 121 CURVE",
"230 118 OFFCURVE",
"232 120 OFFCURVE",
"236 118 CURVE",
"240 123 OFFCURVE",
"246 128 OFFCURVE",
"253 132 CURVE",
"262 133 OFFCURVE",
"271 133 OFFCURVE",
"278 135 CURVE",
"291 139 OFFCURVE",
"299 145 OFFCURVE",
"302 156 CURVE SMOOTH",
"304 161 OFFCURVE",
"306 164 OFFCURVE",
"309 168 CURVE",
"312 171 OFFCURVE",
"311 176 OFFCURVE",
"312 182 CURVE",
"314 184 OFFCURVE",
"317 189 OFFCURVE",
"321 193 CURVE",
"321 199 OFFCURVE",
"322 206 OFFCURVE",
"323 212 CURVE",
"327 216 OFFCURVE",
"329 221 OFFCURVE",
"332 224 CURVE",
"334 227 OFFCURVE",
"334 229 OFFCURVE",
"334 231 CURVE",
"336 246 OFFCURVE",
"334 261 OFFCURVE",
"340 275 CURVE",
"342 278 OFFCURVE",
"342 282 OFFCURVE",
"342 285 CURVE",
"340 300 OFFCURVE",
"342 315 OFFCURVE",
"346 329 CURVE",
"350 344 OFFCURVE",
"347 359 OFFCURVE",
"346 375 CURVE",
"338 388 LINE",
"337 394 OFFCURVE",
"342 402 OFFCURVE",
"338 409 CURVE SMOOTH",
"336 415 OFFCURVE",
"336 422 OFFCURVE",
"337 429 CURVE",
"340 432 OFFCURVE",
"344 436 OFFCURVE",
"348 439 CURVE",
"346 445 OFFCURVE",
"339 445 OFFCURVE",
"338 457 CURVE",
"338 461 OFFCURVE",
"342 470 OFFCURVE",
"338 480 CURVE",
"342 491 OFFCURVE",
"338 503 OFFCURVE",
"340 514 CURVE",
"342 527 OFFCURVE",
"342 541 OFFCURVE",
"338 553 CURVE SMOOTH",
"336 560 OFFCURVE",
"337 568 OFFCURVE",
"336 575 CURVE",
"342 582 OFFCURVE",
"347 589 OFFCURVE",
"352 596 CURVE SMOOTH",
"357 603 OFFCURVE",
"360 611 OFFCURVE",
"363 619 CURVE",
"366 620 OFFCURVE",
"369 622 OFFCURVE",
"371 622 CURVE",
"384 624 OFFCURVE",
"397 626 OFFCURVE",
"408 634 CURVE SMOOTH",
"414 637 OFFCURVE",
"422 638 OFFCURVE",
"430 641 CURVE",
"439 637 OFFCURVE",
"450 634 OFFCURVE",
"460 629 CURVE",
"466 630 OFFCURVE",
"470 633 OFFCURVE",
"476 633 CURVE",
"480 634 OFFCURVE",
"484 634 OFFCURVE",
"489 633 CURVE",
"491 631 OFFCURVE",
"493 629 OFFCURVE",
"497 627 CURVE",
"498 623 OFFCURVE",
"499 619 OFFCURVE",
"499 615 CURVE",
"500 600 OFFCURVE",
"500 587 OFFCURVE",
"505 574 CURVE",
"504 568 OFFCURVE",
"503 564 OFFCURVE",
"501 557 CURVE",
"505 545 OFFCURVE",
"505 532 OFFCURVE",
"511 520 CURVE",
"511 520 OFFCURVE",
"511 519 OFFCURVE",
"511 518 CURVE",
"512 501 OFFCURVE",
"514 485 OFFCURVE",
"513 469 CURVE"
);
}
);
width = 553;
}
);
unicode = 004A;
},
{
glyphname = K;
lastChange = "2020-11-04 23:12:10 +0000";
layers = (
{
layerId = master01;
paths = (
{
closed = 1;
nodes = (
"585 68 OFFCURVE",
"587 64 OFFCURVE",
"585 63 CURVE",
"569 44 OFFCURVE",
"552 24 OFFCURVE",
"536 3 CURVE",
"527 -6 LINE",
"520 -7 OFFCURVE",
"513 -7 OFFCURVE",
"505 -8 CURVE SMOOTH",
"499 -9 OFFCURVE",
"493 -12 OFFCURVE",
"488 -14 CURVE",
"476 -10 OFFCURVE",
"467 -7 OFFCURVE",
"460 3 CURVE",
"459 6 OFFCURVE",
"457 8 OFFCURVE",
"454 10 CURVE",
"434 24 OFFCURVE",
"415 41 OFFCURVE",
"392 52 CURVE SMOOTH",
"386 54 OFFCURVE",
"382 57 OFFCURVE",
"375 61 CURVE SMOOTH",
"368 64 OFFCURVE",
"360 68 OFFCURVE",
"350 72 CURVE",
"345 77 OFFCURVE",
"337 83 OFFCURVE",
"330 90 CURVE SMOOTH",
"323 97 OFFCURVE",
"316 102 OFFCURVE",
"307 107 CURVE SMOOTH",
"299 110 OFFCURVE",
"293 117 OFFCURVE",
"286 122 CURVE SMOOTH",
"278 126 OFFCURVE",
"269 130 OFFCURVE",
"261 133 CURVE",
"256 139 OFFCURVE",
"252 144 OFFCURVE",
"248 150 CURVE",
"243 153 OFFCURVE",
"237 154 OFFCURVE",
"230 152 CURVE",
"229 150 OFFCURVE",
"227 148 OFFCURVE",
"227 146 CURVE",
"223 116 OFFCURVE",
"218 85 OFFCURVE",
"213 54 CURVE",
"215 51 OFFCURVE",
"217 47 OFFCURVE",
"220 43 CURVE",
"222 31 OFFCURVE",
"218 18 OFFCURVE",
"221 6 CURVE SMOOTH",
"222 -6 OFFCURVE",
"221 -18 OFFCURVE",
"221 -30 CURVE SMOOTH",
"221 -36 OFFCURVE",
"216 -40 OFFCURVE",
"212 -40 CURVE",
"197 -39 OFFCURVE",
"184 -41 OFFCURVE",
"170 -44 CURVE SMOOTH",
"148 -46 OFFCURVE",
"126 -46 OFFCURVE",
"106 -47 CURVE",
"92 -47 OFFCURVE",
"81 -43 OFFCURVE",
"69 -37 CURVE SMOOTH",
"63 -35 OFFCURVE",
"57 -30 OFFCURVE",
"56 -23 CURVE SMOOTH",
"55 -12 OFFCURVE",
"54 -1 OFFCURVE",
"52 9 CURVE",
"51 20 OFFCURVE",
"55 28 OFFCURVE",
"56 38 CURVE",
"53 48 OFFCURVE",
"49 57 OFFCURVE",
"49 69 CURVE",
"51 74 OFFCURVE",
"49 78 OFFCURVE",
"48 82 CURVE",
"43 93 OFFCURVE",
"43 105 OFFCURVE",
"44 116 CURVE SMOOTH",
"45 130 OFFCURVE",
"44 144 OFFCURVE",
"39 155 CURVE",
"40 167 OFFCURVE",
"43 177 OFFCURVE",
"43 186 CURVE SMOOTH",
"43 194 OFFCURVE",
"47 202 OFFCURVE",
"46 212 CURVE",
"44 221 OFFCURVE",
"44 231 OFFCURVE",
"44 240 CURVE SMOOTH",
"44 274 OFFCURVE",
"43 307 OFFCURVE",
"43 340 CURVE",
"44 351 OFFCURVE",
"43 361 OFFCURVE",
"39 371 CURVE",
"47 381 OFFCURVE",
"49 392 OFFCURVE",
"60 400 CURVE",
"61 401 OFFCURVE",
"60 404 OFFCURVE",
"54 406 CURVE",
"53 406 OFFCURVE",
"52 407 OFFCURVE",
"51 407 CURVE",
"46 416 OFFCURVE",
"51 427 OFFCURVE",
"49 436 CURVE SMOOTH",
"48 446 OFFCURVE",
"55 454 OFFCURVE",
"55 463 CURVE",
"54 469 OFFCURVE",
"53 474 OFFCURVE",
"52 480 CURVE",
"53 484 OFFCURVE",
"54 490 OFFCURVE",
"55 496 CURVE",
"47 526 OFFCURVE",
"48 557 OFFCURVE",
"48 588 CURVE SMOOTH",
"48 591 OFFCURVE",
"49 596 OFFCURVE",
"51 600 CURVE",
"51 605 OFFCURVE",
"54 608 OFFCURVE",
"57 611 CURVE",
"77 619 OFFCURVE",
"97 628 OFFCURVE",
"118 627 CURVE",
"124 626 OFFCURVE",
"130 627 OFFCURVE",
"135 629 CURVE",
"150 635 OFFCURVE",
"164 634 OFFCURVE",
"179 631 CURVE",
"189 628 OFFCURVE",
"199 626 OFFCURVE",
"207 618 CURVE",
"217 616 OFFCURVE",
"225 624 OFFCURVE",
"235 624 CURVE",
"236 623 OFFCURVE",
"239 623 OFFCURVE",
"239 621 CURVE",
"244 613 OFFCURVE",
"247 604 OFFCURVE",
"247 593 CURVE",
"246 585 OFFCURVE",
"248 576 OFFCURVE",
"251 566 CURVE",
"248 558 OFFCURVE",
"247 547 OFFCURVE",
"245 537 CURVE SMOOTH",
"244 529 OFFCURVE",
"244 522 OFFCURVE",
"245 514 CURVE SMOOTH",
"246 503 OFFCURVE",
"246 491 OFFCURVE",
"246 480 CURVE SMOOTH",
"246 476 OFFCURVE",
"244 473 OFFCURVE",
"244 470 CURVE",
"241 463 OFFCURVE",
"239 458 OFFCURVE",
"238 452 CURVE",
"238 444 OFFCURVE",
"238 437 OFFCURVE",
"239 429 CURVE",
"239 427 OFFCURVE",
"237 423 OFFCURVE",
"238 420 CURVE SMOOTH",
"241 406 OFFCURVE",
"240 392 OFFCURVE",
"241 378 CURVE",
"241 374 OFFCURVE",
"243 370 OFFCURVE",
"247 368 CURVE",
"255 369 OFFCURVE",
"261 377 OFFCURVE",
"270 377 CURVE",
"277 383 OFFCURVE",
"284 388 OFFCURVE",
"291 392 CURVE",
"296 394 OFFCURVE",
"301 396 OFFCURVE",
"306 397 CURVE",
"314 401 OFFCURVE",
"315 411 OFFCURVE",
"321 417 CURVE",
"335 427 OFFCURVE",
"348 438 OFFCURVE",
"360 451 CURVE SMOOTH",
"367 458 OFFCURVE",
"376 465 OFFCURVE",
"384 471 CURVE SMOOTH",
"386 474 OFFCURVE",
"390 475 OFFCURVE",
"391 477 CURVE",
"408 500 OFFCURVE",
"435 512 OFFCURVE",
"454 528 CURVE",
"469 530 OFFCURVE",
"482 534 OFFCURVE",
"494 536 CURVE",
"504 535 OFFCURVE",
"512 531 OFFCURVE",
"515 523 CURVE SMOOTH",
"518 518 OFFCURVE",
"521 514 OFFCURVE",
"524 509 CURVE",
"539 494 OFFCURVE",
"553 478 OFFCURVE",
"568 462 CURVE",
"572 458 OFFCURVE",
"575 452 OFFCURVE",
"578 447 CURVE",
"580 442 OFFCURVE",
"577 438 OFFCURVE",
"575 435 CURVE",
"567 427 OFFCURVE",
"559 417 OFFCURVE",
"547 413 CURVE SMOOTH",
"544 412 OFFCURVE",
"542 409 OFFCURVE",
"539 408 CURVE",
"532 402 OFFCURVE",
"527 397 OFFCURVE",
"528 388 CURVE",
"526 385 OFFCURVE",
"524 383 OFFCURVE",
"522 382 CURVE",
"498 361 LINE",
"498 360 OFFCURVE",
"497 360 OFFCURVE",
"496 359 CURVE",
"476 350 OFFCURVE",
"460 336 OFFCURVE",
"442 325 CURVE SMOOTH",
"422 315 OFFCURVE",
"405 302 OFFCURVE",
"393 284 CURVE",
"390 277 OFFCURVE",
"381 275 OFFCURVE",
"379 267 CURVE",
"379 265 OFFCURVE",
"379 262 OFFCURVE",
"381 261 CURVE",
"384 259 OFFCURVE",
"388 256 OFFCURVE",
"392 254 CURVE SMOOTH",
"404 248 OFFCURVE",
"413 239 OFFCURVE",
"421 229 CURVE SMOOTH",
"430 215 OFFCURVE",
"443 204 OFFCURVE",
"458 194 CURVE",
"462 191 OFFCURVE",
"468 186 OFFCURVE",
"473 182 CURVE",
"482 169 OFFCURVE",
"496 160 OFFCURVE",
"508 151 CURVE SMOOTH",
"516 145 OFFCURVE",
"524 139 OFFCURVE",
"534 132 CURVE",
"541 123 OFFCURVE",
"543 107 OFFCURVE",
"558 105 CURVE",
"566 90 OFFCURVE",
"569 74 OFFCURVE",
"587 72 CURVE"
);
}
);
width = 626;
}
);
unicode = 004B;
},
{
glyphname = L;
lastChange = "2020-11-04 23:12:10 +0000";
layers = (
{
layerId = master01;
paths = (
{
closed = 1;
nodes = (
"405 122 OFFCURVE",
"402 110 OFFCURVE",
"402 100 CURVE SMOOTH",
"402 90 OFFCURVE",
"401 79 OFFCURVE",
"398 69 CURVE SMOOTH",
"394 60 OFFCURVE",
"397 49 OFFCURVE",
"396 39 CURVE",
"393 33 OFFCURVE",
"390 26 OFFCURVE",
"386 20 CURVE SMOOTH",
"384 14 OFFCURVE",
"382 8 OFFCURVE",
"379 2 CURVE",
"370 -2 OFFCURVE",
"361 -7 OFFCURVE",
"353 -10 CURVE",
"335 -14 OFFCURVE",
"316 -8 OFFCURVE",
"297 -13 CURVE",
"294 -14 OFFCURVE",
"291 -16 OFFCURVE",
"286 -18 CURVE",
"281 -20 OFFCURVE",
"273 -21 OFFCURVE",
"266 -22 CURVE",
"261 -22 OFFCURVE",
"256 -22 OFFCURVE",
"253 -21 CURVE SMOOTH",
"245 -17 OFFCURVE",
"238 -18 OFFCURVE",
"231 -20 CURVE",
"225 -20 OFFCURVE",
"220 -18 OFFCURVE",
"214 -17 CURVE",
"210 -21 OFFCURVE",
"206 -23 OFFCURVE",
"201 -25 CURVE",
"190 -29 OFFCURVE",
"177 -23 OFFCURVE",
"168 -30 CURVE",
"160 -26 OFFCURVE",
"154 -24 OFFCURVE",
"148 -22 CURVE",
"138 -21 OFFCURVE",
"130 -26 OFFCURVE",
"120 -24 CURVE SMOOTH",
"109 -22 OFFCURVE",
"99 -26 OFFCURVE",
"89 -26 CURVE",
"78 -25 OFFCURVE",
"69 -25 OFFCURVE",
"61 -28 CURVE",
"59 -24 OFFCURVE",
"56 -23 OFFCURVE",
"56 -21 CURVE",
"51 1 OFFCURVE",
"49 23 OFFCURVE",
"49 46 CURVE",
"51 59 OFFCURVE",
"49 71 OFFCURVE",
"49 86 CURVE",
"40 112 OFFCURVE",
"39 139 OFFCURVE",
"40 167 CURVE SMOOTH",
"41 194 OFFCURVE",
"43 222 OFFCURVE",
"44 251 CURVE",
"44 262 OFFCURVE",
"45 274 OFFCURVE",
"48 285 CURVE SMOOTH",
"53 298 OFFCURVE",
"54 312 OFFCURVE",
"54 327 CURVE SMOOTH",
"54 339 OFFCURVE",
"54 352 OFFCURVE",
"53 365 CURVE",
"53 370 OFFCURVE",
"53 377 OFFCURVE",
"52 384 CURVE SMOOTH",
"49 394 OFFCURVE",
"48 405 OFFCURVE",
"48 415 CURVE",
"49 422 OFFCURVE",
"48 428 OFFCURVE",
"47 435 CURVE SMOOTH",
"46 440 OFFCURVE",
"48 447 OFFCURVE",
"47 453 CURVE SMOOTH",
"46 462 OFFCURVE",
"45 470 OFFCURVE",
"48 478 CURVE",
"49 483 OFFCURVE",
"48 488 OFFCURVE",
"47 491 CURVE",
"45 501 OFFCURVE",
"44 513 OFFCURVE",
"47 523 CURVE",
"51 539 OFFCURVE",
"52 557 OFFCURVE",
"53 570 CURVE",
"55 581 OFFCURVE",
"64 585 OFFCURVE",
"63 593 CURVE SMOOTH",
"62 601 OFFCURVE",
"75 601 OFFCURVE",
"69 611 CURVE",
"74 611 OFFCURVE",
"76 611 OFFCURVE",
"77 610 CURVE",
"89 605 OFFCURVE",
"100 604 OFFCURVE",
"110 608 CURVE",
"118 607 OFFCURVE",
"126 605 OFFCURVE",
"133 605 CURVE",
"140 604 OFFCURVE",
"148 606 OFFCURVE",
"155 607 CURVE SMOOTH",
"171 611 OFFCURVE",
"186 615 OFFCURVE",
"202 615 CURVE",
"209 616 OFFCURVE",
"216 616 OFFCURVE",
"222 615 CURVE",
"225 615 OFFCURVE",
"228 613 OFFCURVE",
"231 611 CURVE",
"230 605 OFFCURVE",
"229 600 OFFCURVE",
"228 595 CURVE",
"229 588 OFFCURVE",
"232 581 OFFCURVE",
"232 573 CURVE",
"233 566 OFFCURVE",
"237 559 OFFCURVE",
"240 551 CURVE",
"236 543 OFFCURVE",
"232 532 OFFCURVE",
"228 523 CURVE",
"230 518 OFFCURVE",
"231 513 OFFCURVE",
"233 508 CURVE",
"228 484 OFFCURVE",
"222 460 OFFCURVE",
"221 435 CURVE",
"220 428 OFFCURVE",
"217 421 OFFCURVE",
"215 412 CURVE",
"217 407 OFFCURVE",
"220 401 OFFCURVE",
"222 394 CURVE",
"218 374 LINE",
"218 368 OFFCURVE",
"218 362 OFFCURVE",
"216 358 CURVE SMOOTH",
"212 348 OFFCURVE",
"212 339 OFFCURVE",
"210 329 CURVE",
"210 312 OFFCURVE",
"207 293 OFFCURVE",
"209 275 CURVE",
"209 263 OFFCURVE",
"204 254 OFFCURVE",
"202 241 CURVE",
"204 236 OFFCURVE",
"205 230 OFFCURVE",
"207 224 CURVE",
"205 217 OFFCURVE",
"204 210 OFFCURVE",
"201 202 CURVE",
"205 193 OFFCURVE",
"209 183 OFFCURVE",
"213 173 CURVE",
"215 168 OFFCURVE",
"216 163 OFFCURVE",
"218 158 CURVE SMOOTH",
"222 147 OFFCURVE",
"225 145 OFFCURVE",
"235 147 CURVE SMOOTH",
"254 152 OFFCURVE",
"274 154 OFFCURVE",
"294 158 CURVE",
"297 159 OFFCURVE",
"300 159 OFFCURVE",
"304 159 CURVE SMOOTH",
"316 159 OFFCURVE",
"329 161 OFFCURVE",
"340 168 CURVE SMOOTH",
"352 175 OFFCURVE",
"363 178 OFFCURVE",
"377 176 CURVE SMOOTH",
"383 175 OFFCURVE",
"390 178 OFFCURVE",
"397 175 CURVE",
"398 173 OFFCURVE",
"400 170 OFFCURVE",
"400 167 CURVE",
"404 155 OFFCURVE",
"404 144 OFFCURVE",
"404 132 CURVE"
);
}
);
width = 444;
}
);
unicode = 004C;
},
{
glyphname = Lslash;
lastChange = "2020-11-04 23:12:10 +0000";
layers = (
{
layerId = master01;
paths = (
{
closed = 1;
nodes = (
"474 106 OFFCURVE",
"481 92 OFFCURVE",
"476 79 CURVE",
"482 68 OFFCURVE",
"476 59 OFFCURVE",
"470 47 CURVE",
"470 44 OFFCURVE",
"471 39 OFFCURVE",
"473 36 CURVE",
"474 30 OFFCURVE",
"473 24 OFFCURVE",
"469 20 CURVE SMOOTH",
"462 10 OFFCURVE",
"455 7 OFFCURVE",
"445 9 CURVE SMOOTH",
"436 11 OFFCURVE",
"429 14 OFFCURVE",
"420 16 CURVE",
"419 16 OFFCURVE",
"416 15 OFFCURVE",
"415 13 CURVE SMOOTH",
"410 1 OFFCURVE",
"399 -3 OFFCURVE",
"386 -3 CURVE SMOOTH",
"379 -3 OFFCURVE",
"373 -2 OFFCURVE",
"366 -1 CURVE",
"360 -5 OFFCURVE",
"354 -7 OFFCURVE",
"348 -10 CURVE",
"324 -10 LINE",
"321 -12 OFFCURVE",
"319 -12 OFFCURVE",
"317 -14 CURVE",
"305 -25 OFFCURVE",
"290 -31 OFFCURVE",
"271 -29 CURVE",
"262 -29 LINE",
"252 -25 OFFCURVE",
"241 -21 OFFCURVE",
"230 -17 CURVE",
"221 -20 OFFCURVE",
"213 -22 OFFCURVE",
"207 -23 CURVE",
"197 -23 OFFCURVE",
"192 -18 OFFCURVE",
"185 -15 CURVE",
"184 -14 OFFCURVE",
"182 -12 OFFCURVE",
"182 -10 CURVE",
"178 0 OFFCURVE",
"171 8 OFFCURVE",
"163 16 CURVE",
"162 28 OFFCURVE",
"159 40 OFFCURVE",
"163 54 CURVE SMOOTH",
"165 59 OFFCURVE",
"164 64 OFFCURVE",
"163 70 CURVE",
"162 82 OFFCURVE",
"160 94 OFFCURVE",
"160 106 CURVE SMOOTH",
"159 127 OFFCURVE",
"155 147 OFFCURVE",
"150 167 CURVE",
"146 173 OFFCURVE",
"140 174 OFFCURVE",
"135 175 CURVE",
"124 175 OFFCURVE",
"114 174 OFFCURVE",
"106 169 CURVE SMOOTH",
"95 162 OFFCURVE",
"82 160 OFFCURVE",
"69 156 CURVE",
"59 159 OFFCURVE",
"51 162 OFFCURVE",
"45 170 CURVE",
"41 178 OFFCURVE",
"40 206 OFFCURVE",
"44 232 CURVE",
"46 237 OFFCURVE",
"48 238 OFFCURVE",
"53 239 CURVE",
"53 239 OFFCURVE",
"61 248 OFFCURVE",
"68 250 CURVE SMOOTH",
"77 252 OFFCURVE",
"83 260 OFFCURVE",
"89 268 CURVE",
"103 275 OFFCURVE",
"120 283 OFFCURVE",
"136 288 CURVE",
"144 300 OFFCURVE",
"145 313 OFFCURVE",
"150 325 CURVE",
"147 329 OFFCURVE",
"145 334 OFFCURVE",
"143 337 CURVE",
"139 344 OFFCURVE",
"137 352 OFFCURVE",
"139 359 CURVE",
"141 371 OFFCURVE",
"140 383 OFFCURVE",
"138 394 CURVE",
"138 399 OFFCURVE",
"138 402 OFFCURVE",
"141 407 CURVE",
"141 415 LINE SMOOTH",
"141 422 OFFCURVE",
"143 424 OFFCURVE",
"140 431 CURVE SMOOTH",
"138 438 OFFCURVE",
"139 444 OFFCURVE",
"138 451 CURVE SMOOTH",
"136 466 OFFCURVE",
"138 482 OFFCURVE",
"140 497 CURVE",
"140 499 OFFCURVE",
"143 503 OFFCURVE",
"144 506 CURVE",
"146 511 OFFCURVE",
"148 516 OFFCURVE",
"146 522 CURVE SMOOTH",
"142 532 OFFCURVE",
"146 543 OFFCURVE",
"150 554 CURVE",
"146 559 OFFCURVE",
"143 562 OFFCURVE",
"139 567 CURVE",
"140 577 OFFCURVE",
"146 585 OFFCURVE",
"152 595 CURVE",
"160 593 OFFCURVE",
"167 592 OFFCURVE",
"175 592 CURVE",
"200 601 OFFCURVE",
"229 603 OFFCURVE",
"251 616 CURVE",
"259 615 OFFCURVE",
"262 613 OFFCURVE",
"268 605 CURVE",
"269 604 OFFCURVE",
"268 599 OFFCURVE",
"267 593 CURVE SMOOTH",
"265 583 OFFCURVE",
"269 574 OFFCURVE",
"279 567 CURVE",
"281 561 OFFCURVE",
"281 554 OFFCURVE",
"282 549 CURVE SMOOTH",
"283 542 OFFCURVE",
"285 535 OFFCURVE",
"285 529 CURVE",
"284 522 OFFCURVE",
"286 516 OFFCURVE",
"288 509 CURVE SMOOTH",
"289 504 OFFCURVE",
"283 497 OFFCURVE",
"286 490 CURVE SMOOTH",
"291 480 OFFCURVE",
"283 469 OFFCURVE",
"286 458 CURVE SMOOTH",
"289 448 OFFCURVE",
"289 439 OFFCURVE",
"291 429 CURVE",
"293 422 OFFCURVE",
"298 415 OFFCURVE",
"305 411 CURVE",
"307 409 OFFCURVE",
"309 408 OFFCURVE",
"312 409 CURVE",
"330 412 OFFCURVE",
"347 414 OFFCURVE",
"366 416 CURVE",
"367 415 OFFCURVE",
"368 415 OFFCURVE",
"368 414 CURVE",
"370 407 OFFCURVE",
"373 399 OFFCURVE",
"375 392 CURVE",
"371 385 OFFCURVE",
"369 377 OFFCURVE",
"367 370 CURVE",
"369 358 OFFCURVE",
"371 345 OFFCURVE",
"368 331 CURVE SMOOTH",
"366 321 OFFCURVE",
"368 309 OFFCURVE",
"368 298 CURVE",
"367 291 OFFCURVE",
"361 288 OFFCURVE",
"353 286 CURVE SMOOTH",
"346 285 OFFCURVE",
"339 284 OFFCURVE",
"332 283 CURVE",
"323 279 OFFCURVE",
"320 271 OFFCURVE",
"319 265 CURVE SMOOTH",
"317 258 OFFCURVE",
"317 251 OFFCURVE",
"319 245 CURVE",
"319 225 OFFCURVE",
"319 206 OFFCURVE",
"319 186 CURVE SMOOTH",
"318 182 OFFCURVE",
"319 177 OFFCURVE",
"319 173 CURVE",
"308 131 LINE",
"309 126 OFFCURVE",
"312 123 OFFCURVE",
"316 121 CURVE SMOOTH",
"322 118 OFFCURVE",
"328 117 OFFCURVE",
"334 117 CURVE",
"351 121 OFFCURVE",
"368 123 OFFCURVE",
"384 131 CURVE",
"389 130 OFFCURVE",
"396 128 OFFCURVE",
"402 126 CURVE",
"408 128 OFFCURVE",
"415 131 OFFCURVE",
"422 131 CURVE SMOOTH",
"429 133 OFFCURVE",
"437 131 OFFCURVE",
"444 132 CURVE",
"450 132 OFFCURVE",
"455 136 OFFCURVE",
"461 137 CURVE",
"462 138 OFFCURVE",
"466 137 OFFCURVE",
"469 137 CURVE",
"471 135 OFFCURVE",
"475 131 OFFCURVE",
"477 128 CURVE",
"478 124 OFFCURVE",
"481 121 OFFCURVE",
"480 118 CURVE SMOOTH",
"480 118 LINE SMOOTH"
);
}
);
width = 521;
}
);
unicode = 0141;
},
{
glyphname = M;
lastChange = "2020-11-04 23:12:10 +0000";
layers = (
{
layerId = master01;
paths = (
{
closed = 1;
nodes = (
"747 97 OFFCURVE",
"749 76 OFFCURVE",
"744 55 CURVE",
"742 48 OFFCURVE",
"742 41 OFFCURVE",
"742 35 CURVE SMOOTH",
"742 24 OFFCURVE",
"736 20 OFFCURVE",
"729 16 CURVE",
"725 15 OFFCURVE",
"721 13 OFFCURVE",
"716 13 CURVE",
"705 14 OFFCURVE",
"696 8 OFFCURVE",
"688 3 CURVE",
"682 3 OFFCURVE",
"677 5 OFFCURVE",
"673 3 CURVE SMOOTH",
"662 1 OFFCURVE",
"652 -2 OFFCURVE",
"642 -6 CURVE SMOOTH",
"634 -8 OFFCURVE",
"624 -9 OFFCURVE",
"616 -8 CURVE",
"614 -7 OFFCURVE",
"613 -6 OFFCURVE",
"611 -5 CURVE",
"606 2 OFFCURVE",
"607 12 OFFCURVE",
"605 20 CURVE",
"601 38 OFFCURVE",
"599 56 OFFCURVE",
"598 75 CURVE",
"598 85 OFFCURVE",
"596 95 OFFCURVE",
"595 107 CURVE",
"596 116 OFFCURVE",
"599 126 OFFCURVE",
"595 137 CURVE",
"596 154 OFFCURVE",
"587 169 OFFCURVE",
"589 185 CURVE",
"587 194 OFFCURVE",
"583 204 OFFCURVE",
"581 213 CURVE",
"582 236 OFFCURVE",
"582 259 OFFCURVE",
"575 281 CURVE",
"576 290 OFFCURVE",
"578 298 OFFCURVE",
"580 306 CURVE",
"580 311 OFFCURVE",
"578 315 OFFCURVE",
"575 319 CURVE",
"566 320 OFFCURVE",
"555 319 OFFCURVE",
"551 329 CURVE",
"545 327 OFFCURVE",
"542 327 OFFCURVE",
"539 324 CURVE",
"528 315 OFFCURVE",
"518 305 OFFCURVE",
"514 289 CURVE SMOOTH",
"512 279 OFFCURVE",
"508 271 OFFCURVE",
"504 263 CURVE SMOOTH",
"496 251 OFFCURVE",
"489 238 OFFCURVE",
"482 225 CURVE",
"478 215 OFFCURVE",
"478 204 OFFCURVE",
"474 194 CURVE SMOOTH",
"467 181 OFFCURVE",
"463 166 OFFCURVE",
"458 152 CURVE SMOOTH",
"452 139 OFFCURVE",
"444 125 OFFCURVE",
"438 113 CURVE SMOOTH",
"429 95 OFFCURVE",
"419 81 OFFCURVE",
"413 63 CURVE",
"412 57 OFFCURVE",
"405 54 OFFCURVE",
"400 55 CURVE SMOOTH",
"385 60 OFFCURVE",
"369 54 OFFCURVE",
"355 60 CURVE SMOOTH",
"353 61 OFFCURVE",
"351 60 OFFCURVE",
"348 60 CURVE",
"339 56 OFFCURVE",
"329 60 OFFCURVE",
"320 62 CURVE SMOOTH",
"315 63 OFFCURVE",
"312 67 OFFCURVE",
"311 71 CURVE SMOOTH",
"304 97 OFFCURVE",
"289 120 OFFCURVE",
"286 147 CURVE",
"281 154 OFFCURVE",
"276 162 OFFCURVE",
"271 168 CURVE",
"267 187 OFFCURVE",
"263 206 OFFCURVE",
"259 225 CURVE",
"254 231 OFFCURVE",
"250 237 OFFCURVE",
"244 244 CURVE",
"243 253 OFFCURVE",
"240 263 OFFCURVE",
"238 274 CURVE",
"235 283 OFFCURVE",
"231 291 OFFCURVE",
"225 298 CURVE",
"221 299 OFFCURVE",
"218 297 OFFCURVE",
"217 293 CURVE SMOOTH",
"216 290 OFFCURVE",
"216 286 OFFCURVE",
"216 283 CURVE",
"212 278 OFFCURVE",
"207 273 OFFCURVE",
"204 268 CURVE",
"201 225 OFFCURVE",
"197 185 OFFCURVE",
"191 145 CURVE",
"193 129 OFFCURVE",
"187 113 OFFCURVE",
"189 95 CURVE SMOOTH",
"190 83 OFFCURVE",
"187 70 OFFCURVE",
"187 57 CURVE",
"186 41 OFFCURVE",
"184 28 OFFCURVE",
"179 14 CURVE",
"177 9 OFFCURVE",
"174 7 OFFCURVE",
"169 6 CURVE SMOOTH",
"164 5 OFFCURVE",
"160 3 OFFCURVE",
"156 1 CURVE",
"146 -3 OFFCURVE",
"135 -9 OFFCURVE",
"124 -15 CURVE",
"79 -17 OFFCURVE",
"79 -17 OFFCURVE",
"60 -12 CURVE",
"56 -8 OFFCURVE",
"55 -3 OFFCURVE",
"54 1 CURVE",
"54 13 OFFCURVE",
"52 24 OFFCURVE",
"47 36 CURVE SMOOTH",
"40 53 OFFCURVE",
"39 71 OFFCURVE",
"41 91 CURVE SMOOTH",
"43 97 OFFCURVE",
"44 102 OFFCURVE",
"45 108 CURVE SMOOTH",
"47 122 OFFCURVE",
"48 136 OFFCURVE",
"45 150 CURVE",
"44 160 OFFCURVE",
"44 170 OFFCURVE",
"43 181 CURVE",
"43 184 OFFCURVE",
"44 187 OFFCURVE",
"45 191 CURVE SMOOTH",
"47 198 OFFCURVE",
"47 205 OFFCURVE",
"45 212 CURVE SMOOTH",
"44 215 OFFCURVE",
"43 218 OFFCURVE",
"44 222 CURVE SMOOTH",
"46 230 OFFCURVE",
"44 238 OFFCURVE",
"43 245 CURVE",
"47 251 OFFCURVE",
"51 254 OFFCURVE",
"54 259 CURVE",
"56 263 OFFCURVE",
"55 268 OFFCURVE",
"54 273 CURVE SMOOTH",
"53 277 OFFCURVE",
"51 282 OFFCURVE",
"48 285 CURVE",
"46 293 OFFCURVE",
"45 301 OFFCURVE",
"48 309 CURVE",
"52 315 OFFCURVE",
"54 322 OFFCURVE",
"53 329 CURVE",
"53 335 OFFCURVE",
"54 340 OFFCURVE",
"55 346 CURVE SMOOTH",
"56 351 OFFCURVE",
"57 355 OFFCURVE",
"56 360 CURVE SMOOTH",
"53 374 OFFCURVE",
"56 389 OFFCURVE",
"54 402 CURVE SMOOTH",
"53 413 OFFCURVE",
"57 423 OFFCURVE",
"60 432 CURVE",
"60 438 OFFCURVE",
"59 445 OFFCURVE",
"57 451 CURVE",
"57 452 OFFCURVE",
"57 454 OFFCURVE",
"59 457 CURVE SMOOTH",
"61 462 OFFCURVE",
"64 467 OFFCURVE",
"64 473 CURVE",
"66 482 OFFCURVE",
"69 491 OFFCURVE",
"69 500 CURVE",
"72 512 OFFCURVE",
"70 523 OFFCURVE",
"68 534 CURVE",
"70 544 OFFCURVE",
"77 547 OFFCURVE",
"86 550 CURVE",
"92 549 OFFCURVE",
"100 547 OFFCURVE",
"107 546 CURVE",
"116 549 OFFCURVE",
"126 552 OFFCURVE",
"136 554 CURVE",
"144 553 OFFCURVE",
"153 552 OFFCURVE",
"160 551 CURVE",
"162 551 OFFCURVE",
"163 552 OFFCURVE",
"164 552 CURVE",
"169 557 OFFCURVE",
"174 561 OFFCURVE",
"178 565 CURVE",
"192 567 OFFCURVE",
"205 569 OFFCURVE",
"217 570 CURVE SMOOTH",
"224 572 OFFCURVE",
"230 569 OFFCURVE",
"237 569 CURVE SMOOTH",
"241 569 OFFCURVE",
"245 572 OFFCURVE",
"247 575 CURVE",
"250 574 OFFCURVE",
"252 573 OFFCURVE",
"253 570 CURVE",
"274 542 OFFCURVE",
"294 513 OFFCURVE",
"301 476 CURVE SMOOTH",
"305 460 OFFCURVE",
"312 445 OFFCURVE",
"321 429 CURVE",
"324 424 OFFCURVE",
"330 417 OFFCURVE",
"337 411 CURVE",
"337 400 OFFCURVE",
"338 390 OFFCURVE",
"338 378 CURVE",
"342 373 OFFCURVE",
"346 367 OFFCURVE",
"350 361 CURVE SMOOTH",
"355 352 OFFCURVE",
"361 342 OFFCURVE",
"368 332 CURVE SMOOTH",
"370 329 OFFCURVE",
"376 329 OFFCURVE",
"378 334 CURVE",
"383 346 OFFCURVE",
"388 358 OFFCURVE",
"392 369 CURVE SMOOTH",
"397 378 OFFCURVE",
"402 388 OFFCURVE",
"413 391 CURVE SMOOTH",
"419 393 OFFCURVE",
"423 399 OFFCURVE",
"425 406 CURVE SMOOTH",
"431 423 OFFCURVE",
"440 436 OFFCURVE",
"452 450 CURVE",
"462 465 OFFCURVE",
"471 481 OFFCURVE",
"482 496 CURVE SMOOTH",
"485 501 OFFCURVE",
"489 507 OFFCURVE",
"494 511 CURVE",
"504 518 OFFCURVE",
"511 527 OFFCURVE",
"514 538 CURVE SMOOTH",
"515 543 OFFCURVE",
"518 547 OFFCURVE",
"519 551 CURVE",
"530 566 OFFCURVE",
"542 580 OFFCURVE",
"552 593 CURVE",
"569 605 OFFCURVE",
"589 601 OFFCURVE",
"606 603 CURVE",
"622 597 OFFCURVE",
"637 591 OFFCURVE",
"654 585 CURVE",
"665 588 OFFCURVE",
"676 590 OFFCURVE",
"689 588 CURVE",
"696 585 OFFCURVE",
"702 580 OFFCURVE",
"704 572 CURVE",
"710 559 OFFCURVE",
"716 546 OFFCURVE",
"716 531 CURVE",
"716 529 OFFCURVE",
"716 527 OFFCURVE",
"718 524 CURVE SMOOTH",
"721 516 OFFCURVE",
"725 507 OFFCURVE",
"725 498 CURVE SMOOTH",
"725 481 OFFCURVE",
"728 463 OFFCURVE",
"728 446 CURVE SMOOTH",
"728 430 OFFCURVE",
"728 415 OFFCURVE",
"729 400 CURVE",
"729 394 OFFCURVE",
"730 389 OFFCURVE",
"730 382 CURVE",
"729 373 OFFCURVE",
"727 362 OFFCURVE",
"725 350 CURVE",
"726 338 OFFCURVE",
"727 324 OFFCURVE",
"726 309 CURVE",
"723 299 OFFCURVE",
"725 286 OFFCURVE",
"723 275 CURVE SMOOTH",
"722 268 OFFCURVE",
"722 261 OFFCURVE",
"723 254 CURVE",
"728 239 OFFCURVE",
"728 224 OFFCURVE",
"730 209 CURVE SMOOTH",
"731 201 OFFCURVE",
"734 193 OFFCURVE",
"730 185 CURVE",
"730 178 LINE",
"733 166 OFFCURVE",
"735 153 OFFCURVE",
"736 138 CURVE",
"739 132 OFFCURVE",
"742 125 OFFCURVE",
"746 118 CURVE"
);
}
);
width = 788;
}
);
unicode = 004D;
},
